{"glyphs":{"0":{"ha":788,"x_min":90,"x_max":698,"o":"m 340 -13 q 148 97 206 -13 q 112 418 90 207 l 130 587 q 234 912 153 801 q 449 1023 314 1023 q 640 912 582 1023 q 676 587 698 801 l 658 418 q 554 97 635 207 q 340 -13 472 -13 m 347 62 q 502 148 447 62 q 576 426 557 235 l 592 580 q 576 861 612 774 q 441 948 540 948 q 285 861 340 948 q 211 580 231 774 l 194 426 q 211 148 176 235 q 347 62 246 62 m 385 423 q 340 436 356 423 q 327 482 323 448 l 332 527 q 355 573 336 561 q 403 586 374 586 q 448 573 432 586 q 461 527 465 561 l 456 482 q 432 436 452 448 q 385 423 413 423 z "},"1":{"ha":788,"x_min":121,"x_max":652,"o":"m 121 0 l 129 74 l 359 74 l 442 867 l 426 867 q 325 753 391 795 q 182 716 259 711 l 181 801 q 350 856 274 799 q 461 1010 426 913 l 540 1010 l 442 74 l 652 74 l 644 0 l 121 0 z "},"2":{"ha":788,"x_min":68,"x_max":697,"o":"m 68 0 l 91 215 q 150 390 102 327 q 293 480 197 452 l 460 530 q 555 586 525 549 q 592 693 585 624 l 598 756 q 573 903 609 859 q 441 948 537 948 q 303 898 346 948 q 237 717 260 848 l 155 726 q 248 951 179 880 q 447 1023 317 1023 q 638 960 578 1023 q 683 769 697 896 l 673 674 q 615 535 664 587 q 472 453 566 484 l 311 405 q 215 344 247 388 q 174 217 183 301 l 159 74 l 621 74 l 614 0 l 68 0 z "},"3":{"ha":788,"x_min":78,"x_max":687,"o":"m 330 -13 q 131 52 184 -13 q 85 254 78 116 l 169 263 q 201 102 167 145 q 337 59 236 59 q 497 107 447 59 q 558 269 547 154 l 563 313 q 537 459 574 417 q 394 501 499 501 l 299 501 l 307 576 l 402 576 q 535 609 494 576 q 585 723 576 643 l 590 774 q 565 911 601 871 q 431 951 529 951 q 303 911 343 951 q 242 766 263 871 l 162 775 q 247 965 181 907 q 438 1023 314 1023 q 626 963 566 1023 q 673 773 687 904 l 668 722 q 615 600 660 645 q 499 549 569 556 l 496 529 q 617 462 578 520 q 646 313 657 404 l 641 269 q 554 57 628 128 q 330 -13 480 -13 z "},"4":{"ha":788,"x_min":87,"x_max":703,"o":"m 183 361 l 494 361 l 552 909 l 183 361 m 696 285 l 569 285 l 539 0 l 457 0 l 486 285 l 87 285 l 95 361 l 528 1010 l 645 1010 l 577 361 l 703 361 l 696 285 z "},"5":{"ha":788,"x_min":78,"x_max":678,"o":"m 331 -13 q 134 51 191 -13 q 86 260 78 114 l 169 269 q 203 106 168 150 q 338 62 237 62 q 495 113 442 62 q 558 266 548 164 l 566 337 q 544 479 576 432 q 429 527 511 527 l 145 527 l 196 1010 l 678 1010 l 670 936 l 271 936 l 236 604 l 441 604 q 610 539 557 604 q 650 347 664 475 l 640 255 q 548 57 628 128 q 331 -13 468 -13 z "},"6":{"ha":788,"x_min":85,"x_max":686,"o":"m 340 -13 q 145 74 205 -13 q 105 343 85 160 l 138 667 q 236 934 157 846 q 451 1023 316 1023 q 624 972 571 1023 q 686 807 678 922 l 597 788 q 557 915 590 881 q 439 948 525 948 q 288 883 338 948 q 221 667 237 817 l 205 509 l 218 509 q 301 584 250 558 q 426 610 351 610 q 607 533 553 610 q 649 336 662 457 l 645 298 q 550 68 629 148 q 340 -13 471 -13 m 346 62 q 494 119 442 62 q 559 295 547 176 l 562 322 q 532 483 573 432 q 395 534 491 534 q 247 483 298 534 q 186 322 197 432 l 183 295 q 210 119 170 176 q 346 62 249 62 z "},"7":{"ha":788,"x_min":165,"x_max":720,"o":"m 246 0 q 409 513 338 321 q 630 931 480 705 l 165 931 l 174 1010 l 720 1010 l 711 931 q 476 458 549 662 q 340 0 403 255 l 246 0 z "},"8":{"ha":788,"x_min":81,"x_max":687,"o":"m 340 -13 q 140 53 199 -13 q 95 256 81 119 l 98 293 q 158 455 110 395 q 280 521 207 514 l 283 543 q 191 599 223 549 q 167 736 158 649 l 172 785 q 252 965 184 907 q 448 1023 319 1023 q 632 965 577 1023 q 674 785 687 907 l 669 736 q 617 599 660 649 q 513 543 573 549 l 510 521 q 619 455 583 514 q 644 293 655 395 l 640 256 q 553 53 626 119 q 340 -13 480 -13 m 400 566 q 535 602 494 566 q 586 730 576 639 l 590 774 q 568 912 601 872 q 441 951 534 951 q 306 912 347 951 q 254 774 265 872 l 250 730 q 273 602 240 639 q 400 566 307 566 m 347 59 q 499 106 452 59 q 558 268 547 153 l 562 299 q 535 448 573 405 q 393 491 497 491 q 241 448 288 491 q 183 299 194 405 l 179 268 q 205 106 168 153 q 347 59 242 59 z "},"9":{"ha":788,"x_min":102,"x_max":703,"o":"m 393 476 q 540 527 489 476 q 602 688 591 578 l 605 715 q 578 891 617 835 q 442 948 538 948 q 294 891 346 948 q 229 715 241 835 l 226 688 q 256 527 215 578 q 393 476 297 476 m 337 -13 q 164 38 217 -13 q 102 203 110 88 l 192 223 q 230 96 198 130 q 348 62 263 62 q 500 128 449 62 q 567 343 551 193 l 583 499 l 568 499 q 484 426 537 452 q 360 400 432 400 q 182 472 239 400 q 139 674 125 543 l 143 712 q 238 943 159 862 q 448 1023 317 1023 q 644 936 585 1023 q 683 667 703 848 l 650 343 q 553 78 631 169 q 337 -13 475 -13 z "},"\u0000":{"ha":0,"x_min":0,"x_max":0,"o":""},"\r":{"ha":0,"x_min":0,"x_max":0,"o":""}," ":{"ha":788,"x_min":0,"x_max":0,"o":""}," ":{"ha":788,"x_min":0,"x_max":0,"o":""},"A":{"ha":788,"x_min":27,"x_max":657,"o":"m 513 384 l 436 890 l 251 384 l 513 384 m 571 0 l 524 309 l 222 309 l 110 0 l 27 0 l 407 1010 l 486 1010 l 657 0 l 571 0 z "},"À":{"ha":788,"x_min":27,"x_max":657,"o":"m 27 0 m 513 384 l 436 890 l 251 384 l 513 384 m 571 0 l 524 309 l 222 309 l 110 0 l 27 0 l 407 1010 l 486 1010 l 657 0 l 571 0 m 475 1136 l 299 1389 l 424 1389 l 545 1136 l 475 1136 z "},"Á":{"ha":788,"x_min":27,"x_max":664,"o":"m 27 0 m 513 384 l 436 890 l 251 384 l 513 384 m 571 0 l 524 309 l 222 309 l 110 0 l 27 0 l 407 1010 l 486 1010 l 657 0 l 571 0 m 365 1136 l 539 1389 l 664 1389 l 436 1136 l 365 1136 z "},"Â":{"ha":788,"x_min":27,"x_max":683,"o":"m 27 0 m 513 384 l 436 890 l 251 384 l 513 384 m 571 0 l 524 309 l 222 309 l 110 0 l 27 0 l 407 1010 l 486 1010 l 657 0 l 571 0 m 282 1160 l 250 1207 l 458 1410 l 516 1410 l 683 1207 l 644 1160 l 480 1330 l 282 1160 z "},"Ã":{"ha":788,"x_min":27,"x_max":696,"o":"m 27 0 m 513 384 l 436 890 l 251 384 l 513 384 m 571 0 l 524 309 l 222 309 l 110 0 l 27 0 l 407 1010 l 486 1010 l 657 0 l 571 0 m 551 1149 q 491 1173 514 1149 q 449 1249 468 1197 q 421 1311 434 1292 q 390 1331 408 1331 q 345 1294 362 1331 q 319 1176 327 1256 l 318 1162 l 254 1162 l 255 1181 q 304 1342 266 1284 q 400 1400 341 1400 q 461 1378 439 1400 q 501 1306 484 1355 q 530 1240 518 1261 q 559 1218 543 1218 q 605 1256 587 1218 q 630 1374 622 1293 l 631 1388 l 696 1388 l 694 1369 q 646 1207 683 1265 q 551 1149 610 1149 z "},"Ä":{"ha":788,"x_min":27,"x_max":657,"o":"m 27 0 m 513 384 l 436 890 l 251 384 l 513 384 m 571 0 l 524 309 l 222 309 l 110 0 l 27 0 l 407 1010 l 486 1010 l 657 0 l 571 0 m 347 1167 q 304 1178 319 1167 q 293 1221 289 1189 l 293 1230 q 314 1275 297 1263 q 360 1287 332 1287 q 402 1275 386 1287 q 413 1230 417 1263 l 413 1221 q 391 1178 409 1189 q 347 1167 372 1167 m 580 1167 q 538 1178 553 1167 q 527 1221 523 1189 l 527 1230 q 548 1275 530 1263 q 592 1287 566 1287 q 635 1275 620 1287 q 646 1230 650 1263 l 646 1221 q 624 1178 643 1189 q 580 1167 606 1167 z "},"Å":{"ha":788,"x_min":27,"x_max":657,"o":"m 27 0 m 513 384 l 436 890 l 251 384 l 513 384 m 571 0 l 524 309 l 222 309 l 110 0 l 27 0 l 407 1010 l 486 1010 l 657 0 l 571 0 m 458 1119 q 345 1163 384 1119 q 317 1295 307 1207 l 322 1346 q 379 1481 331 1436 q 501 1527 427 1527 q 614 1481 576 1527 q 643 1346 652 1436 l 638 1295 q 580 1163 628 1207 q 458 1119 533 1119 m 465 1182 q 537 1208 511 1182 q 568 1295 562 1235 l 573 1346 q 561 1435 580 1407 q 495 1463 542 1463 q 423 1435 448 1463 q 391 1346 398 1407 l 386 1295 q 399 1208 380 1235 q 465 1182 418 1182 z "},"Ā":{"ha":788,"x_min":27,"x_max":676,"o":"m 27 0 m 513 384 l 436 890 l 251 384 l 513 384 m 571 0 l 524 309 l 222 309 l 110 0 l 27 0 l 407 1010 l 486 1010 l 657 0 l 571 0 m 271 1227 l 279 1302 l 676 1302 l 668 1227 l 271 1227 z "},"Ă":{"ha":788,"x_min":27,"x_max":717,"o":"m 27 0 m 513 384 l 436 890 l 251 384 l 513 384 m 571 0 l 524 309 l 222 309 l 110 0 l 27 0 l 407 1010 l 486 1010 l 657 0 l 571 0 m 460 1128 q 299 1194 352 1128 q 258 1389 245 1260 l 338 1389 q 360 1242 328 1287 q 467 1198 391 1198 q 583 1242 543 1198 q 636 1389 624 1287 l 717 1389 q 634 1194 702 1260 q 460 1128 567 1128 z "},"Ą":{"ha":788,"x_min":27,"x_max":707,"o":"m 27 0 m 513 384 l 436 890 l 251 384 l 513 384 m 571 0 l 524 309 l 222 309 l 110 0 l 27 0 l 407 1010 l 486 1010 l 657 0 l 571 0 m 600 -271 q 497 -232 535 -271 q 466 -129 460 -193 q 515 -27 472 -73 q 614 47 557 20 l 631 29 q 569 -35 590 0 q 544 -106 548 -69 q 557 -174 539 -153 q 619 -194 576 -194 q 662 -192 639 -194 q 707 -184 686 -189 l 698 -260 q 649 -268 677 -265 q 600 -271 621 -271 z "},"Ǻ":{"ha":788,"x_min":27,"x_max":727,"o":"m 27 0 m 513 384 l 436 890 l 251 384 l 513 384 m 571 0 l 524 309 l 222 309 l 110 0 l 27 0 l 407 1010 l 486 1010 l 657 0 l 571 0 m 458 1119 q 345 1163 384 1119 q 317 1295 307 1207 l 322 1346 q 379 1481 331 1436 q 501 1527 427 1527 q 614 1481 576 1527 q 643 1346 652 1436 l 638 1295 q 580 1163 628 1207 q 458 1119 533 1119 m 465 1182 q 537 1208 511 1182 q 568 1295 562 1235 l 573 1346 q 561 1435 580 1407 q 495 1463 542 1463 q 423 1435 448 1463 q 391 1346 398 1407 l 386 1295 q 399 1208 380 1235 q 465 1182 418 1182 m 428 1515 l 602 1768 l 727 1768 l 499 1515 l 428 1515 z "},"B":{"ha":788,"x_min":88,"x_max":678,"o":"m 88 0 l 194 1010 l 451 1010 q 624 949 569 1010 q 665 773 678 889 l 659 715 q 616 603 653 649 q 521 545 578 557 l 520 524 q 624 459 588 516 q 650 313 659 402 l 644 258 q 559 66 631 131 q 359 0 486 0 l 88 0 m 231 564 l 408 564 q 530 603 490 564 q 580 730 569 641 l 583 765 q 561 896 592 856 q 447 936 529 936 l 270 936 l 231 564 m 179 74 l 375 74 q 508 119 463 74 q 562 263 552 163 l 566 303 q 542 446 577 403 q 419 490 508 490 l 223 490 l 179 74 z "},"":{"ha":788,"x_min":88,"x_max":678,"o":"m 88 0 l 194 1010 l 451 1010 q 624 949 569 1010 q 665 773 678 889 l 659 715 q 616 603 653 649 q 521 545 578 557 l 520 524 q 624 459 588 516 q 650 313 659 402 l 644 258 q 559 66 631 131 q 359 0 486 0 l 88 0 m 231 564 l 408 564 q 530 603 490 564 q 580 730 569 641 l 583 765 q 561 896 592 856 q 447 936 529 936 l 270 936 l 231 564 m 179 74 l 375 74 q 508 119 463 74 q 562 263 552 163 l 566 303 q 542 446 577 403 q 419 490 508 490 l 223 490 l 179 74 z "},"C":{"ha":788,"x_min":85,"x_max":716,"o":"m 351 -13 q 148 74 211 -13 q 104 336 85 162 l 139 669 q 238 934 157 845 q 460 1023 319 1023 q 655 945 593 1023 q 706 702 716 867 l 624 693 q 590 892 629 836 q 452 948 552 948 q 290 883 343 948 q 222 668 237 818 l 187 337 q 212 128 172 193 q 359 62 253 62 q 513 119 462 62 q 583 312 564 176 l 664 303 q 566 66 644 145 q 351 -13 489 -13 z "},"Ç":{"ha":788,"x_min":85,"x_max":716,"o":"m 85 0 m 351 -13 q 148 74 211 -13 q 104 336 85 162 l 139 669 q 238 934 157 845 q 460 1023 319 1023 q 655 945 593 1023 q 706 702 716 867 l 624 693 q 590 892 629 836 q 452 948 552 948 q 290 883 343 948 q 222 668 237 818 l 187 337 q 212 128 172 193 q 359 62 253 62 q 513 119 462 62 q 583 312 564 176 l 664 303 q 566 66 644 145 q 351 -13 489 -13 m 321 0 l 340 37 q 432 -17 400 24 q 458 -122 465 -58 q 402 -233 451 -194 q 289 -271 354 -271 q 186 -241 223 -271 q 150 -136 148 -210 l 226 -128 q 241 -185 226 -168 q 292 -202 255 -202 q 355 -183 335 -202 q 381 -114 375 -164 q 372 -39 386 -64 q 321 0 359 -14 z "},"Ć":{"ha":788,"x_min":85,"x_max":716,"o":"m 85 0 m 351 -13 q 148 74 211 -13 q 104 336 85 162 l 139 669 q 238 934 157 845 q 460 1023 319 1023 q 655 945 593 1023 q 706 702 716 867 l 624 693 q 590 892 629 836 q 452 948 552 948 q 290 883 343 948 q 222 668 237 818 l 187 337 q 212 128 172 193 q 359 62 253 62 q 513 119 462 62 q 583 312 564 176 l 664 303 q 566 66 644 145 q 351 -13 489 -13 m 414 1136 l 588 1389 l 713 1389 l 485 1136 l 414 1136 z "},"Ĉ":{"ha":788,"x_min":85,"x_max":716,"o":"m 85 0 m 351 -13 q 148 74 211 -13 q 104 336 85 162 l 139 669 q 238 934 157 845 q 460 1023 319 1023 q 655 945 593 1023 q 706 702 716 867 l 624 693 q 590 892 629 836 q 452 948 552 948 q 290 883 343 948 q 222 668 237 818 l 187 337 q 212 128 172 193 q 359 62 253 62 q 513 119 462 62 q 583 312 564 176 l 664 303 q 566 66 644 145 q 351 -13 489 -13 m 292 1160 l 260 1207 l 468 1410 l 527 1410 l 693 1207 l 654 1160 l 490 1330 l 292 1160 z "},"Ċ":{"ha":788,"x_min":85,"x_max":716,"o":"m 85 0 m 351 -13 q 148 74 211 -13 q 104 336 85 162 l 139 669 q 238 934 157 845 q 460 1023 319 1023 q 655 945 593 1023 q 706 702 716 867 l 624 693 q 590 892 629 836 q 452 948 552 948 q 290 883 343 948 q 222 668 237 818 l 187 337 q 212 128 172 193 q 359 62 253 62 q 513 119 462 62 q 583 312 564 176 l 664 303 q 566 66 644 145 q 351 -13 489 -13 m 473 1167 q 422 1178 442 1167 q 407 1221 403 1189 l 407 1230 q 432 1274 410 1261 q 486 1287 455 1287 q 537 1274 518 1287 q 553 1230 557 1261 l 553 1221 q 527 1178 549 1189 q 473 1167 505 1167 z "},"Č":{"ha":788,"x_min":85,"x_max":716,"o":"m 85 0 m 351 -13 q 148 74 211 -13 q 104 336 85 162 l 139 669 q 238 934 157 845 q 460 1023 319 1023 q 655 945 593 1023 q 706 702 716 867 l 624 693 q 590 892 629 836 q 452 948 552 948 q 290 883 343 948 q 222 668 237 818 l 187 337 q 212 128 172 193 q 359 62 253 62 q 513 119 462 62 q 583 312 564 176 l 664 303 q 566 66 644 145 q 351 -13 489 -13 m 442 1141 l 275 1345 l 316 1390 l 480 1222 l 678 1390 l 708 1345 l 501 1141 l 442 1141 z "},"D":{"ha":788,"x_min":88,"x_max":699,"o":"m 88 0 l 194 1010 l 418 1010 q 629 913 558 1010 q 682 654 699 816 l 650 351 q 542 95 634 191 q 311 0 451 0 l 88 0 m 179 74 l 318 74 q 491 150 428 74 q 567 350 554 225 l 600 655 q 566 858 612 780 q 409 936 519 936 l 270 936 l 179 74 z "},"Ď":{"ha":788,"x_min":88,"x_max":699,"o":"m 88 0 m 88 0 l 194 1010 l 418 1010 q 629 913 558 1010 q 682 654 699 816 l 650 351 q 542 95 634 191 q 311 0 451 0 l 88 0 m 179 74 l 318 74 q 491 150 428 74 q 567 350 554 225 l 600 655 q 566 858 612 780 q 409 936 519 936 l 270 936 l 179 74 m 431 1141 l 264 1345 l 304 1390 l 468 1222 l 667 1390 l 697 1345 l 490 1141 l 431 1141 z "},"E":{"ha":788,"x_min":88,"x_max":720,"o":"m 88 0 l 194 1010 l 720 1010 l 712 936 l 270 936 l 234 588 l 622 588 l 615 514 l 226 514 l 179 74 l 621 74 l 614 0 l 88 0 z "},"":{"ha":788,"x_min":88,"x_max":720,"o":"m 88 0 l 194 1010 l 720 1010 l 712 936 l 270 936 l 234 588 l 622 588 l 615 514 l 226 514 l 179 74 l 621 74 l 614 0 l 88 0 z "},"È":{"ha":788,"x_min":88,"x_max":720,"o":"m 88 0 m 88 0 l 194 1010 l 720 1010 l 712 936 l 270 936 l 234 588 l 622 588 l 615 514 l 226 514 l 179 74 l 621 74 l 614 0 l 88 0 m 486 1136 l 311 1389 l 436 1389 l 557 1136 l 486 1136 z "},"É":{"ha":788,"x_min":88,"x_max":720,"o":"m 88 0 m 88 0 l 194 1010 l 720 1010 l 712 936 l 270 936 l 234 588 l 622 588 l 615 514 l 226 514 l 179 74 l 621 74 l 614 0 l 88 0 m 395 1136 l 569 1389 l 694 1389 l 466 1136 l 395 1136 z "},"Ê":{"ha":788,"x_min":88,"x_max":720,"o":"m 88 0 m 88 0 l 194 1010 l 720 1010 l 712 936 l 270 936 l 234 588 l 622 588 l 615 514 l 226 514 l 179 74 l 621 74 l 614 0 l 88 0 m 301 1160 l 269 1207 l 477 1410 l 535 1410 l 702 1207 l 663 1160 l 499 1330 l 301 1160 z "},"Ë":{"ha":788,"x_min":88,"x_max":720,"o":"m 88 0 m 88 0 l 194 1010 l 720 1010 l 712 936 l 270 936 l 234 588 l 622 588 l 615 514 l 226 514 l 179 74 l 621 74 l 614 0 l 88 0 m 366 1167 q 323 1178 338 1167 q 312 1221 308 1189 l 312 1230 q 333 1275 316 1263 q 379 1287 351 1287 q 420 1275 405 1287 q 432 1230 436 1263 l 432 1221 q 410 1178 428 1189 q 366 1167 391 1167 m 598 1167 q 557 1178 572 1167 q 545 1221 542 1189 l 545 1230 q 567 1275 549 1263 q 611 1287 585 1287 q 654 1275 639 1287 q 665 1230 669 1263 l 665 1221 q 643 1178 662 1189 q 598 1167 625 1167 z "},"Ē":{"ha":788,"x_min":88,"x_max":720,"o":"m 88 0 m 88 0 l 194 1010 l 720 1010 l 712 936 l 270 936 l 234 588 l 622 588 l 615 514 l 226 514 l 179 74 l 621 74 l 614 0 l 88 0 m 290 1227 l 298 1302 l 694 1302 l 687 1227 l 290 1227 z "},"Ĕ":{"ha":788,"x_min":88,"x_max":736,"o":"m 88 0 m 88 0 l 194 1010 l 720 1010 l 712 936 l 270 936 l 234 588 l 622 588 l 615 514 l 226 514 l 179 74 l 621 74 l 614 0 l 88 0 m 479 1128 q 318 1194 371 1128 q 277 1389 264 1260 l 357 1389 q 379 1242 347 1287 q 486 1198 410 1198 q 602 1242 562 1198 q 655 1389 643 1287 l 736 1389 q 653 1194 721 1260 q 479 1128 586 1128 z "},"Ė":{"ha":788,"x_min":88,"x_max":720,"o":"m 88 0 m 88 0 l 194 1010 l 720 1010 l 712 936 l 270 936 l 234 588 l 622 588 l 615 514 l 226 514 l 179 74 l 621 74 l 614 0 l 88 0 m 482 1167 q 431 1178 451 1167 q 415 1221 412 1189 l 415 1230 q 441 1274 419 1261 q 495 1287 463 1287 q 546 1274 527 1287 q 562 1230 566 1261 l 562 1221 q 536 1178 558 1189 q 482 1167 514 1167 z "},"Ę":{"ha":788,"x_min":88,"x_max":720,"o":"m 88 0 m 88 0 l 194 1010 l 720 1010 l 712 936 l 270 936 l 234 588 l 622 588 l 615 514 l 226 514 l 179 74 l 621 74 l 614 0 l 88 0 m 495 -271 q 393 -232 431 -271 q 361 -129 355 -193 q 410 -27 367 -73 q 509 47 452 20 l 527 29 q 464 -35 485 0 q 439 -106 443 -69 q 453 -174 434 -153 q 514 -194 471 -194 q 557 -192 534 -194 q 602 -184 581 -189 l 593 -260 q 544 -268 572 -265 q 495 -271 516 -271 z "},"Ě":{"ha":788,"x_min":88,"x_max":726,"o":"m 88 0 m 88 0 l 194 1010 l 720 1010 l 712 936 l 270 936 l 234 588 l 622 588 l 615 514 l 226 514 l 179 74 l 621 74 l 614 0 l 88 0 m 460 1141 l 293 1345 l 333 1390 l 497 1222 l 696 1390 l 726 1345 l 519 1141 l 460 1141 z "},"F":{"ha":788,"x_min":91,"x_max":721,"o":"m 91 0 l 197 1010 l 721 1010 l 713 936 l 273 936 l 225 482 l 591 482 l 583 408 l 217 408 l 174 0 l 91 0 z "},"G":{"ha":788,"x_min":86,"x_max":698,"o":"m 357 -13 q 150 78 215 -13 q 104 338 86 168 l 138 667 q 239 932 157 842 q 458 1023 321 1023 q 643 953 588 1023 q 689 725 698 883 l 605 715 q 577 899 611 850 q 451 948 543 948 q 291 883 345 948 q 222 668 237 817 l 187 337 q 213 126 172 191 q 365 62 255 62 q 521 139 470 62 q 592 400 573 216 l 383 400 l 390 473 l 683 473 l 676 391 q 574 86 653 186 q 357 -13 496 -13 z "},"Ĝ":{"ha":788,"x_min":86,"x_max":699,"o":"m 86 0 m 357 -13 q 150 78 215 -13 q 104 338 86 168 l 138 667 q 239 932 157 842 q 458 1023 321 1023 q 643 953 588 1023 q 689 725 698 883 l 605 715 q 577 899 611 850 q 451 948 543 948 q 291 883 345 948 q 222 668 237 817 l 187 337 q 213 126 172 191 q 365 62 255 62 q 521 139 470 62 q 592 400 573 216 l 383 400 l 390 473 l 683 473 l 676 391 q 574 86 653 186 q 357 -13 496 -13 m 298 1160 l 266 1207 l 475 1410 l 533 1410 l 699 1207 l 660 1160 l 496 1330 l 298 1160 z "},"Ğ":{"ha":788,"x_min":86,"x_max":734,"o":"m 86 0 m 357 -13 q 150 78 215 -13 q 104 338 86 168 l 138 667 q 239 932 157 842 q 458 1023 321 1023 q 643 953 588 1023 q 689 725 698 883 l 605 715 q 577 899 611 850 q 451 948 543 948 q 291 883 345 948 q 222 668 237 817 l 187 337 q 213 126 172 191 q 365 62 255 62 q 521 139 470 62 q 592 400 573 216 l 383 400 l 390 473 l 683 473 l 676 391 q 574 86 653 186 q 357 -13 496 -13 m 476 1128 q 315 1194 369 1128 q 274 1389 261 1260 l 355 1389 q 376 1242 345 1287 q 484 1198 408 1198 q 600 1242 559 1198 q 653 1389 640 1287 l 734 1389 q 651 1194 718 1260 q 476 1128 583 1128 z "},"Ġ":{"ha":788,"x_min":86,"x_max":698,"o":"m 86 0 m 357 -13 q 150 78 215 -13 q 104 338 86 168 l 138 667 q 239 932 157 842 q 458 1023 321 1023 q 643 953 588 1023 q 689 725 698 883 l 605 715 q 577 899 611 850 q 451 948 543 948 q 291 883 345 948 q 222 668 237 817 l 187 337 q 213 126 172 191 q 365 62 255 62 q 521 139 470 62 q 592 400 573 216 l 383 400 l 390 473 l 683 473 l 676 391 q 574 86 653 186 q 357 -13 496 -13 m 472 1167 q 421 1178 441 1167 q 405 1221 402 1189 l 405 1230 q 431 1274 409 1261 q 485 1287 453 1287 q 536 1274 516 1287 q 552 1230 556 1261 l 552 1221 q 526 1178 548 1189 q 472 1167 504 1167 z "},"Ģ":{"ha":788,"x_min":86,"x_max":698,"o":"m 86 0 m 357 -13 q 150 78 215 -13 q 104 338 86 168 l 138 667 q 239 932 157 842 q 458 1023 321 1023 q 643 953 588 1023 q 689 725 698 883 l 605 715 q 577 899 611 850 q 451 948 543 948 q 291 883 345 948 q 222 668 237 817 l 187 337 q 213 126 172 191 q 365 62 255 62 q 521 139 470 62 q 592 400 573 216 l 383 400 l 390 473 l 683 473 l 676 391 q 574 86 653 186 q 357 -13 496 -13 m 177 -379 l 303 -126 l 428 -126 l 247 -379 l 177 -379 z "},"H":{"ha":788,"x_min":88,"x_max":699,"o":"m 88 0 l 194 1010 l 278 1010 l 234 588 l 572 588 l 616 1010 l 699 1010 l 593 0 l 510 0 l 564 514 l 226 514 l 172 0 l 88 0 z "},"Ĥ":{"ha":788,"x_min":88,"x_max":699,"o":"m 88 0 m 88 0 l 194 1010 l 278 1010 l 234 588 l 572 588 l 616 1010 l 699 1010 l 593 0 l 510 0 l 564 514 l 226 514 l 172 0 l 88 0 m 280 1160 l 249 1207 l 457 1410 l 515 1410 l 682 1207 l 643 1160 l 479 1330 l 280 1160 z "},"I":{"ha":788,"x_min":88,"x_max":699,"o":"m 88 0 l 96 74 l 307 74 l 398 936 l 187 936 l 194 1010 l 699 1010 l 692 936 l 481 936 l 390 74 l 601 74 l 593 0 l 88 0 z "},"Ì":{"ha":788,"x_min":88,"x_max":699,"o":"m 88 0 m 88 0 l 96 74 l 307 74 l 398 936 l 187 936 l 194 1010 l 699 1010 l 692 936 l 481 936 l 390 74 l 601 74 l 593 0 l 88 0 m 473 1136 l 298 1389 l 423 1389 l 544 1136 l 473 1136 z "},"Í":{"ha":788,"x_min":88,"x_max":699,"o":"m 88 0 m 88 0 l 96 74 l 307 74 l 398 936 l 187 936 l 194 1010 l 699 1010 l 692 936 l 481 936 l 390 74 l 601 74 l 593 0 l 88 0 m 364 1136 l 538 1389 l 663 1389 l 434 1136 l 364 1136 z "},"Î":{"ha":788,"x_min":88,"x_max":699,"o":"m 88 0 m 88 0 l 96 74 l 307 74 l 398 936 l 187 936 l 194 1010 l 699 1010 l 692 936 l 481 936 l 390 74 l 601 74 l 593 0 l 88 0 m 280 1160 l 249 1207 l 457 1410 l 515 1410 l 682 1207 l 643 1160 l 479 1330 l 280 1160 z "},"Ï":{"ha":788,"x_min":88,"x_max":699,"o":"m 88 0 m 88 0 l 96 74 l 307 74 l 398 936 l 187 936 l 194 1010 l 699 1010 l 692 936 l 481 936 l 390 74 l 601 74 l 593 0 l 88 0 m 346 1167 q 303 1178 318 1167 q 292 1221 288 1189 l 292 1230 q 313 1275 295 1263 q 359 1287 331 1287 q 400 1275 385 1287 q 412 1230 415 1263 l 412 1221 q 390 1178 408 1189 q 346 1167 371 1167 m 578 1167 q 537 1178 552 1167 q 525 1221 521 1189 l 525 1230 q 547 1275 529 1263 q 591 1287 564 1287 q 634 1275 619 1287 q 645 1230 649 1263 l 645 1221 q 623 1178 641 1189 q 578 1167 605 1167 z "},"Ĩ":{"ha":788,"x_min":88,"x_max":699,"o":"m 88 0 m 88 0 l 96 74 l 307 74 l 398 936 l 187 936 l 194 1010 l 699 1010 l 692 936 l 481 936 l 390 74 l 601 74 l 593 0 l 88 0 m 549 1149 q 490 1173 513 1149 q 448 1249 467 1197 q 420 1311 433 1292 q 389 1331 407 1331 q 343 1294 361 1331 q 318 1176 326 1256 l 317 1162 l 253 1162 l 254 1181 q 302 1342 265 1284 q 399 1400 340 1400 q 460 1378 438 1400 q 500 1306 482 1355 q 529 1240 516 1261 q 558 1218 542 1218 q 604 1256 586 1218 q 629 1374 621 1293 l 630 1388 l 694 1388 l 693 1369 q 645 1207 682 1265 q 549 1149 609 1149 z "},"Ī":{"ha":788,"x_min":88,"x_max":699,"o":"m 88 0 m 88 0 l 96 74 l 307 74 l 398 936 l 187 936 l 194 1010 l 699 1010 l 692 936 l 481 936 l 390 74 l 601 74 l 593 0 l 88 0 m 270 1227 l 278 1302 l 674 1302 l 667 1227 l 270 1227 z "},"Ĭ":{"ha":788,"x_min":88,"x_max":716,"o":"m 88 0 m 88 0 l 96 74 l 307 74 l 398 936 l 187 936 l 194 1010 l 699 1010 l 692 936 l 481 936 l 390 74 l 601 74 l 593 0 l 88 0 m 458 1128 q 297 1194 351 1128 q 256 1389 244 1260 l 337 1389 q 359 1242 327 1287 q 466 1198 390 1198 q 582 1242 542 1198 q 635 1389 622 1287 l 716 1389 q 633 1194 701 1260 q 458 1128 566 1128 z "},"Į":{"ha":788,"x_min":88,"x_max":699,"o":"m 88 0 m 88 0 l 96 74 l 307 74 l 398 936 l 187 936 l 194 1010 l 699 1010 l 692 936 l 481 936 l 390 74 l 601 74 l 593 0 l 88 0 m 391 -271 q 289 -232 327 -271 q 258 -129 251 -193 q 306 -27 264 -73 q 405 47 348 20 l 423 29 q 360 -35 381 0 q 336 -106 340 -69 q 349 -174 331 -153 q 410 -194 367 -194 q 454 -192 431 -194 q 499 -184 477 -189 l 490 -260 q 441 -268 468 -265 q 391 -271 413 -271 z "},"İ":{"ha":788,"x_min":88,"x_max":699,"o":"m 88 0 m 88 0 l 96 74 l 307 74 l 398 936 l 187 936 l 194 1010 l 699 1010 l 692 936 l 481 936 l 390 74 l 601 74 l 593 0 l 88 0 m 462 1167 q 411 1178 431 1167 q 395 1221 391 1189 l 395 1230 q 421 1274 399 1261 q 475 1287 443 1287 q 526 1274 506 1287 q 542 1230 545 1261 l 542 1221 q 516 1178 538 1189 q 462 1167 494 1167 z "},"J":{"ha":788,"x_min":69,"x_max":698,"o":"m 318 -13 q 126 63 183 -13 q 80 306 69 139 l 163 316 q 191 117 157 172 q 324 62 226 62 q 476 124 424 62 q 543 319 528 186 l 607 936 l 381 936 l 389 1010 l 698 1010 l 626 322 q 531 71 609 155 q 318 -13 453 -13 z "},"Ĵ":{"ha":788,"x_min":69,"x_max":773,"o":"m 69 0 m 318 -13 q 126 63 183 -13 q 80 306 69 139 l 163 316 q 191 117 157 172 q 324 62 226 62 q 476 124 424 62 q 543 319 528 186 l 607 936 l 381 936 l 389 1010 l 698 1010 l 626 322 q 531 71 609 155 q 318 -13 453 -13 m 371 1160 l 340 1207 l 548 1410 l 606 1410 l 773 1207 l 734 1160 l 569 1330 l 371 1160 z "},"K":{"ha":788,"x_min":88,"x_max":760,"o":"m 223 499 l 172 0 l 88 0 l 194 1010 l 278 1010 l 231 573 l 294 573 l 662 1010 l 760 1010 l 360 543 l 650 0 l 557 0 l 297 499 l 223 499 z "},"Ķ":{"ha":788,"x_min":88,"x_max":760,"o":"m 88 0 m 223 499 l 172 0 l 88 0 l 194 1010 l 278 1010 l 231 573 l 294 573 l 662 1010 l 760 1010 l 360 543 l 650 0 l 557 0 l 297 499 l 223 499 m 170 -379 l 297 -126 l 422 -126 l 241 -379 l 170 -379 z "},"L":{"ha":788,"x_min":141,"x_max":601,"o":"m 141 0 l 247 1010 l 330 1010 l 231 74 l 601 74 l 593 0 l 141 0 z "},"Ĺ":{"ha":788,"x_min":141,"x_max":602,"o":"m 141 0 m 141 0 l 247 1010 l 330 1010 l 231 74 l 601 74 l 593 0 l 141 0 m 303 1136 l 477 1389 l 602 1389 l 374 1136 l 303 1136 z "},"Ļ":{"ha":788,"x_min":141,"x_max":601,"o":"m 141 0 m 141 0 l 247 1010 l 330 1010 l 231 74 l 601 74 l 593 0 l 141 0 m 187 -379 l 313 -126 l 438 -126 l 258 -379 l 187 -379 z "},"Ľ":{"ha":788,"x_min":141,"x_max":730,"o":"m 141 0 m 141 0 l 247 1010 l 330 1010 l 231 74 l 601 74 l 593 0 l 141 0 m 495 678 l 615 1010 l 730 1010 l 557 678 l 495 678 z "},"M":{"ha":788,"x_min":53,"x_max":735,"o":"m 327 250 l 221 869 l 130 0 l 53 0 l 159 1010 l 266 1010 l 380 354 l 629 1010 l 735 1010 l 629 0 l 552 0 l 644 867 l 407 250 l 327 250 z "},"N":{"ha":788,"x_min":88,"x_max":699,"o":"m 485 0 l 256 872 l 164 0 l 88 0 l 194 1010 l 295 1010 l 530 119 l 624 1010 l 699 1010 l 593 0 l 485 0 z "},"Ñ":{"ha":788,"x_min":88,"x_max":712,"o":"m 88 0 m 485 0 l 256 872 l 164 0 l 88 0 l 194 1010 l 295 1010 l 530 119 l 624 1010 l 699 1010 l 593 0 l 485 0 m 567 1149 q 508 1173 530 1149 q 466 1249 485 1197 q 437 1311 451 1292 q 407 1331 424 1331 q 361 1294 379 1331 q 336 1176 343 1256 l 335 1162 l 270 1162 l 271 1181 q 320 1342 283 1284 q 417 1400 357 1400 q 478 1378 456 1400 q 518 1306 500 1355 q 547 1240 534 1261 q 576 1218 559 1218 q 621 1256 604 1218 q 646 1374 639 1293 l 648 1388 l 712 1388 l 711 1369 q 663 1207 699 1265 q 567 1149 626 1149 z "},"Ń":{"ha":788,"x_min":88,"x_max":699,"o":"m 88 0 m 485 0 l 256 872 l 164 0 l 88 0 l 194 1010 l 295 1010 l 530 119 l 624 1010 l 699 1010 l 593 0 l 485 0 m 386 1136 l 561 1389 l 686 1389 l 457 1136 l 386 1136 z "},"Ņ":{"ha":788,"x_min":88,"x_max":699,"o":"m 88 0 m 485 0 l 256 872 l 164 0 l 88 0 l 194 1010 l 295 1010 l 530 119 l 624 1010 l 699 1010 l 593 0 l 485 0 m 150 -379 l 277 -126 l 402 -126 l 221 -379 l 150 -379 z "},"Ň":{"ha":788,"x_min":88,"x_max":715,"o":"m 88 0 m 485 0 l 256 872 l 164 0 l 88 0 l 194 1010 l 295 1010 l 530 119 l 624 1010 l 699 1010 l 593 0 l 485 0 m 448 1141 l 282 1345 l 322 1390 l 486 1222 l 684 1390 l 715 1345 l 508 1141 l 448 1141 z "},"O":{"ha":788,"x_min":86,"x_max":702,"o":"m 340 -13 q 145 76 205 -13 q 104 340 86 165 l 138 665 q 235 932 157 842 q 449 1023 314 1023 q 643 932 585 1023 q 683 665 702 842 l 649 340 q 553 76 631 165 q 340 -13 475 -13 m 347 62 q 500 128 449 62 q 566 338 551 193 l 600 667 q 580 881 616 814 q 441 948 543 948 q 288 881 338 948 q 221 667 237 814 l 187 338 q 208 128 172 193 q 347 62 245 62 z "},"Ò":{"ha":788,"x_min":86,"x_max":702,"o":"m 86 0 m 340 -13 q 145 76 205 -13 q 104 340 86 165 l 138 665 q 235 932 157 842 q 449 1023 314 1023 q 643 932 585 1023 q 683 665 702 842 l 649 340 q 553 76 631 165 q 340 -13 475 -13 m 347 62 q 500 128 449 62 q 566 338 551 193 l 600 667 q 580 881 616 814 q 441 948 543 948 q 288 881 338 948 q 221 667 237 814 l 187 338 q 208 128 172 193 q 347 62 245 62 m 473 1136 l 298 1389 l 423 1389 l 544 1136 l 473 1136 z "},"Ó":{"ha":788,"x_min":86,"x_max":703,"o":"m 86 0 m 340 -13 q 145 76 205 -13 q 104 340 86 165 l 138 665 q 235 932 157 842 q 449 1023 314 1023 q 643 932 585 1023 q 683 665 702 842 l 649 340 q 553 76 631 165 q 340 -13 475 -13 m 347 62 q 500 128 449 62 q 566 338 551 193 l 600 667 q 580 881 616 814 q 441 948 543 948 q 288 881 338 948 q 221 667 237 814 l 187 338 q 208 128 172 193 q 347 62 245 62 m 404 1136 l 578 1389 l 703 1389 l 475 1136 l 404 1136 z "},"Ô":{"ha":788,"x_min":86,"x_max":702,"o":"m 86 0 m 340 -13 q 145 76 205 -13 q 104 340 86 165 l 138 665 q 235 932 157 842 q 449 1023 314 1023 q 643 932 585 1023 q 683 665 702 842 l 649 340 q 553 76 631 165 q 340 -13 475 -13 m 347 62 q 500 128 449 62 q 566 338 551 193 l 600 667 q 580 881 616 814 q 441 948 543 948 q 288 881 338 948 q 221 667 237 814 l 187 338 q 208 128 172 193 q 347 62 245 62 m 280 1160 l 249 1207 l 457 1410 l 515 1410 l 682 1207 l 643 1160 l 479 1330 l 280 1160 z "},"Õ":{"ha":788,"x_min":86,"x_max":702,"o":"m 86 0 m 340 -13 q 145 76 205 -13 q 104 340 86 165 l 138 665 q 235 932 157 842 q 449 1023 314 1023 q 643 932 585 1023 q 683 665 702 842 l 649 340 q 553 76 631 165 q 340 -13 475 -13 m 347 62 q 500 128 449 62 q 566 338 551 193 l 600 667 q 580 881 616 814 q 441 948 543 948 q 288 881 338 948 q 221 667 237 814 l 187 338 q 208 128 172 193 q 347 62 245 62 m 549 1149 q 490 1173 513 1149 q 448 1249 467 1197 q 420 1311 433 1292 q 389 1331 407 1331 q 343 1294 361 1331 q 318 1176 326 1256 l 317 1162 l 253 1162 l 254 1181 q 302 1342 265 1284 q 399 1400 340 1400 q 460 1378 438 1400 q 500 1306 482 1355 q 529 1240 516 1261 q 558 1218 542 1218 q 604 1256 586 1218 q 629 1374 621 1293 l 630 1388 l 694 1388 l 693 1369 q 645 1207 682 1265 q 549 1149 609 1149 z "},"Ö":{"ha":788,"x_min":86,"x_max":702,"o":"m 86 0 m 340 -13 q 145 76 205 -13 q 104 340 86 165 l 138 665 q 235 932 157 842 q 449 1023 314 1023 q 643 932 585 1023 q 683 665 702 842 l 649 340 q 553 76 631 165 q 340 -13 475 -13 m 347 62 q 500 128 449 62 q 566 338 551 193 l 600 667 q 580 881 616 814 q 441 948 543 948 q 288 881 338 948 q 221 667 237 814 l 187 338 q 208 128 172 193 q 347 62 245 62 m 346 1167 q 303 1178 318 1167 q 292 1221 288 1189 l 292 1230 q 313 1275 295 1263 q 359 1287 331 1287 q 400 1275 385 1287 q 412 1230 415 1263 l 412 1221 q 390 1178 408 1189 q 346 1167 371 1167 m 578 1167 q 537 1178 552 1167 q 525 1221 521 1189 l 525 1230 q 547 1275 529 1263 q 591 1287 564 1287 q 634 1275 619 1287 q 645 1230 649 1263 l 645 1221 q 623 1178 641 1189 q 578 1167 605 1167 z "},"Ō":{"ha":788,"x_min":86,"x_max":702,"o":"m 86 0 m 340 -13 q 145 76 205 -13 q 104 340 86 165 l 138 665 q 235 932 157 842 q 449 1023 314 1023 q 643 932 585 1023 q 683 665 702 842 l 649 340 q 553 76 631 165 q 340 -13 475 -13 m 347 62 q 500 128 449 62 q 566 338 551 193 l 600 667 q 580 881 616 814 q 441 948 543 948 q 288 881 338 948 q 221 667 237 814 l 187 338 q 208 128 172 193 q 347 62 245 62 m 270 1227 l 278 1302 l 674 1302 l 667 1227 l 270 1227 z "},"Ŏ":{"ha":788,"x_min":86,"x_max":716,"o":"m 86 0 m 340 -13 q 145 76 205 -13 q 104 340 86 165 l 138 665 q 235 932 157 842 q 449 1023 314 1023 q 643 932 585 1023 q 683 665 702 842 l 649 340 q 553 76 631 165 q 340 -13 475 -13 m 347 62 q 500 128 449 62 q 566 338 551 193 l 600 667 q 580 881 616 814 q 441 948 543 948 q 288 881 338 948 q 221 667 237 814 l 187 338 q 208 128 172 193 q 347 62 245 62 m 458 1128 q 297 1194 351 1128 q 256 1389 244 1260 l 337 1389 q 359 1242 327 1287 q 466 1198 390 1198 q 582 1242 542 1198 q 635 1389 622 1287 l 716 1389 q 633 1194 701 1260 q 458 1128 566 1128 z "},"Ő":{"ha":788,"x_min":86,"x_max":730,"o":"m 86 0 m 340 -13 q 145 76 205 -13 q 104 340 86 165 l 138 665 q 235 932 157 842 q 449 1023 314 1023 q 643 932 585 1023 q 683 665 702 842 l 649 340 q 553 76 631 165 q 340 -13 475 -13 m 347 62 q 500 128 449 62 q 566 338 551 193 l 600 667 q 580 881 616 814 q 441 948 543 948 q 288 881 338 948 q 221 667 237 814 l 187 338 q 208 128 172 193 q 347 62 245 62 m 523 1136 l 607 1389 l 730 1389 l 582 1136 l 523 1136 m 302 1136 l 388 1389 l 510 1389 l 362 1136 l 302 1136 z "},"P":{"ha":788,"x_min":88,"x_max":716,"o":"m 88 0 l 194 1010 l 479 1010 q 660 943 605 1010 q 702 744 716 876 l 689 622 q 605 422 676 489 q 409 356 535 356 l 210 356 l 172 0 l 88 0 m 217 429 l 415 429 q 551 474 506 429 q 606 624 595 519 l 619 740 q 594 890 629 845 q 468 936 559 936 l 270 936 l 217 429 z "},"Q":{"ha":788,"x_min":86,"x_max":702,"o":"m 614 -240 q 389 -223 467 -275 q 324 -14 311 -170 q 142 81 198 -9 q 104 338 86 170 l 138 665 q 235 932 157 841 q 449 1023 314 1023 q 642 932 582 1023 q 683 665 702 841 l 649 338 q 570 97 633 184 q 404 -8 508 10 q 451 -161 395 -131 q 609 -167 506 -191 l 614 -240 m 347 63 q 500 128 449 63 q 566 335 551 193 l 601 668 q 580 881 616 814 q 441 947 543 947 q 288 881 338 947 q 222 668 237 814 l 187 335 q 208 128 172 193 q 347 63 245 63 z "},"R":{"ha":788,"x_min":88,"x_max":735,"o":"m 221 470 l 441 470 q 575 516 530 470 q 630 667 620 562 l 638 741 q 614 891 649 845 q 490 937 580 937 l 270 937 l 221 470 m 172 0 l 88 0 l 194 1010 l 500 1010 q 680 943 625 1010 q 721 744 735 875 l 713 665 q 643 477 701 544 q 484 399 586 410 l 655 0 l 563 0 l 391 396 l 213 396 l 172 0 z "},"Ŕ":{"ha":788,"x_min":88,"x_max":736,"o":"m 88 0 m 221 470 l 441 470 q 575 516 530 470 q 630 667 620 562 l 638 741 q 614 891 649 845 q 490 937 580 937 l 270 937 l 221 470 m 172 0 l 88 0 l 194 1010 l 500 1010 q 680 943 625 1010 q 721 744 735 875 l 713 665 q 643 477 701 544 q 484 399 586 410 l 655 0 l 563 0 l 391 396 l 213 396 l 172 0 m 437 1136 l 611 1389 l 736 1389 l 508 1136 l 437 1136 z "},"Ŗ":{"ha":788,"x_min":88,"x_max":735,"o":"m 88 0 m 221 470 l 441 470 q 575 516 530 470 q 630 667 620 562 l 638 741 q 614 891 649 845 q 490 937 580 937 l 270 937 l 221 470 m 172 0 l 88 0 l 194 1010 l 500 1010 q 680 943 625 1010 q 721 744 735 875 l 713 665 q 643 477 701 544 q 484 399 586 410 l 655 0 l 563 0 l 391 396 l 213 396 l 172 0 m 152 -379 l 278 -126 l 403 -126 l 222 -379 l 152 -379 z "},"Ř":{"ha":788,"x_min":88,"x_max":735,"o":"m 88 0 m 221 470 l 441 470 q 575 516 530 470 q 630 667 620 562 l 638 741 q 614 891 649 845 q 490 937 580 937 l 270 937 l 221 470 m 172 0 l 88 0 l 194 1010 l 500 1010 q 680 943 625 1010 q 721 744 735 875 l 713 665 q 643 477 701 544 q 484 399 586 410 l 655 0 l 563 0 l 391 396 l 213 396 l 172 0 m 433 1141 l 266 1345 l 307 1390 l 471 1222 l 669 1390 l 699 1345 l 492 1141 l 433 1141 z "},"S":{"ha":788,"x_min":67,"x_max":693,"o":"m 346 -8 q 188 24 259 -8 q 67 114 117 56 l 116 178 q 225 93 165 121 q 357 66 284 66 q 504 117 444 66 q 574 260 564 169 q 544 388 582 342 q 385 481 505 433 q 199 595 253 534 q 157 763 146 657 q 247 947 169 880 q 439 1014 324 1014 q 583 983 518 1014 q 693 900 648 952 l 646 835 q 547 913 601 885 q 431 941 492 941 q 298 895 348 941 q 239 770 247 850 q 273 648 230 691 q 437 557 316 605 q 617 442 567 505 q 655 268 668 379 q 555 68 643 143 q 346 -8 467 -8 z "},"":{"ha":788,"x_min":67,"x_max":693,"o":"m 346 -8 q 188 24 259 -8 q 67 114 117 56 l 116 178 q 225 93 165 121 q 357 66 284 66 q 504 117 444 66 q 574 260 564 169 q 544 388 582 342 q 385 481 505 433 q 199 595 253 534 q 157 763 146 657 q 247 947 169 880 q 439 1014 324 1014 q 583 983 518 1014 q 693 900 648 952 l 646 835 q 547 913 601 885 q 431 941 492 941 q 298 895 348 941 q 239 770 247 850 q 273 648 230 691 q 437 557 316 605 q 617 442 567 505 q 655 268 668 379 q 555 68 643 143 q 346 -8 467 -8 z "},"Ś":{"ha":788,"x_min":67,"x_max":693,"o":"m 67 0 m 346 -8 q 188 24 259 -8 q 67 114 117 56 l 116 178 q 225 93 165 121 q 357 66 284 66 q 504 117 444 66 q 574 260 564 169 q 544 388 582 342 q 385 481 505 433 q 199 595 253 534 q 157 763 146 657 q 247 947 169 880 q 439 1014 324 1014 q 583 983 518 1014 q 693 900 648 952 l 646 835 q 547 913 601 885 q 431 941 492 941 q 298 895 348 941 q 239 770 247 850 q 273 648 230 691 q 437 557 316 605 q 617 442 567 505 q 655 268 668 379 q 555 68 643 143 q 346 -8 467 -8 m 365 1136 l 539 1389 l 664 1389 l 436 1136 l 365 1136 z "},"Ŝ":{"ha":788,"x_min":67,"x_max":693,"o":"m 67 0 m 346 -8 q 188 24 259 -8 q 67 114 117 56 l 116 178 q 225 93 165 121 q 357 66 284 66 q 504 117 444 66 q 574 260 564 169 q 544 388 582 342 q 385 481 505 433 q 199 595 253 534 q 157 763 146 657 q 247 947 169 880 q 439 1014 324 1014 q 583 983 518 1014 q 693 900 648 952 l 646 835 q 547 913 601 885 q 431 941 492 941 q 298 895 348 941 q 239 770 247 850 q 273 648 230 691 q 437 557 316 605 q 617 442 567 505 q 655 268 668 379 q 555 68 643 143 q 346 -8 467 -8 m 282 1160 l 250 1207 l 458 1410 l 516 1410 l 683 1207 l 644 1160 l 480 1330 l 282 1160 z "},"Ş":{"ha":788,"x_min":67,"x_max":693,"o":"m 67 0 m 346 -8 q 188 24 259 -8 q 67 114 117 56 l 116 178 q 225 93 165 121 q 357 66 284 66 q 504 117 444 66 q 574 260 564 169 q 544 388 582 342 q 385 481 505 433 q 199 595 253 534 q 157 763 146 657 q 247 947 169 880 q 439 1014 324 1014 q 583 983 518 1014 q 693 900 648 952 l 646 835 q 547 913 601 885 q 431 941 492 941 q 298 895 348 941 q 239 770 247 850 q 273 648 230 691 q 437 557 316 605 q 617 442 567 505 q 655 268 668 379 q 555 68 643 143 q 346 -8 467 -8 m 311 0 l 330 37 q 422 -17 390 24 q 448 -122 455 -58 q 392 -233 441 -194 q 279 -271 343 -271 q 176 -241 213 -271 q 140 -136 138 -210 l 216 -128 q 230 -185 216 -168 q 282 -202 245 -202 q 345 -183 324 -202 q 371 -114 365 -164 q 362 -39 376 -64 q 311 0 348 -14 z "},"Š":{"ha":788,"x_min":67,"x_max":698,"o":"m 67 0 m 346 -8 q 188 24 259 -8 q 67 114 117 56 l 116 178 q 225 93 165 121 q 357 66 284 66 q 504 117 444 66 q 574 260 564 169 q 544 388 582 342 q 385 481 505 433 q 199 595 253 534 q 157 763 146 657 q 247 947 169 880 q 439 1014 324 1014 q 583 983 518 1014 q 693 900 648 952 l 646 835 q 547 913 601 885 q 431 941 492 941 q 298 895 348 941 q 239 770 247 850 q 273 648 230 691 q 437 557 316 605 q 617 442 567 505 q 655 268 668 379 q 555 68 643 143 q 346 -8 467 -8 m 432 1141 l 265 1345 l 306 1390 l 470 1222 l 668 1390 l 698 1345 l 491 1141 l 432 1141 z "},"Ș":{"ha":788,"x_min":67,"x_max":693,"o":"m 67 0 m 346 -8 q 188 24 259 -8 q 67 114 117 56 l 116 178 q 225 93 165 121 q 357 66 284 66 q 504 117 444 66 q 574 260 564 169 q 544 388 582 342 q 385 481 505 433 q 199 595 253 534 q 157 763 146 657 q 247 947 169 880 q 439 1014 324 1014 q 583 983 518 1014 q 693 900 648 952 l 646 835 q 547 913 601 885 q 431 941 492 941 q 298 895 348 941 q 239 770 247 850 q 273 648 230 691 q 437 557 316 605 q 617 442 567 505 q 655 268 668 379 q 555 68 643 143 q 346 -8 467 -8 m 148 -379 l 274 -126 l 399 -126 l 218 -379 l 148 -379 z "},"T":{"ha":788,"x_min":138,"x_max":750,"o":"m 299 0 l 398 936 l 138 936 l 145 1010 l 750 1010 l 742 936 l 481 936 l 383 0 l 299 0 z "},"Ţ":{"ha":788,"x_min":135,"x_max":750,"o":"m 135 0 m 299 0 l 398 936 l 138 936 l 145 1010 l 750 1010 l 742 936 l 481 936 l 383 0 l 299 0 m 308 0 l 327 37 q 420 -17 388 24 q 446 -122 452 -58 q 390 -233 438 -194 q 277 -271 341 -271 q 173 -241 211 -271 q 138 -136 135 -210 l 213 -128 q 228 -185 213 -168 q 279 -202 242 -202 q 342 -183 322 -202 q 369 -114 362 -164 q 360 -39 374 -64 q 308 0 346 -14 z "},"Ť":{"ha":788,"x_min":138,"x_max":750,"o":"m 138 0 m 299 0 l 398 936 l 138 936 l 145 1010 l 750 1010 l 742 936 l 481 936 l 383 0 l 299 0 m 431 1141 l 264 1345 l 304 1390 l 468 1222 l 667 1390 l 697 1345 l 490 1141 l 431 1141 z "},"Ț":{"ha":788,"x_min":138,"x_max":750,"o":"m 138 0 m 299 0 l 398 936 l 138 936 l 145 1010 l 750 1010 l 742 936 l 481 936 l 383 0 l 299 0 m 146 -379 l 273 -126 l 398 -126 l 217 -379 l 146 -379 z "},"U":{"ha":788,"x_min":105,"x_max":699,"o":"m 340 -13 q 158 74 212 -13 q 124 333 105 160 l 194 1010 l 278 1010 l 207 331 q 224 125 192 188 q 347 62 256 62 q 484 125 438 62 q 545 331 530 188 l 616 1010 l 699 1010 l 629 333 q 539 74 610 160 q 340 -13 467 -13 z "},"Ù":{"ha":788,"x_min":105,"x_max":699,"o":"m 105 0 m 340 -13 q 158 74 212 -13 q 124 333 105 160 l 194 1010 l 278 1010 l 207 331 q 224 125 192 188 q 347 62 256 62 q 484 125 438 62 q 545 331 530 188 l 616 1010 l 699 1010 l 629 333 q 539 74 610 160 q 340 -13 467 -13 m 473 1136 l 298 1389 l 423 1389 l 544 1136 l 473 1136 z "},"Ú":{"ha":788,"x_min":105,"x_max":699,"o":"m 105 0 m 340 -13 q 158 74 212 -13 q 124 333 105 160 l 194 1010 l 278 1010 l 207 331 q 224 125 192 188 q 347 62 256 62 q 484 125 438 62 q 545 331 530 188 l 616 1010 l 699 1010 l 629 333 q 539 74 610 160 q 340 -13 467 -13 m 364 1136 l 538 1389 l 663 1389 l 434 1136 l 364 1136 z "},"Û":{"ha":788,"x_min":105,"x_max":699,"o":"m 105 0 m 340 -13 q 158 74 212 -13 q 124 333 105 160 l 194 1010 l 278 1010 l 207 331 q 224 125 192 188 q 347 62 256 62 q 484 125 438 62 q 545 331 530 188 l 616 1010 l 699 1010 l 629 333 q 539 74 610 160 q 340 -13 467 -13 m 280 1160 l 249 1207 l 457 1410 l 515 1410 l 682 1207 l 643 1160 l 479 1330 l 280 1160 z "},"Ü":{"ha":788,"x_min":105,"x_max":699,"o":"m 105 0 m 340 -13 q 158 74 212 -13 q 124 333 105 160 l 194 1010 l 278 1010 l 207 331 q 224 125 192 188 q 347 62 256 62 q 484 125 438 62 q 545 331 530 188 l 616 1010 l 699 1010 l 629 333 q 539 74 610 160 q 340 -13 467 -13 m 346 1167 q 303 1178 318 1167 q 292 1221 288 1189 l 292 1230 q 313 1275 295 1263 q 359 1287 331 1287 q 400 1275 385 1287 q 412 1230 415 1263 l 412 1221 q 390 1178 408 1189 q 346 1167 371 1167 m 578 1167 q 537 1178 552 1167 q 525 1221 521 1189 l 525 1230 q 547 1275 529 1263 q 591 1287 564 1287 q 634 1275 619 1287 q 645 1230 649 1263 l 645 1221 q 623 1178 641 1189 q 578 1167 605 1167 z "},"Ũ":{"ha":788,"x_min":105,"x_max":699,"o":"m 105 0 m 340 -13 q 158 74 212 -13 q 124 333 105 160 l 194 1010 l 278 1010 l 207 331 q 224 125 192 188 q 347 62 256 62 q 484 125 438 62 q 545 331 530 188 l 616 1010 l 699 1010 l 629 333 q 539 74 610 160 q 340 -13 467 -13 m 549 1149 q 490 1173 513 1149 q 448 1249 467 1197 q 420 1311 433 1292 q 389 1331 407 1331 q 343 1294 361 1331 q 318 1176 326 1256 l 317 1162 l 253 1162 l 254 1181 q 302 1342 265 1284 q 399 1400 340 1400 q 460 1378 438 1400 q 500 1306 482 1355 q 529 1240 516 1261 q 558 1218 542 1218 q 604 1256 586 1218 q 629 1374 621 1293 l 630 1388 l 694 1388 l 693 1369 q 645 1207 682 1265 q 549 1149 609 1149 z "},"Ū":{"ha":788,"x_min":105,"x_max":699,"o":"m 105 0 m 340 -13 q 158 74 212 -13 q 124 333 105 160 l 194 1010 l 278 1010 l 207 331 q 224 125 192 188 q 347 62 256 62 q 484 125 438 62 q 545 331 530 188 l 616 1010 l 699 1010 l 629 333 q 539 74 610 160 q 340 -13 467 -13 m 270 1227 l 278 1302 l 674 1302 l 667 1227 l 270 1227 z "},"Ŭ":{"ha":788,"x_min":105,"x_max":716,"o":"m 105 0 m 340 -13 q 158 74 212 -13 q 124 333 105 160 l 194 1010 l 278 1010 l 207 331 q 224 125 192 188 q 347 62 256 62 q 484 125 438 62 q 545 331 530 188 l 616 1010 l 699 1010 l 629 333 q 539 74 610 160 q 340 -13 467 -13 m 458 1128 q 297 1194 351 1128 q 256 1389 244 1260 l 337 1389 q 359 1242 327 1287 q 466 1198 390 1198 q 582 1242 542 1198 q 635 1389 622 1287 l 716 1389 q 633 1194 701 1260 q 458 1128 566 1128 z "},"Ů":{"ha":788,"x_min":105,"x_max":699,"o":"m 105 0 m 340 -13 q 158 74 212 -13 q 124 333 105 160 l 194 1010 l 278 1010 l 207 331 q 224 125 192 188 q 347 62 256 62 q 484 125 438 62 q 545 331 530 188 l 616 1010 l 699 1010 l 629 333 q 539 74 610 160 q 340 -13 467 -13 m 457 1119 q 344 1163 383 1119 q 316 1295 306 1207 l 321 1346 q 378 1481 330 1436 q 500 1527 426 1527 q 612 1481 574 1527 q 641 1346 650 1436 l 636 1295 q 579 1163 626 1207 q 457 1119 532 1119 m 463 1182 q 535 1208 510 1182 q 567 1295 561 1235 l 572 1346 q 559 1435 578 1407 q 494 1463 540 1463 q 422 1435 447 1463 q 390 1346 396 1407 l 385 1295 q 398 1208 379 1235 q 463 1182 417 1182 z "},"Ű":{"ha":788,"x_min":105,"x_max":740,"o":"m 105 0 m 340 -13 q 158 74 212 -13 q 124 333 105 160 l 194 1010 l 278 1010 l 207 331 q 224 125 192 188 q 347 62 256 62 q 484 125 438 62 q 545 331 530 188 l 616 1010 l 699 1010 l 629 333 q 539 74 610 160 q 340 -13 467 -13 m 533 1136 l 617 1389 l 740 1389 l 592 1136 l 533 1136 m 312 1136 l 398 1389 l 520 1389 l 372 1136 l 312 1136 z "},"Ų":{"ha":788,"x_min":105,"x_max":699,"o":"m 105 0 m 340 -13 q 158 74 212 -13 q 124 333 105 160 l 194 1010 l 278 1010 l 207 331 q 224 125 192 188 q 347 62 256 62 q 484 125 438 62 q 545 331 530 188 l 616 1010 l 699 1010 l 629 333 q 539 74 610 160 q 340 -13 467 -13 m 386 -271 q 284 -232 322 -271 q 253 -129 246 -193 q 301 -27 259 -73 q 400 47 343 20 l 418 29 q 355 -35 376 0 q 331 -106 335 -69 q 344 -174 326 -153 q 405 -194 362 -194 q 449 -192 426 -194 q 494 -184 472 -189 l 485 -260 q 436 -268 463 -265 q 386 -271 408 -271 z "},"V":{"ha":788,"x_min":133,"x_max":763,"o":"m 381 0 l 301 0 l 133 1010 l 220 1010 l 355 134 l 677 1010 l 763 1010 l 381 0 z "},"W":{"ha":788,"x_min":122,"x_max":773,"o":"m 473 0 l 409 649 l 208 0 l 126 0 l 122 1010 l 199 1010 l 193 144 l 381 766 l 465 766 l 523 149 l 693 1010 l 773 1010 l 556 0 l 473 0 z "},"Ŵ":{"ha":788,"x_min":122,"x_max":773,"o":"m 122 0 m 473 0 l 409 649 l 208 0 l 126 0 l 122 1010 l 199 1010 l 193 144 l 381 766 l 465 766 l 523 149 l 693 1010 l 773 1010 l 556 0 l 473 0 m 280 1160 l 249 1207 l 457 1410 l 515 1410 l 682 1207 l 643 1160 l 479 1330 l 280 1160 z "},"Ẁ":{"ha":788,"x_min":122,"x_max":773,"o":"m 122 0 m 473 0 l 409 649 l 208 0 l 126 0 l 122 1010 l 199 1010 l 193 144 l 381 766 l 465 766 l 523 149 l 693 1010 l 773 1010 l 556 0 l 473 0 m 482 1136 l 307 1389 l 432 1389 l 553 1136 l 482 1136 z "},"Ẃ":{"ha":788,"x_min":122,"x_max":773,"o":"m 122 0 m 473 0 l 409 649 l 208 0 l 126 0 l 122 1010 l 199 1010 l 193 144 l 381 766 l 465 766 l 523 149 l 693 1010 l 773 1010 l 556 0 l 473 0 m 372 1136 l 547 1389 l 672 1389 l 443 1136 l 372 1136 z "},"Ẅ":{"ha":788,"x_min":122,"x_max":773,"o":"m 122 0 m 473 0 l 409 649 l 208 0 l 126 0 l 122 1010 l 199 1010 l 193 144 l 381 766 l 465 766 l 523 149 l 693 1010 l 773 1010 l 556 0 l 473 0 m 347 1167 q 304 1178 319 1167 q 293 1221 289 1189 l 293 1230 q 314 1275 297 1263 q 360 1287 332 1287 q 402 1275 386 1287 q 413 1230 417 1263 l 413 1221 q 391 1178 409 1189 q 347 1167 372 1167 m 580 1167 q 538 1178 553 1167 q 527 1221 523 1189 l 527 1230 q 548 1275 530 1263 q 592 1287 566 1287 q 635 1275 620 1287 q 646 1230 650 1263 l 646 1221 q 624 1178 643 1189 q 580 1167 606 1167 z "},"X":{"ha":788,"x_min":8,"x_max":782,"o":"m 583 0 l 391 441 l 100 0 l 8 0 l 354 519 l 140 1010 l 230 1010 l 413 592 l 688 1010 l 782 1010 l 448 514 l 673 0 l 583 0 z "},"Y":{"ha":788,"x_min":107,"x_max":787,"o":"m 383 0 l 299 0 l 340 379 l 107 1010 l 198 1010 l 393 465 l 696 1010 l 787 1010 l 423 379 l 383 0 z "},"Ý":{"ha":788,"x_min":107,"x_max":787,"o":"m 107 0 m 383 0 l 299 0 l 340 379 l 107 1010 l 198 1010 l 393 465 l 696 1010 l 787 1010 l 423 379 l 383 0 m 364 1136 l 538 1389 l 663 1389 l 434 1136 l 364 1136 z "},"Ŷ":{"ha":788,"x_min":107,"x_max":787,"o":"m 107 0 m 383 0 l 299 0 l 340 379 l 107 1010 l 198 1010 l 393 465 l 696 1010 l 787 1010 l 423 379 l 383 0 m 280 1160 l 249 1207 l 457 1410 l 515 1410 l 682 1207 l 643 1160 l 479 1330 l 280 1160 z "},"Ÿ":{"ha":788,"x_min":107,"x_max":787,"o":"m 107 0 m 383 0 l 299 0 l 340 379 l 107 1010 l 198 1010 l 393 465 l 696 1010 l 787 1010 l 423 379 l 383 0 m 346 1167 q 303 1178 318 1167 q 292 1221 288 1189 l 292 1230 q 313 1275 295 1263 q 359 1287 331 1287 q 400 1275 385 1287 q 412 1230 415 1263 l 412 1221 q 390 1178 408 1189 q 346 1167 371 1167 m 578 1167 q 537 1178 552 1167 q 525 1221 521 1189 l 525 1230 q 547 1275 529 1263 q 591 1287 564 1287 q 634 1275 619 1287 q 645 1230 649 1263 l 645 1221 q 623 1178 641 1189 q 578 1167 605 1167 z "},"Ỳ":{"ha":788,"x_min":107,"x_max":787,"o":"m 107 0 m 383 0 l 299 0 l 340 379 l 107 1010 l 198 1010 l 393 465 l 696 1010 l 787 1010 l 423 379 l 383 0 m 473 1136 l 298 1389 l 423 1389 l 544 1136 l 473 1136 z "},"Z":{"ha":788,"x_min":68,"x_max":725,"o":"m 619 0 l 68 0 l 76 73 l 624 937 l 167 937 l 174 1010 l 725 1010 l 717 937 l 170 73 l 626 73 l 619 0 z "},"Ź":{"ha":788,"x_min":68,"x_max":725,"o":"m 68 0 m 619 0 l 68 0 l 76 73 l 624 937 l 167 937 l 174 1010 l 725 1010 l 717 937 l 170 73 l 626 73 l 619 0 m 395 1136 l 569 1389 l 694 1389 l 466 1136 l 395 1136 z "},"Ż":{"ha":788,"x_min":68,"x_max":725,"o":"m 68 0 m 619 0 l 68 0 l 76 73 l 624 937 l 167 937 l 174 1010 l 725 1010 l 717 937 l 170 73 l 626 73 l 619 0 m 462 1167 q 411 1178 431 1167 q 395 1221 391 1189 l 395 1230 q 421 1274 399 1261 q 475 1287 443 1287 q 526 1274 506 1287 q 542 1230 545 1261 l 542 1221 q 516 1178 538 1189 q 462 1167 494 1167 z "},"Ž":{"ha":788,"x_min":68,"x_max":725,"o":"m 68 0 m 619 0 l 68 0 l 76 73 l 624 937 l 167 937 l 174 1010 l 725 1010 l 717 937 l 170 73 l 626 73 l 619 0 m 431 1141 l 264 1345 l 304 1390 l 468 1222 l 667 1390 l 697 1345 l 490 1141 l 431 1141 z "},"Æ":{"ha":788,"x_min":-16,"x_max":790,"o":"m 379 941 l 188 379 l 402 379 l 460 941 l 379 941 m 394 309 l 162 309 l 54 0 l -16 0 l 341 1010 l 790 1010 l 783 941 l 537 941 l 499 577 l 735 577 l 727 508 l 491 508 l 446 69 l 692 69 l 684 0 l 361 0 l 394 309 z "},"Ǽ":{"ha":788,"x_min":-16,"x_max":798,"o":"m 0 0 m 379 941 l 188 379 l 402 379 l 460 941 l 379 941 m 394 309 l 162 309 l 54 0 l -16 0 l 341 1010 l 790 1010 l 783 941 l 537 941 l 499 577 l 735 577 l 727 508 l 491 508 l 446 69 l 692 69 l 684 0 l 361 0 l 394 309 m 499 1136 l 673 1389 l 798 1389 l 569 1136 l 499 1136 z "},"Ð":{"ha":788,"x_min":39,"x_max":699,"o":"m 39 515 l 47 592 l 389 592 l 381 515 l 39 515 m 88 0 l 194 1010 l 418 1010 q 629 913 558 1010 q 682 654 699 816 l 650 351 q 542 95 634 191 q 311 0 451 0 l 88 0 m 179 74 l 318 74 q 491 150 428 74 q 567 350 554 225 l 600 655 q 566 858 612 780 q 409 936 519 936 l 270 936 l 179 74 z "},"Ø":{"ha":788,"x_min":73,"x_max":694,"o":"m 196 148 l 532 929 q 491 943 514 938 q 441 948 468 948 q 287 883 338 948 q 220 663 236 817 l 186 342 q 182 229 179 278 q 196 148 184 181 m 347 62 q 501 126 449 62 q 567 342 552 191 l 601 663 q 605 794 610 740 q 581 883 600 848 l 240 91 q 285 69 258 76 q 347 62 312 62 m 340 -13 q 268 -4 301 -13 q 211 20 236 4 l 154 -106 l 73 -106 l 152 64 q 107 179 119 109 q 105 343 95 249 l 138 662 q 236 932 157 842 q 449 1023 316 1023 q 509 1017 481 1023 q 561 999 538 1011 l 614 1116 l 693 1116 l 622 960 q 679 841 664 915 q 683 662 694 766 l 650 343 q 552 76 631 165 q 340 -13 472 -13 z "},"Ǿ":{"ha":788,"x_min":73,"x_max":703,"o":"m 73 0 m 196 148 l 532 929 q 491 943 514 938 q 441 948 468 948 q 287 883 338 948 q 220 663 236 817 l 186 342 q 182 229 179 278 q 196 148 184 181 m 347 62 q 501 126 449 62 q 567 342 552 191 l 601 663 q 605 794 610 740 q 581 883 600 848 l 240 91 q 285 69 258 76 q 347 62 312 62 m 340 -13 q 268 -4 301 -13 q 211 20 236 4 l 154 -106 l 73 -106 l 152 64 q 107 179 119 109 q 105 343 95 249 l 138 662 q 236 932 157 842 q 449 1023 316 1023 q 509 1017 481 1023 q 561 999 538 1011 l 614 1116 l 693 1116 l 622 960 q 679 841 664 915 q 683 662 694 766 l 650 343 q 552 76 631 165 q 340 -13 472 -13 m 404 1136 l 578 1389 l 703 1389 l 475 1136 l 404 1136 z "},"Þ":{"ha":788,"x_min":88,"x_max":698,"o":"m 88 0 l 194 1010 l 278 1010 l 260 845 l 461 845 q 641 777 583 845 q 684 578 698 708 l 673 466 q 587 261 659 332 q 391 191 515 191 l 192 191 l 172 0 l 88 0 m 199 264 l 398 264 q 533 310 489 264 q 590 465 578 356 l 601 581 q 577 727 612 683 q 451 771 542 771 l 253 771 l 199 264 z "},"Đ":{"ha":788,"x_min":39,"x_max":699,"o":"m 39 515 l 47 592 l 389 592 l 381 515 l 39 515 m 88 0 l 194 1010 l 418 1010 q 629 913 558 1010 q 682 654 699 816 l 650 351 q 542 95 634 191 q 311 0 451 0 l 88 0 m 179 74 l 318 74 q 491 150 428 74 q 567 350 554 225 l 600 655 q 566 858 612 780 q 409 936 519 936 l 270 936 l 179 74 z "},"Ħ":{"ha":788,"x_min":59,"x_max":783,"o":"m 226 511 l 564 511 l 587 727 l 249 727 l 226 511 m 217 437 l 172 0 l 88 0 l 165 727 l 59 727 l 67 803 l 173 803 l 194 1010 l 278 1010 l 256 803 l 595 803 l 616 1010 l 699 1010 l 678 803 l 783 803 l 775 727 l 670 727 l 593 0 l 510 0 l 556 437 l 217 437 z "},"Ĳ":{"ha":788,"x_min":48,"x_max":741,"o":"m 129 0 l 48 0 l 154 1010 l 235 1010 l 129 0 m 437 -13 q 302 61 342 -13 q 273 304 261 134 l 355 313 q 367 119 347 174 q 446 63 386 63 q 540 121 508 63 q 586 303 573 178 l 653 936 l 442 936 l 449 1010 l 741 1010 l 667 304 q 595 65 650 143 q 437 -13 539 -13 z "},"Ŀ":{"ha":788,"x_min":141,"x_max":774,"o":"m 141 0 m 141 0 l 247 1010 l 330 1010 l 231 74 l 601 74 l 593 0 l 141 0 m 691 537 q 640 548 659 537 q 624 591 620 559 l 624 600 q 650 644 628 631 q 703 657 672 657 q 754 644 735 657 q 770 600 774 631 l 770 591 q 744 548 766 559 q 691 537 722 537 z "},"Ł":{"ha":788,"x_min":82,"x_max":601,"o":"m 82 431 l 90 501 l 558 677 l 551 606 l 82 431 m 141 0 l 247 1010 l 330 1010 l 231 74 l 601 74 l 593 0 l 141 0 z "},"Ŋ":{"ha":788,"x_min":88,"x_max":687,"o":"m 333 -263 q 262 -254 298 -263 q 187 -230 226 -246 l 212 -150 q 280 -176 249 -168 q 338 -184 311 -184 q 457 -128 412 -184 q 515 48 503 -71 l 587 736 q 568 891 598 840 q 472 942 538 942 q 364 905 414 942 q 255 793 313 869 l 172 0 l 88 0 l 194 1010 l 278 1010 l 263 869 l 283 869 q 384 982 326 942 q 508 1023 442 1023 q 641 953 596 1023 q 674 764 687 884 l 597 32 q 511 -185 582 -107 q 333 -263 439 -263 z "},"Œ":{"ha":788,"x_min":15,"x_max":801,"o":"m 260 0 q 75 95 135 0 q 32 352 15 189 l 63 653 q 160 914 81 818 q 365 1010 240 1010 l 801 1010 l 793 941 l 537 941 l 500 588 l 754 588 l 746 519 l 492 519 l 446 69 l 702 69 l 694 0 l 260 0 m 268 69 l 369 69 l 460 941 l 359 941 q 210 867 265 941 q 140 654 155 793 l 109 351 q 134 142 95 215 q 268 69 174 69 z "},"Ŧ":{"ha":788,"x_min":134,"x_max":750,"o":"m 134 413 l 143 489 l 643 489 l 634 413 l 134 413 m 299 0 l 398 936 l 138 936 l 145 1010 l 750 1010 l 742 936 l 481 936 l 383 0 l 299 0 z "},"Α":{"ha":788,"x_min":27,"x_max":657,"o":"m 27 0 m 513 384 l 436 890 l 251 384 l 513 384 m 571 0 l 524 309 l 222 309 l 110 0 l 27 0 l 407 1010 l 486 1010 l 657 0 l 571 0 z "},"Ά":{"ha":788,"x_min":27,"x_max":657,"o":"m 27 0 m 513 384 l 436 890 l 251 384 l 513 384 m 571 0 l 524 309 l 222 309 l 110 0 l 27 0 l 407 1010 l 486 1010 l 657 0 l 571 0 m 98 884 l 210 1136 l 330 1136 l 164 884 l 98 884 z "},"Β":{"ha":788,"x_min":88,"x_max":678,"o":"m 88 0 m 88 0 l 194 1010 l 451 1010 q 624 949 569 1010 q 665 773 678 889 l 659 715 q 616 603 653 649 q 521 545 578 557 l 520 524 q 624 459 588 516 q 650 313 659 402 l 644 258 q 559 66 631 131 q 359 0 486 0 l 88 0 m 231 564 l 408 564 q 530 603 490 564 q 580 730 569 641 l 583 765 q 561 896 592 856 q 447 936 529 936 l 270 936 l 231 564 m 179 74 l 375 74 q 508 119 463 74 q 562 263 552 163 l 566 303 q 542 446 577 403 q 419 490 508 490 l 223 490 l 179 74 z "},"Γ":{"ha":788,"x_min":91,"x_max":721,"o":"m 91 0 l 197 1010 l 721 1010 l 713 936 l 273 936 l 174 0 l 91 0 z "},"Δ":{"ha":788,"x_min":27,"x_max":663,"o":"m 27 0 l 34 73 l 402 1010 l 484 1010 l 663 73 l 655 0 l 27 0 m 581 73 l 434 900 l 114 73 l 581 73 z "},"Ε":{"ha":788,"x_min":88,"x_max":720,"o":"m 88 0 m 88 0 l 194 1010 l 720 1010 l 712 936 l 270 936 l 234 588 l 622 588 l 615 514 l 226 514 l 179 74 l 621 74 l 614 0 l 88 0 z "},"Έ":{"ha":788,"x_min":-51,"x_max":720,"o":"m 0 0 m 88 0 l 194 1010 l 720 1010 l 712 936 l 270 936 l 234 588 l 622 588 l 615 514 l 226 514 l 179 74 l 621 74 l 614 0 l 88 0 m -51 884 l 61 1136 l 181 1136 l 15 884 l -51 884 z "},"Ζ":{"ha":788,"x_min":68,"x_max":725,"o":"m 68 0 m 619 0 l 68 0 l 76 73 l 624 937 l 167 937 l 174 1010 l 725 1010 l 717 937 l 170 73 l 626 73 l 619 0 z "},"Η":{"ha":788,"x_min":88,"x_max":699,"o":"m 88 0 m 88 0 l 194 1010 l 278 1010 l 234 588 l 572 588 l 616 1010 l 699 1010 l 593 0 l 510 0 l 564 514 l 226 514 l 172 0 l 88 0 z "},"Ή":{"ha":788,"x_min":-62,"x_max":699,"o":"m 0 0 m 88 0 l 194 1010 l 278 1010 l 234 588 l 572 588 l 616 1010 l 699 1010 l 593 0 l 510 0 l 564 514 l 226 514 l 172 0 l 88 0 m -62 884 l 49 1136 l 169 1136 l 4 884 l -62 884 z "},"Θ":{"ha":788,"x_min":78,"x_max":710,"o":"m 340 -13 q 140 78 201 -13 q 97 343 78 168 l 130 662 q 230 931 149 840 q 449 1023 311 1023 q 648 931 586 1023 q 691 662 710 840 l 658 343 q 558 78 639 168 q 340 -13 477 -13 m 347 62 q 507 127 455 62 q 574 342 559 192 l 609 663 q 586 883 625 817 q 441 948 548 948 q 280 883 332 948 q 212 663 229 817 l 178 342 q 201 127 163 192 q 347 62 239 62 m 301 476 l 308 551 l 492 551 l 485 476 l 301 476 z "},"Ι":{"ha":788,"x_min":88,"x_max":699,"o":"m 88 0 m 88 0 l 96 74 l 307 74 l 398 936 l 187 936 l 194 1010 l 699 1010 l 692 936 l 481 936 l 390 74 l 601 74 l 593 0 l 88 0 z "},"Ί":{"ha":788,"x_min":-62,"x_max":699,"o":"m 0 0 m 88 0 l 96 74 l 307 74 l 398 936 l 187 936 l 194 1010 l 699 1010 l 692 936 l 481 936 l 390 74 l 601 74 l 593 0 l 88 0 m -62 884 l 49 1136 l 169 1136 l 4 884 l -62 884 z "},"Ϊ":{"ha":788,"x_min":88,"x_max":699,"o":"m 88 0 m 88 0 l 96 74 l 307 74 l 398 936 l 187 936 l 194 1010 l 699 1010 l 692 936 l 481 936 l 390 74 l 601 74 l 593 0 l 88 0 m 346 1167 q 303 1178 318 1167 q 292 1221 288 1189 l 292 1230 q 313 1275 295 1263 q 359 1287 331 1287 q 400 1275 385 1287 q 412 1230 415 1263 l 412 1221 q 390 1178 408 1189 q 346 1167 371 1167 m 578 1167 q 537 1178 552 1167 q 525 1221 521 1189 l 525 1230 q 547 1275 529 1263 q 591 1287 564 1287 q 634 1275 619 1287 q 645 1230 649 1263 l 645 1221 q 623 1178 641 1189 q 578 1167 605 1167 z "},"Κ":{"ha":788,"x_min":88,"x_max":760,"o":"m 88 0 m 223 499 l 172 0 l 88 0 l 194 1010 l 278 1010 l 231 573 l 294 573 l 662 1010 l 760 1010 l 360 543 l 650 0 l 557 0 l 297 499 l 223 499 z "},"Λ":{"ha":788,"x_min":27,"x_max":657,"o":"m 571 0 l 434 890 l 110 0 l 27 0 l 407 1010 l 486 1010 l 657 0 l 571 0 z "},"Μ":{"ha":788,"x_min":53,"x_max":735,"o":"m 53 0 m 327 250 l 221 869 l 130 0 l 53 0 l 159 1010 l 266 1010 l 380 354 l 629 1010 l 735 1010 l 629 0 l 552 0 l 644 867 l 407 250 l 327 250 z "},"Ν":{"ha":788,"x_min":88,"x_max":699,"o":"m 88 0 m 485 0 l 256 872 l 164 0 l 88 0 l 194 1010 l 295 1010 l 530 119 l 624 1010 l 699 1010 l 593 0 l 485 0 z "},"Ξ":{"ha":788,"x_min":68,"x_max":720,"o":"m 167 936 l 174 1010 l 720 1010 l 712 936 l 167 936 m 149 514 l 157 588 l 649 588 l 641 514 l 149 514 m 68 0 l 76 74 l 621 74 l 614 0 l 68 0 z "},"Ο":{"ha":788,"x_min":86,"x_max":702,"o":"m 86 0 m 340 -13 q 145 76 205 -13 q 104 340 86 165 l 138 665 q 235 932 157 842 q 449 1023 314 1023 q 643 932 585 1023 q 683 665 702 842 l 649 340 q 553 76 631 165 q 340 -13 475 -13 m 347 62 q 500 128 449 62 q 566 338 551 193 l 600 667 q 580 881 616 814 q 441 948 543 948 q 288 881 338 948 q 221 667 237 814 l 187 338 q 208 128 172 193 q 347 62 245 62 z "},"Ό":{"ha":788,"x_min":32,"x_max":707,"o":"m 32 0 m 345 -13 q 150 76 210 -13 q 109 340 91 165 l 143 665 q 241 932 162 842 q 455 1023 319 1023 q 648 932 590 1023 q 688 665 707 842 l 654 340 q 558 76 636 165 q 345 -13 480 -13 m 352 62 q 505 128 455 62 q 571 338 556 193 l 605 667 q 585 881 621 814 q 446 948 548 948 q 293 881 343 948 q 226 667 242 814 l 192 338 q 213 128 177 193 q 352 62 250 62 m 32 884 l 143 1136 l 263 1136 l 97 884 l 32 884 z "},"Π":{"ha":788,"x_min":88,"x_max":699,"o":"m 88 0 l 194 1010 l 699 1010 l 593 0 l 510 0 l 609 936 l 270 936 l 172 0 l 88 0 z "},"Ρ":{"ha":788,"x_min":88,"x_max":716,"o":"m 88 0 m 88 0 l 194 1010 l 479 1010 q 660 943 605 1010 q 702 744 716 876 l 689 622 q 605 422 676 489 q 409 356 535 356 l 210 356 l 172 0 l 88 0 m 217 429 l 415 429 q 551 474 506 429 q 606 624 595 519 l 619 740 q 594 890 629 845 q 468 936 559 936 l 270 936 l 217 429 z "},"Σ":{"ha":788,"x_min":59,"x_max":717,"o":"m 611 0 l 59 0 l 67 74 l 480 519 l 158 936 l 165 1010 l 717 1010 l 710 936 l 264 936 l 544 559 l 535 485 l 167 74 l 619 74 l 611 0 z "},"Τ":{"ha":788,"x_min":138,"x_max":750,"o":"m 138 0 m 299 0 l 398 936 l 138 936 l 145 1010 l 750 1010 l 742 936 l 481 936 l 383 0 l 299 0 z "},"Υ":{"ha":788,"x_min":107,"x_max":787,"o":"m 107 0 m 383 0 l 299 0 l 340 379 l 107 1010 l 198 1010 l 393 465 l 696 1010 l 787 1010 l 423 379 l 383 0 z "},"Ύ":{"ha":788,"x_min":-90,"x_max":787,"o":"m 0 0 m 383 0 l 299 0 l 340 379 l 107 1010 l 198 1010 l 393 465 l 696 1010 l 787 1010 l 423 379 l 383 0 m -90 884 l 21 1136 l 141 1136 l -24 884 l -90 884 z "},"Ϋ":{"ha":788,"x_min":107,"x_max":787,"o":"m 107 0 m 383 0 l 299 0 l 340 379 l 107 1010 l 198 1010 l 393 465 l 696 1010 l 787 1010 l 423 379 l 383 0 m 346 1167 q 303 1178 318 1167 q 292 1221 288 1189 l 292 1230 q 313 1275 295 1263 q 359 1287 331 1287 q 400 1275 385 1287 q 412 1230 415 1263 l 412 1221 q 390 1178 408 1189 q 346 1167 371 1167 m 578 1167 q 537 1178 552 1167 q 525 1221 521 1189 l 525 1230 q 547 1275 529 1263 q 591 1287 564 1287 q 634 1275 619 1287 q 645 1230 649 1263 l 645 1221 q 623 1178 641 1189 q 578 1167 605 1167 z "},"Φ":{"ha":788,"x_min":67,"x_max":721,"o":"m 67 0 m 439 114 l 393 114 l 379 -20 l 298 -20 l 312 114 l 266 114 q 113 193 159 114 q 82 418 67 271 l 100 587 q 179 817 115 737 q 350 896 242 896 l 395 896 l 409 1030 l 490 1030 l 476 896 l 523 896 q 676 817 630 896 q 706 587 721 737 l 688 418 q 610 193 673 271 q 439 114 547 114 m 514 822 l 465 822 l 399 188 l 448 188 q 557 242 520 188 q 607 418 595 297 l 625 587 q 612 766 638 711 q 514 822 586 822 m 275 188 l 323 188 l 389 822 l 341 822 q 231 766 269 822 q 181 587 193 711 l 163 418 q 177 242 150 297 q 275 188 203 188 z "},"Χ":{"ha":788,"x_min":8,"x_max":782,"o":"m 8 0 m 583 0 l 391 441 l 100 0 l 8 0 l 354 519 l 140 1010 l 230 1010 l 413 592 l 688 1010 l 782 1010 l 448 514 l 673 0 l 583 0 z "},"Ψ":{"ha":788,"x_min":111,"x_max":723,"o":"m 381 0 l 301 0 l 328 260 q 160 355 208 271 q 126 571 111 438 l 172 1010 l 250 1010 l 203 568 q 223 405 192 460 q 336 341 254 350 l 407 1010 l 487 1010 l 417 341 q 544 405 501 350 q 597 568 586 460 l 644 1010 l 723 1010 l 678 571 q 597 355 663 438 q 409 260 532 271 l 381 0 z "},"Ω":{"ha":788,"x_min":58,"x_max":712,"o":"m 275 0 l 58 0 l 66 76 l 202 76 l 220 237 q 126 338 150 265 q 112 513 101 410 l 128 662 q 227 931 146 838 q 448 1023 307 1023 q 651 931 590 1023 q 693 662 712 838 l 678 513 q 627 338 667 410 q 513 237 587 265 l 495 76 l 631 76 l 624 0 l 407 0 l 437 283 q 549 360 514 303 q 595 513 585 417 l 610 662 q 587 882 626 816 q 441 948 548 948 q 280 882 333 948 q 211 662 227 816 l 196 513 q 208 360 186 417 q 306 283 231 303 l 275 0 z "},"Ώ":{"ha":788,"x_min":4,"x_max":712,"o":"m 4 0 m 275 0 l 58 0 l 66 76 l 202 76 l 220 237 q 126 338 150 265 q 112 513 101 410 l 128 662 q 227 931 146 838 q 448 1023 307 1023 q 651 931 590 1023 q 693 662 712 838 l 678 513 q 627 338 667 410 q 513 237 587 265 l 495 76 l 631 76 l 624 0 l 407 0 l 437 283 q 549 360 514 303 q 595 513 585 417 l 610 662 q 587 882 626 816 q 441 948 548 948 q 280 882 333 948 q 211 662 227 816 l 196 513 q 208 360 186 417 q 306 283 231 303 l 275 0 m 4 884 l 115 1136 l 235 1136 l 69 884 l 4 884 z "},"Ω":{"ha":788,"x_min":58,"x_max":712,"o":"m 58 0 m 275 0 l 58 0 l 66 76 l 202 76 l 220 237 q 126 338 150 265 q 112 513 101 410 l 128 662 q 227 931 146 838 q 448 1023 307 1023 q 651 931 590 1023 q 693 662 712 838 l 678 513 q 627 338 667 410 q 513 237 587 265 l 495 76 l 631 76 l 624 0 l 407 0 l 437 283 q 549 360 514 303 q 595 513 585 417 l 610 662 q 587 882 626 816 q 441 948 548 948 q 280 882 333 948 q 211 662 227 816 l 196 513 q 208 360 186 417 q 306 283 231 303 l 275 0 z "},"Ђ":{"ha":788,"x_min":115,"x_max":688,"o":"m 173 0 l 271 936 l 115 936 l 122 1010 l 620 1010 l 612 936 l 354 936 l 322 640 l 460 640 q 633 578 578 640 q 676 396 688 516 l 662 260 q 582 66 648 133 q 403 0 516 0 l 410 72 q 527 116 486 72 q 580 263 568 160 l 593 394 q 569 528 604 489 q 452 568 534 568 l 314 568 l 255 0 l 173 0 z "},"Є":{"ha":788,"x_min":85,"x_max":717,"o":"m 664 303 q 563 68 641 148 q 351 -13 485 -13 q 148 74 212 -13 q 104 333 85 162 l 139 672 q 239 934 157 846 q 460 1023 321 1023 q 655 941 593 1023 q 706 702 717 860 l 624 693 q 588 890 628 831 q 452 948 549 948 q 290 885 343 948 q 222 673 237 822 l 213 588 l 448 588 l 441 514 l 206 514 l 187 332 q 210 124 170 186 q 359 62 250 62 q 508 119 457 62 q 583 312 559 177 l 664 303 z "},"Ѕ":{"ha":788,"x_min":67,"x_max":693,"o":"m 67 0 m 346 -8 q 188 24 259 -8 q 67 114 117 56 l 116 178 q 225 93 165 121 q 357 66 284 66 q 504 117 444 66 q 574 260 564 169 q 544 388 582 342 q 385 481 505 433 q 199 595 253 534 q 157 763 146 657 q 247 947 169 880 q 439 1014 324 1014 q 583 983 518 1014 q 693 900 648 952 l 646 835 q 547 913 601 885 q 431 941 492 941 q 298 895 348 941 q 239 770 247 850 q 273 648 230 691 q 437 557 316 605 q 617 442 567 505 q 655 268 668 379 q 555 68 643 143 q 346 -8 467 -8 z "},"І":{"ha":788,"x_min":88,"x_max":699,"o":"m 88 0 m 88 0 l 96 74 l 307 74 l 398 936 l 187 936 l 194 1010 l 699 1010 l 692 936 l 481 936 l 390 74 l 601 74 l 593 0 l 88 0 z "},"Ї":{"ha":788,"x_min":88,"x_max":699,"o":"m 88 0 m 88 0 l 96 74 l 307 74 l 398 936 l 187 936 l 194 1010 l 699 1010 l 692 936 l 481 936 l 390 74 l 601 74 l 593 0 l 88 0 m 346 1167 q 303 1178 318 1167 q 292 1221 288 1189 l 292 1230 q 313 1275 295 1263 q 359 1287 331 1287 q 400 1275 385 1287 q 412 1230 415 1263 l 412 1221 q 390 1178 408 1189 q 346 1167 371 1167 m 578 1167 q 537 1178 552 1167 q 525 1221 521 1189 l 525 1230 q 547 1275 529 1263 q 591 1287 564 1287 q 634 1275 619 1287 q 645 1230 649 1263 l 645 1221 q 623 1178 641 1189 q 578 1167 605 1167 z "},"Ј":{"ha":788,"x_min":69,"x_max":698,"o":"m 69 0 m 318 -13 q 126 63 183 -13 q 80 306 69 139 l 163 316 q 191 117 157 172 q 324 62 226 62 q 476 124 424 62 q 543 319 528 186 l 607 936 l 381 936 l 389 1010 l 698 1010 l 626 322 q 531 71 609 155 q 318 -13 453 -13 z "},"Љ":{"ha":788,"x_min":-39,"x_max":691,"o":"m 168 198 q 116 42 155 91 q 24 -8 76 -8 q -8 -4 8 -9 q -39 5 -23 0 l -13 85 q 5 78 -4 81 q 23 74 14 74 q 65 100 47 73 q 92 206 83 126 l 189 1010 l 486 1010 l 448 644 l 515 644 q 650 578 610 644 q 677 381 691 513 l 664 263 q 596 66 650 131 q 448 0 542 0 l 303 0 l 402 934 l 255 934 l 168 198 m 388 76 l 453 76 q 541 118 506 76 q 587 266 576 160 l 600 380 q 584 528 610 486 q 505 569 558 569 l 439 569 l 388 76 z "},"Њ":{"ha":788,"x_min":45,"x_max":691,"o":"m 388 76 l 455 76 q 542 118 508 76 q 587 266 576 160 l 600 380 q 585 528 610 486 q 506 569 559 569 l 439 569 l 388 76 m 178 529 l 122 0 l 45 0 l 152 1010 l 229 1010 l 186 604 l 366 604 l 409 1010 l 486 1010 l 448 644 l 516 644 q 651 578 611 644 q 677 381 691 513 l 664 263 q 597 66 650 131 q 449 0 544 0 l 303 0 l 359 529 l 178 529 z "},"Ћ":{"ha":788,"x_min":105,"x_max":684,"o":"m 245 0 l 163 0 l 261 936 l 105 936 l 112 1010 l 610 1010 l 602 936 l 343 936 l 309 609 l 467 609 q 634 544 583 609 q 670 354 684 480 l 634 0 l 551 0 l 587 351 q 569 493 598 451 q 460 535 539 535 l 302 535 l 245 0 z "},"Џ":{"ha":788,"x_min":88,"x_max":699,"o":"m 279 -189 l 299 0 l 88 0 l 194 1010 l 278 1010 l 179 74 l 518 74 l 616 1010 l 699 1010 l 593 0 l 383 0 l 362 -189 l 279 -189 z "},"А":{"ha":788,"x_min":27,"x_max":657,"o":"m 27 0 m 513 384 l 436 890 l 251 384 l 513 384 m 571 0 l 524 309 l 222 309 l 110 0 l 27 0 l 407 1010 l 486 1010 l 657 0 l 571 0 z "},"Б":{"ha":788,"x_min":88,"x_max":672,"o":"m 88 0 l 194 1010 l 672 1010 l 664 936 l 270 936 l 234 591 l 433 591 q 602 527 547 591 q 644 348 657 463 l 635 260 q 553 68 621 136 q 372 0 485 0 l 88 0 m 179 74 l 364 74 q 497 121 451 74 q 553 266 543 168 l 561 335 q 534 473 571 429 q 410 518 497 518 l 226 518 l 179 74 z "},"В":{"ha":788,"x_min":88,"x_max":678,"o":"m 88 0 m 88 0 l 194 1010 l 451 1010 q 624 949 569 1010 q 665 773 678 889 l 659 715 q 616 603 653 649 q 521 545 578 557 l 520 524 q 624 459 588 516 q 650 313 659 402 l 644 258 q 559 66 631 131 q 359 0 486 0 l 88 0 m 231 564 l 408 564 q 530 603 490 564 q 580 730 569 641 l 583 765 q 561 896 592 856 q 447 936 529 936 l 270 936 l 231 564 m 179 74 l 375 74 q 508 119 463 74 q 562 263 552 163 l 566 303 q 542 446 577 403 q 419 490 508 490 l 223 490 l 179 74 z "},"Г":{"ha":788,"x_min":91,"x_max":721,"o":"m 91 0 m 91 0 l 197 1010 l 721 1010 l 713 936 l 273 936 l 174 0 l 91 0 z "},"Ѓ":{"ha":788,"x_min":91,"x_max":721,"o":"m 91 0 m 91 0 l 197 1010 l 721 1010 l 713 936 l 273 936 l 174 0 l 91 0 m 410 1136 l 585 1389 l 710 1389 l 481 1136 l 410 1136 z "},"Д":{"ha":788,"x_min":-24,"x_max":684,"o":"m 160 93 l 158 74 l 497 74 l 588 936 l 312 936 l 249 372 q 218 196 237 260 q 160 93 198 133 m 78 0 l 58 -189 l -24 -189 l 4 74 l 64 74 q 132 182 106 109 q 173 380 158 256 l 241 1010 l 678 1010 l 580 74 l 684 74 l 657 -189 l 574 -189 l 595 0 l 78 0 z "},"Е":{"ha":788,"x_min":88,"x_max":720,"o":"m 88 0 m 88 0 l 194 1010 l 720 1010 l 712 936 l 270 936 l 234 588 l 622 588 l 615 514 l 226 514 l 179 74 l 621 74 l 614 0 l 88 0 z "},"Ѐ":{"ha":788,"x_min":88,"x_max":720,"o":"m 88 0 m 88 0 l 194 1010 l 720 1010 l 712 936 l 270 936 l 234 588 l 622 588 l 615 514 l 226 514 l 179 74 l 621 74 l 614 0 l 88 0 m 499 1136 l 323 1389 l 448 1389 l 569 1136 l 499 1136 z "},"Ё":{"ha":788,"x_min":88,"x_max":720,"o":"m 88 0 m 88 0 l 194 1010 l 720 1010 l 712 936 l 270 936 l 234 588 l 622 588 l 615 514 l 226 514 l 179 74 l 621 74 l 614 0 l 88 0 m 375 1167 q 332 1178 347 1167 q 321 1221 317 1189 l 321 1230 q 342 1275 324 1263 q 388 1287 360 1287 q 429 1275 414 1287 q 441 1230 444 1263 l 441 1221 q 419 1178 437 1189 q 375 1167 400 1167 m 607 1167 q 566 1178 581 1167 q 554 1221 551 1189 l 554 1230 q 576 1275 558 1263 q 620 1287 593 1287 q 663 1275 648 1287 q 674 1230 678 1263 l 674 1221 q 652 1178 670 1189 q 607 1167 634 1167 z "},"Ж":{"ha":788,"x_min":-9,"x_max":799,"o":"m 295 505 l 71 0 l -9 0 l 239 543 l 96 1010 l 174 1010 l 301 573 l 365 573 l 410 1010 l 485 1010 l 438 573 l 501 573 l 722 1010 l 799 1010 l 558 545 l 692 0 l 611 0 l 495 505 l 432 505 l 379 0 l 304 0 l 359 505 l 295 505 z "},"З":{"ha":788,"x_min":77,"x_max":687,"o":"m 335 -13 q 138 52 199 -13 q 85 255 77 117 l 169 264 q 206 105 167 152 q 342 59 245 59 q 502 107 451 59 q 564 269 553 155 l 569 313 q 545 455 580 414 q 413 495 510 495 l 301 495 l 308 569 l 420 569 q 539 604 503 569 q 585 723 576 638 l 590 774 q 563 910 600 869 q 431 951 527 951 q 304 909 346 951 q 242 765 261 867 l 160 774 q 248 962 181 902 q 441 1023 316 1023 q 628 960 568 1023 q 673 773 687 898 l 668 722 q 618 597 659 641 q 513 543 577 552 l 510 521 q 624 457 587 514 q 653 313 662 400 l 648 269 q 557 57 634 128 q 335 -13 481 -13 z "},"И":{"ha":788,"x_min":88,"x_max":699,"o":"m 515 0 l 607 871 l 197 0 l 88 0 l 194 1010 l 271 1010 l 178 121 l 600 1010 l 699 1010 l 593 0 l 515 0 z "},"Ѝ":{"ha":788,"x_min":88,"x_max":699,"o":"m 88 0 m 515 0 l 607 871 l 197 0 l 88 0 l 194 1010 l 271 1010 l 178 121 l 600 1010 l 699 1010 l 593 0 l 515 0 m 461 1136 l 285 1389 l 410 1389 l 532 1136 l 461 1136 z "},"Й":{"ha":788,"x_min":88,"x_max":715,"o":"m 88 0 m 515 0 l 607 871 l 197 0 l 88 0 l 194 1010 l 271 1010 l 178 121 l 600 1010 l 699 1010 l 593 0 l 515 0 m 467 1128 q 318 1183 376 1128 q 273 1378 259 1239 l 355 1386 q 374 1241 346 1284 q 475 1197 402 1197 q 585 1241 548 1197 q 633 1386 621 1284 l 715 1378 q 628 1183 698 1239 q 467 1128 558 1128 z "},"К":{"ha":788,"x_min":88,"x_max":760,"o":"m 88 0 m 223 499 l 172 0 l 88 0 l 194 1010 l 278 1010 l 231 573 l 294 573 l 662 1010 l 760 1010 l 360 543 l 650 0 l 557 0 l 297 499 l 223 499 z "},"Ќ":{"ha":788,"x_min":88,"x_max":760,"o":"m 88 0 m 223 499 l 172 0 l 88 0 l 194 1010 l 278 1010 l 231 573 l 294 573 l 662 1010 l 760 1010 l 360 543 l 650 0 l 557 0 l 297 499 l 223 499 m 436 1136 l 610 1389 l 735 1389 l 506 1136 l 436 1136 z "},"Л":{"ha":788,"x_min":-23,"x_max":699,"o":"m 510 0 l 609 936 l 333 936 l 261 287 q 191 60 245 133 q 56 -13 138 -13 q 13 -9 33 -13 q -23 1 -8 -6 l 0 73 q 27 64 14 67 q 52 62 39 62 q 139 119 107 62 q 183 303 170 176 l 261 1010 l 699 1010 l 593 0 l 510 0 z "},"М":{"ha":788,"x_min":53,"x_max":735,"o":"m 53 0 m 327 250 l 221 869 l 130 0 l 53 0 l 159 1010 l 266 1010 l 380 354 l 629 1010 l 735 1010 l 629 0 l 552 0 l 644 867 l 407 250 l 327 250 z "},"Н":{"ha":788,"x_min":88,"x_max":699,"o":"m 88 0 m 88 0 l 194 1010 l 278 1010 l 234 588 l 572 588 l 616 1010 l 699 1010 l 593 0 l 510 0 l 564 514 l 226 514 l 172 0 l 88 0 z "},"О":{"ha":788,"x_min":86,"x_max":702,"o":"m 86 0 m 340 -13 q 145 76 205 -13 q 104 340 86 165 l 138 665 q 235 932 157 842 q 449 1023 314 1023 q 643 932 585 1023 q 683 665 702 842 l 649 340 q 553 76 631 165 q 340 -13 475 -13 m 347 62 q 500 128 449 62 q 566 338 551 193 l 600 667 q 580 881 616 814 q 441 948 543 948 q 288 881 338 948 q 221 667 237 814 l 187 338 q 208 128 172 193 q 347 62 245 62 z "},"П":{"ha":788,"x_min":88,"x_max":699,"o":"m 88 0 m 88 0 l 194 1010 l 699 1010 l 593 0 l 510 0 l 609 936 l 270 936 l 172 0 l 88 0 z "},"Р":{"ha":788,"x_min":88,"x_max":716,"o":"m 88 0 m 88 0 l 194 1010 l 479 1010 q 660 943 605 1010 q 702 744 716 876 l 689 622 q 605 422 676 489 q 409 356 535 356 l 210 356 l 172 0 l 88 0 m 217 429 l 415 429 q 551 474 506 429 q 606 624 595 519 l 619 740 q 594 890 629 845 q 468 936 559 936 l 270 936 l 217 429 z "},"С":{"ha":788,"x_min":85,"x_max":716,"o":"m 85 0 m 351 -13 q 148 74 211 -13 q 104 336 85 162 l 139 669 q 238 934 157 845 q 460 1023 319 1023 q 655 945 593 1023 q 706 702 716 867 l 624 693 q 590 892 629 836 q 452 948 552 948 q 290 883 343 948 q 222 668 237 818 l 187 337 q 212 128 172 193 q 359 62 253 62 q 513 119 462 62 q 583 312 564 176 l 664 303 q 566 66 644 145 q 351 -13 489 -13 z "},"Т":{"ha":788,"x_min":138,"x_max":750,"o":"m 138 0 m 299 0 l 398 936 l 138 936 l 145 1010 l 750 1010 l 742 936 l 481 936 l 383 0 l 299 0 z "},"У":{"ha":788,"x_min":101,"x_max":755,"o":"m 179 -6 q 140 -4 159 -6 q 101 4 120 -1 l 122 78 q 157 71 141 73 q 189 68 173 68 q 273 102 241 68 q 340 220 306 135 l 346 234 l 317 234 l 138 1010 l 221 1010 l 376 311 l 670 1010 l 755 1010 l 403 193 q 300 36 354 78 q 179 -6 246 -6 z "},"Ў":{"ha":788,"x_min":101,"x_max":755,"o":"m 101 0 m 179 -6 q 140 -4 159 -6 q 101 4 120 -1 l 122 78 q 157 71 141 73 q 189 68 173 68 q 273 102 241 68 q 340 220 306 135 l 346 234 l 317 234 l 138 1010 l 221 1010 l 376 311 l 670 1010 l 755 1010 l 403 193 q 300 36 354 78 q 179 -6 246 -6 m 458 1128 q 309 1183 367 1128 q 264 1378 250 1239 l 346 1386 q 365 1241 337 1284 q 466 1197 393 1197 q 576 1241 539 1197 q 624 1386 612 1284 l 706 1378 q 619 1183 689 1239 q 458 1128 549 1128 z "},"Ф":{"ha":788,"x_min":67,"x_max":721,"o":"m 439 114 l 393 114 l 379 -20 l 298 -20 l 312 114 l 266 114 q 113 193 159 114 q 82 418 67 271 l 100 587 q 179 817 115 737 q 350 896 242 896 l 395 896 l 409 1030 l 490 1030 l 476 896 l 523 896 q 676 817 630 896 q 706 587 721 737 l 688 418 q 610 193 673 271 q 439 114 547 114 m 514 822 l 465 822 l 399 188 l 448 188 q 557 242 520 188 q 607 418 595 297 l 625 587 q 612 766 638 711 q 514 822 586 822 m 275 188 l 323 188 l 389 822 l 341 822 q 231 766 269 822 q 181 587 193 711 l 163 418 q 177 242 150 297 q 275 188 203 188 z "},"Х":{"ha":788,"x_min":8,"x_max":782,"o":"m 8 0 m 583 0 l 391 441 l 100 0 l 8 0 l 354 519 l 140 1010 l 230 1010 l 413 592 l 688 1010 l 782 1010 l 448 514 l 673 0 l 583 0 z "},"Ц":{"ha":788,"x_min":88,"x_max":653,"o":"m 543 -189 l 563 0 l 88 0 l 194 1010 l 278 1010 l 179 74 l 466 74 l 564 1010 l 648 1010 l 549 74 l 653 74 l 625 -189 l 543 -189 z "},"Ч":{"ha":788,"x_min":139,"x_max":699,"o":"m 699 1010 l 593 0 l 510 0 l 548 360 l 379 360 q 192 420 245 360 q 153 614 139 481 l 194 1010 l 278 1010 l 236 616 q 261 476 226 519 q 386 433 295 433 l 556 433 l 616 1010 l 699 1010 z "},"Ш":{"ha":788,"x_min":42,"x_max":746,"o":"m 42 0 l 148 1010 l 226 1010 l 128 72 l 309 72 l 408 1010 l 486 1010 l 388 72 l 569 72 l 668 1010 l 746 1010 l 640 0 l 42 0 z "},"Щ":{"ha":788,"x_min":42,"x_max":746,"o":"m 665 -187 l 586 -187 l 606 0 l 42 0 l 148 1010 l 226 1010 l 128 72 l 309 72 l 408 1010 l 486 1010 l 388 72 l 569 72 l 668 1010 l 746 1010 l 648 72 l 693 72 l 665 -187 z "},"Ъ":{"ha":788,"x_min":88,"x_max":698,"o":"m 420 0 l 193 0 l 292 936 l 88 936 l 96 1010 l 381 1010 l 343 644 l 487 644 q 649 580 600 644 q 684 383 698 515 l 672 261 q 595 64 658 129 q 420 0 533 0 m 283 74 l 426 74 q 540 119 501 74 q 588 265 578 163 l 601 381 q 583 528 611 484 q 479 573 554 573 l 336 573 l 283 74 z "},"Ы":{"ha":788,"x_min":66,"x_max":723,"o":"m 66 0 l 172 1010 l 249 1010 l 211 644 l 290 644 q 432 578 393 644 q 458 383 472 513 l 446 261 q 378 66 432 131 q 223 0 324 0 l 66 0 m 539 0 l 645 1010 l 723 1010 l 617 0 l 539 0 m 150 72 l 229 72 q 324 117 290 72 q 367 265 357 163 l 380 381 q 367 529 390 484 q 282 574 343 574 l 203 574 l 150 72 z "},"Ь":{"ha":788,"x_min":88,"x_max":679,"o":"m 88 0 l 194 1010 l 278 1010 l 240 645 l 442 645 q 624 580 568 645 q 665 383 679 514 l 653 261 q 569 66 639 131 q 374 0 500 0 l 88 0 m 179 74 l 379 74 q 513 119 466 74 q 569 265 559 163 l 582 381 q 556 528 592 484 q 432 573 519 573 l 232 573 l 179 74 z "},"Э":{"ha":788,"x_min":91,"x_max":723,"o":"m 350 -13 q 153 68 216 -13 q 100 306 91 148 l 184 314 q 218 121 179 179 q 357 62 256 62 q 519 128 466 62 q 587 332 572 193 l 606 514 l 327 514 l 335 588 l 614 588 l 622 673 q 598 884 638 821 q 451 948 559 948 q 300 889 352 948 q 223 691 247 830 l 141 699 q 246 941 167 860 q 457 1023 324 1023 q 664 932 604 1023 q 706 672 723 841 l 670 333 q 574 78 653 168 q 350 -13 495 -13 z "},"Ю":{"ha":788,"x_min":44,"x_max":727,"o":"m 438 -13 q 301 62 341 -13 q 278 285 261 136 l 302 516 l 177 516 l 122 0 l 44 0 l 150 1010 l 229 1010 l 184 587 l 309 587 l 323 716 q 394 946 338 870 q 548 1023 449 1023 q 687 946 646 1023 q 712 716 727 870 l 667 285 q 594 62 650 136 q 438 -13 538 -13 m 446 59 q 543 112 509 59 q 590 285 577 165 l 635 716 q 625 895 648 841 q 539 949 602 949 q 445 895 477 949 q 400 716 413 841 l 355 285 q 363 112 342 165 q 446 59 384 59 z "},"Я":{"ha":788,"x_min":24,"x_max":698,"o":"m 340 470 l 559 470 l 607 937 l 389 937 q 254 891 299 937 q 199 747 210 846 l 191 662 q 215 515 179 561 q 340 470 251 470 m 551 396 l 370 396 l 120 0 l 24 0 l 282 399 q 139 476 182 410 q 107 659 96 542 l 117 750 q 199 944 131 878 q 393 1010 268 1010 l 698 1010 l 592 0 l 509 0 l 551 396 z "},"Ґ":{"ha":788,"x_min":91,"x_max":741,"o":"m 91 0 l 197 1010 l 638 1010 l 658 1199 l 741 1199 l 713 936 l 273 936 l 174 0 l 91 0 z "},"a":{"ha":788,"x_min":63,"x_max":676,"o":"m 278 59 q 386 86 337 59 q 479 172 436 114 l 496 340 l 297 340 q 200 311 237 340 q 155 211 163 283 q 177 99 148 139 q 278 59 206 59 m 260 -13 q 114 44 165 -13 q 74 203 63 101 q 143 352 85 298 q 293 407 202 407 l 504 407 l 519 548 q 491 654 525 614 q 383 694 456 694 q 268 665 307 694 q 201 553 230 635 l 131 574 q 226 723 164 677 q 389 770 288 770 q 554 715 495 770 q 601 556 612 659 l 563 192 q 580 86 554 111 q 676 74 606 61 l 668 -3 q 547 13 591 -15 q 506 116 504 40 l 491 116 q 393 23 456 58 q 260 -13 331 -13 z "},"à":{"ha":788,"x_min":63,"x_max":676,"o":"m 63 0 m 278 59 q 386 86 337 59 q 479 172 436 114 l 496 340 l 297 340 q 200 311 237 340 q 155 211 163 283 q 177 99 148 139 q 278 59 206 59 m 260 -13 q 114 44 165 -13 q 74 203 63 101 q 143 352 85 298 q 293 407 202 407 l 504 407 l 519 548 q 491 654 525 614 q 383 694 456 694 q 268 665 307 694 q 201 553 230 635 l 131 574 q 226 723 164 677 q 389 770 288 770 q 554 715 495 770 q 601 556 612 659 l 563 192 q 580 86 554 111 q 676 74 606 61 l 668 -3 q 547 13 591 -15 q 506 116 504 40 l 491 116 q 393 23 456 58 q 260 -13 331 -13 m 428 884 l 253 1136 l 378 1136 l 499 884 l 428 884 z "},"á":{"ha":788,"x_min":63,"x_max":676,"o":"m 63 0 m 278 59 q 386 86 337 59 q 479 172 436 114 l 496 340 l 297 340 q 200 311 237 340 q 155 211 163 283 q 177 99 148 139 q 278 59 206 59 m 260 -13 q 114 44 165 -13 q 74 203 63 101 q 143 352 85 298 q 293 407 202 407 l 504 407 l 519 548 q 491 654 525 614 q 383 694 456 694 q 268 665 307 694 q 201 553 230 635 l 131 574 q 226 723 164 677 q 389 770 288 770 q 554 715 495 770 q 601 556 612 659 l 563 192 q 580 86 554 111 q 676 74 606 61 l 668 -3 q 547 13 591 -15 q 506 116 504 40 l 491 116 q 393 23 456 58 q 260 -13 331 -13 m 318 884 l 492 1136 l 617 1136 l 389 884 l 318 884 z "},"â":{"ha":788,"x_min":63,"x_max":676,"o":"m 63 0 m 278 59 q 386 86 337 59 q 479 172 436 114 l 496 340 l 297 340 q 200 311 237 340 q 155 211 163 283 q 177 99 148 139 q 278 59 206 59 m 260 -13 q 114 44 165 -13 q 74 203 63 101 q 143 352 85 298 q 293 407 202 407 l 504 407 l 519 548 q 491 654 525 614 q 383 694 456 694 q 268 665 307 694 q 201 553 230 635 l 131 574 q 226 723 164 677 q 389 770 288 770 q 554 715 495 770 q 601 556 612 659 l 563 192 q 580 86 554 111 q 676 74 606 61 l 668 -3 q 547 13 591 -15 q 506 116 504 40 l 491 116 q 393 23 456 58 q 260 -13 331 -13 m 245 908 l 213 955 l 422 1158 l 480 1158 l 646 955 l 607 908 l 443 1077 l 245 908 z "},"ã":{"ha":788,"x_min":63,"x_max":676,"o":"m 63 0 m 278 59 q 386 86 337 59 q 479 172 436 114 l 496 340 l 297 340 q 200 311 237 340 q 155 211 163 283 q 177 99 148 139 q 278 59 206 59 m 260 -13 q 114 44 165 -13 q 74 203 63 101 q 143 352 85 298 q 293 407 202 407 l 504 407 l 519 548 q 491 654 525 614 q 383 694 456 694 q 268 665 307 694 q 201 553 230 635 l 131 574 q 226 723 164 677 q 389 770 288 770 q 554 715 495 770 q 601 556 612 659 l 563 192 q 580 86 554 111 q 676 74 606 61 l 668 -3 q 547 13 591 -15 q 506 116 504 40 l 491 116 q 393 23 456 58 q 260 -13 331 -13 m 504 896 q 444 920 467 896 q 403 996 422 944 q 374 1059 388 1039 q 343 1078 361 1078 q 298 1041 316 1078 q 273 923 280 1004 l 271 909 l 207 909 l 208 928 q 257 1090 220 1032 q 354 1148 294 1148 q 415 1125 393 1148 q 455 1053 437 1102 q 484 987 471 1009 q 513 966 496 966 q 558 1003 540 966 q 583 1121 576 1040 l 585 1135 l 649 1135 l 648 1116 q 600 955 636 1013 q 504 896 563 896 z "},"ä":{"ha":788,"x_min":63,"x_max":676,"o":"m 63 0 m 278 59 q 386 86 337 59 q 479 172 436 114 l 496 340 l 297 340 q 200 311 237 340 q 155 211 163 283 q 177 99 148 139 q 278 59 206 59 m 260 -13 q 114 44 165 -13 q 74 203 63 101 q 143 352 85 298 q 293 407 202 407 l 504 407 l 519 548 q 491 654 525 614 q 383 694 456 694 q 268 665 307 694 q 201 553 230 635 l 131 574 q 226 723 164 677 q 389 770 288 770 q 554 715 495 770 q 601 556 612 659 l 563 192 q 580 86 554 111 q 676 74 606 61 l 668 -3 q 547 13 591 -15 q 506 116 504 40 l 491 116 q 393 23 456 58 q 260 -13 331 -13 m 301 914 q 258 926 273 914 q 246 968 242 937 l 246 977 q 268 1022 250 1010 q 313 1034 285 1034 q 355 1022 340 1034 q 366 977 370 1010 l 366 968 q 344 926 362 937 q 301 914 326 914 m 533 914 q 491 926 506 914 q 480 968 476 937 l 480 977 q 501 1022 484 1010 q 545 1034 519 1034 q 588 1022 573 1034 q 600 977 604 1010 l 600 968 q 578 926 596 937 q 533 914 559 914 z "},"å":{"ha":788,"x_min":63,"x_max":676,"o":"m 63 0 m 278 59 q 386 86 337 59 q 479 172 436 114 l 496 340 l 297 340 q 200 311 237 340 q 155 211 163 283 q 177 99 148 139 q 278 59 206 59 m 260 -13 q 114 44 165 -13 q 74 203 63 101 q 143 352 85 298 q 293 407 202 407 l 504 407 l 519 548 q 491 654 525 614 q 383 694 456 694 q 268 665 307 694 q 201 553 230 635 l 131 574 q 226 723 164 677 q 389 770 288 770 q 554 715 495 770 q 601 556 612 659 l 563 192 q 580 86 554 111 q 676 74 606 61 l 668 -3 q 547 13 591 -15 q 506 116 504 40 l 491 116 q 393 23 456 58 q 260 -13 331 -13 m 412 866 q 299 910 337 866 q 270 1043 260 955 l 275 1093 q 332 1229 284 1183 q 455 1274 380 1274 q 567 1229 529 1274 q 596 1093 605 1183 l 591 1043 q 533 910 581 955 q 412 866 486 866 m 418 929 q 490 956 465 929 q 521 1043 515 982 l 527 1093 q 514 1182 533 1154 q 448 1211 495 1211 q 376 1182 402 1211 q 345 1093 351 1154 l 340 1043 q 352 956 333 982 q 418 929 371 929 z "},"ā":{"ha":788,"x_min":63,"x_max":676,"o":"m 63 0 m 278 59 q 386 86 337 59 q 479 172 436 114 l 496 340 l 297 340 q 200 311 237 340 q 155 211 163 283 q 177 99 148 139 q 278 59 206 59 m 260 -13 q 114 44 165 -13 q 74 203 63 101 q 143 352 85 298 q 293 407 202 407 l 504 407 l 519 548 q 491 654 525 614 q 383 694 456 694 q 268 665 307 694 q 201 553 230 635 l 131 574 q 226 723 164 677 q 389 770 288 770 q 554 715 495 770 q 601 556 612 659 l 563 192 q 580 86 554 111 q 676 74 606 61 l 668 -3 q 547 13 591 -15 q 506 116 504 40 l 491 116 q 393 23 456 58 q 260 -13 331 -13 m 225 975 l 232 1049 l 629 1049 l 621 975 l 225 975 z "},"ă":{"ha":788,"x_min":63,"x_max":676,"o":"m 63 0 m 278 59 q 386 86 337 59 q 479 172 436 114 l 496 340 l 297 340 q 200 311 237 340 q 155 211 163 283 q 177 99 148 139 q 278 59 206 59 m 260 -13 q 114 44 165 -13 q 74 203 63 101 q 143 352 85 298 q 293 407 202 407 l 504 407 l 519 548 q 491 654 525 614 q 383 694 456 694 q 268 665 307 694 q 201 553 230 635 l 131 574 q 226 723 164 677 q 389 770 288 770 q 554 715 495 770 q 601 556 612 659 l 563 192 q 580 86 554 111 q 676 74 606 61 l 668 -3 q 547 13 591 -15 q 506 116 504 40 l 491 116 q 393 23 456 58 q 260 -13 331 -13 m 413 875 q 252 941 306 875 q 211 1136 198 1008 l 292 1136 q 313 990 282 1034 q 420 946 345 946 q 537 990 496 946 q 590 1136 577 1034 l 670 1136 q 588 941 655 1008 q 413 875 520 875 z "},"ą":{"ha":788,"x_min":63,"x_max":682,"o":"m 63 0 m 278 59 q 386 86 337 59 q 479 172 436 114 l 496 340 l 297 340 q 200 311 237 340 q 155 211 163 283 q 177 99 148 139 q 278 59 206 59 m 260 -13 q 114 44 165 -13 q 74 203 63 101 q 143 352 85 298 q 293 407 202 407 l 504 407 l 519 548 q 491 654 525 614 q 383 694 456 694 q 268 665 307 694 q 201 553 230 635 l 131 574 q 226 723 164 677 q 389 770 288 770 q 554 715 495 770 q 601 556 612 659 l 563 192 q 580 86 554 111 q 676 74 606 61 l 668 -3 q 547 13 591 -15 q 506 116 504 40 l 491 116 q 393 23 456 58 q 260 -13 331 -13 m 574 -271 q 472 -232 510 -271 q 441 -129 434 -193 q 489 -27 447 -73 q 588 47 532 20 l 606 29 q 544 -35 564 0 q 519 -106 523 -69 q 532 -174 514 -153 q 593 -194 551 -194 q 637 -192 614 -194 q 682 -184 660 -189 l 673 -260 q 624 -268 652 -265 q 574 -271 596 -271 z "},"ǻ":{"ha":788,"x_min":63,"x_max":678,"o":"m 63 0 m 278 59 q 386 86 337 59 q 479 172 436 114 l 496 340 l 297 340 q 200 311 237 340 q 155 211 163 283 q 177 99 148 139 q 278 59 206 59 m 260 -13 q 114 44 165 -13 q 74 203 63 101 q 143 352 85 298 q 293 407 202 407 l 504 407 l 519 548 q 491 654 525 614 q 383 694 456 694 q 268 665 307 694 q 201 553 230 635 l 131 574 q 226 723 164 677 q 389 770 288 770 q 554 715 495 770 q 601 556 612 659 l 563 192 q 580 86 554 111 q 676 74 606 61 l 668 -3 q 547 13 591 -15 q 506 116 504 40 l 491 116 q 393 23 456 58 q 260 -13 331 -13 m 412 866 q 299 910 337 866 q 270 1043 260 955 l 275 1093 q 332 1229 284 1183 q 455 1274 380 1274 q 567 1229 529 1274 q 596 1093 605 1183 l 591 1043 q 533 910 581 955 q 412 866 486 866 m 418 929 q 490 956 465 929 q 521 1043 515 982 l 527 1093 q 514 1182 533 1154 q 448 1211 495 1211 q 376 1182 402 1211 q 345 1093 351 1154 l 340 1043 q 352 956 333 982 q 418 929 371 929 m 379 1263 l 553 1515 l 678 1515 l 449 1263 l 379 1263 z "},"b":{"ha":788,"x_min":96,"x_max":658,"o":"m 332 -13 q 203 8 264 -13 q 96 64 143 28 l 196 1010 l 278 1010 l 240 652 l 259 652 q 349 738 294 706 q 472 770 404 770 q 612 700 566 770 q 645 503 658 630 l 620 260 q 528 61 606 134 q 332 -13 451 -13 m 338 59 q 477 110 427 59 q 538 263 527 160 l 563 504 q 544 647 573 601 q 446 693 515 693 q 337 664 388 693 q 231 566 287 634 l 183 106 q 253 71 216 83 q 338 59 290 59 z "},"":{"ha":788,"x_min":96,"x_max":658,"o":"m 332 -13 q 203 8 264 -13 q 96 64 143 28 l 196 1010 l 278 1010 l 240 652 l 259 652 q 349 738 294 706 q 472 770 404 770 q 612 700 566 770 q 645 503 658 630 l 620 260 q 528 61 606 134 q 332 -13 451 -13 m 338 59 q 477 110 427 59 q 538 263 527 160 l 563 504 q 544 647 573 601 q 446 693 515 693 q 337 664 388 693 q 231 566 287 634 l 183 106 q 253 71 216 83 q 338 59 290 59 z "},"c":{"ha":788,"x_min":104,"x_max":664,"o":"m 354 -13 q 163 57 222 -13 q 116 256 104 126 l 141 495 q 230 699 155 629 q 434 770 306 770 q 610 711 556 770 q 659 532 664 653 l 578 525 q 547 658 582 621 q 427 696 513 696 q 285 647 336 696 q 223 496 235 598 l 198 256 q 229 109 188 157 q 361 62 269 62 q 489 93 448 62 q 544 207 530 125 l 625 201 q 541 39 607 91 q 354 -13 475 -13 z "},"ç":{"ha":788,"x_min":104,"x_max":664,"o":"m 104 0 m 354 -13 q 163 57 222 -13 q 116 256 104 126 l 141 495 q 230 699 155 629 q 434 770 306 770 q 610 711 556 770 q 659 532 664 653 l 578 525 q 547 658 582 621 q 427 696 513 696 q 285 647 336 696 q 223 496 235 598 l 198 256 q 229 109 188 157 q 361 62 269 62 q 489 93 448 62 q 544 207 530 125 l 625 201 q 541 39 607 91 q 354 -13 475 -13 m 312 0 l 331 37 q 424 -17 391 24 q 449 -122 456 -58 q 393 -233 442 -194 q 280 -271 345 -271 q 177 -241 215 -271 q 141 -136 139 -210 l 217 -128 q 232 -185 217 -168 q 283 -202 246 -202 q 346 -183 326 -202 q 372 -114 366 -164 q 364 -39 378 -64 q 312 0 350 -14 z "},"ć":{"ha":788,"x_min":104,"x_max":664,"o":"m 104 0 m 354 -13 q 163 57 222 -13 q 116 256 104 126 l 141 495 q 230 699 155 629 q 434 770 306 770 q 610 711 556 770 q 659 532 664 653 l 578 525 q 547 658 582 621 q 427 696 513 696 q 285 647 336 696 q 223 496 235 598 l 198 256 q 229 109 188 157 q 361 62 269 62 q 489 93 448 62 q 544 207 530 125 l 625 201 q 541 39 607 91 q 354 -13 475 -13 m 350 884 l 524 1136 l 649 1136 l 420 884 l 350 884 z "},"ĉ":{"ha":788,"x_min":104,"x_max":672,"o":"m 104 0 m 354 -13 q 163 57 222 -13 q 116 256 104 126 l 141 495 q 230 699 155 629 q 434 770 306 770 q 610 711 556 770 q 659 532 664 653 l 578 525 q 547 658 582 621 q 427 696 513 696 q 285 647 336 696 q 223 496 235 598 l 198 256 q 229 109 188 157 q 361 62 269 62 q 489 93 448 62 q 544 207 530 125 l 625 201 q 541 39 607 91 q 354 -13 475 -13 m 270 908 l 239 955 l 447 1158 l 505 1158 l 672 955 l 633 908 l 468 1077 l 270 908 z "},"ċ":{"ha":788,"x_min":104,"x_max":664,"o":"m 104 0 m 354 -13 q 163 57 222 -13 q 116 256 104 126 l 141 495 q 230 699 155 629 q 434 770 306 770 q 610 711 556 770 q 659 532 664 653 l 578 525 q 547 658 582 621 q 427 696 513 696 q 285 647 336 696 q 223 496 235 598 l 198 256 q 229 109 188 157 q 361 62 269 62 q 489 93 448 62 q 544 207 530 125 l 625 201 q 541 39 607 91 q 354 -13 475 -13 m 443 914 q 392 926 412 914 q 376 968 372 937 l 376 977 q 402 1021 380 1009 q 456 1034 424 1034 q 507 1021 487 1034 q 523 977 527 1009 l 523 968 q 497 926 519 937 q 443 914 475 914 z "},"č":{"ha":788,"x_min":104,"x_max":678,"o":"m 104 0 m 354 -13 q 163 57 222 -13 q 116 256 104 126 l 141 495 q 230 699 155 629 q 434 770 306 770 q 610 711 556 770 q 659 532 664 653 l 578 525 q 547 658 582 621 q 427 696 513 696 q 285 647 336 696 q 223 496 235 598 l 198 256 q 229 109 188 157 q 361 62 269 62 q 489 93 448 62 q 544 207 530 125 l 625 201 q 541 39 607 91 q 354 -13 475 -13 m 412 889 l 245 1092 l 285 1138 l 449 970 l 648 1138 l 678 1092 l 471 889 l 412 889 z "},"d":{"ha":788,"x_min":104,"x_max":698,"o":"m 321 64 q 427 93 379 64 q 530 187 476 122 l 578 649 q 506 686 545 673 q 423 698 466 698 q 284 647 333 698 q 223 495 235 596 l 198 258 q 218 111 188 158 q 321 64 249 64 m 503 106 q 413 19 467 51 q 294 -13 359 -13 q 150 59 196 -13 q 117 260 104 130 l 141 497 q 231 697 155 624 q 428 770 307 770 q 512 759 471 770 q 587 731 553 749 l 616 1010 l 698 1010 l 592 0 l 510 0 l 521 106 l 503 106 z "},"ď":{"ha":788,"x_min":104,"x_max":1029,"o":"m 104 0 m 321 64 q 427 93 379 64 q 530 187 476 122 l 578 649 q 506 686 545 673 q 423 698 466 698 q 284 647 333 698 q 223 495 235 596 l 198 258 q 218 111 188 158 q 321 64 249 64 m 503 106 q 413 19 467 51 q 294 -13 359 -13 q 150 59 196 -13 q 117 260 104 130 l 141 497 q 231 697 155 624 q 428 770 307 770 q 512 759 471 770 q 587 731 553 749 l 616 1010 l 698 1010 l 592 0 l 510 0 l 521 106 l 503 106 m 794 931 l 914 1263 l 1029 1263 l 856 931 l 794 931 z "},"e":{"ha":788,"x_min":102,"x_max":658,"o":"m 607 155 q 511 28 571 68 q 343 -13 451 -13 q 162 56 222 -13 q 117 259 102 125 l 141 495 q 234 701 157 633 q 423 770 311 770 q 597 700 537 770 q 643 486 658 630 l 630 366 l 210 366 l 198 258 q 226 107 188 153 q 351 61 264 61 q 466 88 427 61 q 532 179 505 115 l 607 155 m 223 494 l 217 434 l 556 434 l 561 482 q 536 646 573 595 q 414 697 499 697 q 283 647 331 697 q 223 494 235 597 z "},"è":{"ha":788,"x_min":102,"x_max":658,"o":"m 102 0 m 607 155 q 511 28 571 68 q 343 -13 451 -13 q 162 56 222 -13 q 117 259 102 125 l 141 495 q 234 701 157 633 q 423 770 311 770 q 597 700 537 770 q 643 486 658 630 l 630 366 l 210 366 l 198 258 q 226 107 188 153 q 351 61 264 61 q 466 88 427 61 q 532 179 505 115 l 607 155 m 223 494 l 217 434 l 556 434 l 561 482 q 536 646 573 595 q 414 697 499 697 q 283 647 331 697 q 223 494 235 597 m 449 884 l 274 1136 l 399 1136 l 520 884 l 449 884 z "},"é":{"ha":788,"x_min":102,"x_max":658,"o":"m 102 0 m 607 155 q 511 28 571 68 q 343 -13 451 -13 q 162 56 222 -13 q 117 259 102 125 l 141 495 q 234 701 157 633 q 423 770 311 770 q 597 700 537 770 q 643 486 658 630 l 630 366 l 210 366 l 198 258 q 226 107 188 153 q 351 61 264 61 q 466 88 427 61 q 532 179 505 115 l 607 155 m 223 494 l 217 434 l 556 434 l 561 482 q 536 646 573 595 q 414 697 499 697 q 283 647 331 697 q 223 494 235 597 m 342 884 l 516 1136 l 641 1136 l 413 884 l 342 884 z "},"ê":{"ha":788,"x_min":102,"x_max":658,"o":"m 102 0 m 607 155 q 511 28 571 68 q 343 -13 451 -13 q 162 56 222 -13 q 117 259 102 125 l 141 495 q 234 701 157 633 q 423 770 311 770 q 597 700 537 770 q 643 486 658 630 l 630 366 l 210 366 l 198 258 q 226 107 188 153 q 351 61 264 61 q 466 88 427 61 q 532 179 505 115 l 607 155 m 223 494 l 217 434 l 556 434 l 561 482 q 536 646 573 595 q 414 697 499 697 q 283 647 331 697 q 223 494 235 597 m 256 908 l 225 955 l 433 1158 l 491 1158 l 658 955 l 619 908 l 455 1077 l 256 908 z "},"ë":{"ha":788,"x_min":102,"x_max":658,"o":"m 102 0 m 607 155 q 511 28 571 68 q 343 -13 451 -13 q 162 56 222 -13 q 117 259 102 125 l 141 495 q 234 701 157 633 q 423 770 311 770 q 597 700 537 770 q 643 486 658 630 l 630 366 l 210 366 l 198 258 q 226 107 188 153 q 351 61 264 61 q 466 88 427 61 q 532 179 505 115 l 607 155 m 223 494 l 217 434 l 556 434 l 561 482 q 536 646 573 595 q 414 697 499 697 q 283 647 331 697 q 223 494 235 597 m 322 914 q 279 926 294 914 q 268 968 264 937 l 268 977 q 289 1022 271 1010 q 335 1034 307 1034 q 376 1022 361 1034 q 388 977 391 1010 l 388 968 q 366 926 384 937 q 322 914 347 914 m 554 914 q 513 926 528 914 q 501 968 497 937 l 501 977 q 523 1022 505 1010 q 567 1034 540 1034 q 610 1022 595 1034 q 621 977 625 1010 l 621 968 q 599 926 617 937 q 554 914 581 914 z "},"ē":{"ha":788,"x_min":102,"x_max":658,"o":"m 102 0 m 607 155 q 511 28 571 68 q 343 -13 451 -13 q 162 56 222 -13 q 117 259 102 125 l 141 495 q 234 701 157 633 q 423 770 311 770 q 597 700 537 770 q 643 486 658 630 l 630 366 l 210 366 l 198 258 q 226 107 188 153 q 351 61 264 61 q 466 88 427 61 q 532 179 505 115 l 607 155 m 223 494 l 217 434 l 556 434 l 561 482 q 536 646 573 595 q 414 697 499 697 q 283 647 331 697 q 223 494 235 597 m 246 975 l 254 1049 l 650 1049 l 643 975 l 246 975 z "},"ĕ":{"ha":788,"x_min":102,"x_max":691,"o":"m 102 0 m 607 155 q 511 28 571 68 q 343 -13 451 -13 q 162 56 222 -13 q 117 259 102 125 l 141 495 q 234 701 157 633 q 423 770 311 770 q 597 700 537 770 q 643 486 658 630 l 630 366 l 210 366 l 198 258 q 226 107 188 153 q 351 61 264 61 q 466 88 427 61 q 532 179 505 115 l 607 155 m 223 494 l 217 434 l 556 434 l 561 482 q 536 646 573 595 q 414 697 499 697 q 283 647 331 697 q 223 494 235 597 m 433 875 q 272 941 326 875 q 231 1136 218 1008 l 312 1136 q 333 990 302 1034 q 441 946 365 946 q 557 990 516 946 q 610 1136 597 1034 l 691 1136 q 608 941 676 1008 q 433 875 540 875 z "},"ė":{"ha":788,"x_min":102,"x_max":658,"o":"m 102 0 m 607 155 q 511 28 571 68 q 343 -13 451 -13 q 162 56 222 -13 q 117 259 102 125 l 141 495 q 234 701 157 633 q 423 770 311 770 q 597 700 537 770 q 643 486 658 630 l 630 366 l 210 366 l 198 258 q 226 107 188 153 q 351 61 264 61 q 466 88 427 61 q 532 179 505 115 l 607 155 m 223 494 l 217 434 l 556 434 l 561 482 q 536 646 573 595 q 414 697 499 697 q 283 647 331 697 q 223 494 235 597 m 438 914 q 387 926 407 914 q 371 968 367 937 l 371 977 q 397 1021 375 1009 q 451 1034 419 1034 q 502 1021 482 1034 q 518 977 521 1009 l 518 968 q 492 926 514 937 q 438 914 470 914 z "},"ę":{"ha":788,"x_min":102,"x_max":658,"o":"m 102 0 m 607 155 q 511 28 571 68 q 343 -13 451 -13 q 162 56 222 -13 q 117 259 102 125 l 141 495 q 234 701 157 633 q 423 770 311 770 q 597 700 537 770 q 643 486 658 630 l 630 366 l 210 366 l 198 258 q 226 107 188 153 q 351 61 264 61 q 466 88 427 61 q 532 179 505 115 l 607 155 m 223 494 l 217 434 l 556 434 l 561 482 q 536 646 573 595 q 414 697 499 697 q 283 647 331 697 q 223 494 235 597 m 461 -271 q 359 -232 396 -271 q 327 -129 321 -193 q 376 -27 333 -73 q 475 47 418 20 l 492 29 q 430 -35 451 0 q 405 -106 409 -69 q 419 -174 400 -153 q 480 -194 437 -194 q 523 -192 500 -194 q 568 -184 547 -189 l 559 -260 q 510 -268 538 -265 q 461 -271 482 -271 z "},"ě":{"ha":788,"x_min":102,"x_max":673,"o":"m 102 0 m 607 155 q 511 28 571 68 q 343 -13 451 -13 q 162 56 222 -13 q 117 259 102 125 l 141 495 q 234 701 157 633 q 423 770 311 770 q 597 700 537 770 q 643 486 658 630 l 630 366 l 210 366 l 198 258 q 226 107 188 153 q 351 61 264 61 q 466 88 427 61 q 532 179 505 115 l 607 155 m 223 494 l 217 434 l 556 434 l 561 482 q 536 646 573 595 q 414 697 499 697 q 283 647 331 697 q 223 494 235 597 m 407 889 l 240 1092 l 280 1138 l 444 970 l 643 1138 l 673 1092 l 466 889 l 407 889 z "},"f":{"ha":788,"x_min":135,"x_max":710,"o":"m 221 -253 l 319 683 l 135 683 l 143 758 l 327 758 l 332 808 q 410 963 343 908 q 564 1019 476 1019 q 645 1009 605 1019 q 710 987 684 1000 l 687 917 q 626 936 659 929 q 558 943 593 943 q 461 912 500 943 q 415 811 423 880 l 410 758 l 678 758 l 670 683 l 403 683 l 304 -253 l 221 -253 z "},"g":{"ha":788,"x_min":20,"x_max":699,"o":"m 639 -62 q 563 -215 628 -164 q 408 -265 499 -265 l 221 -265 q 73 -215 126 -265 q 32 -63 20 -164 q 68 36 38 -1 q 146 78 97 73 l 148 92 q 94 129 112 98 q 82 211 76 159 q 122 314 88 273 q 216 361 157 356 l 217 372 q 160 427 174 389 q 150 511 145 465 l 155 559 q 229 701 164 645 q 399 758 293 758 l 699 758 l 692 681 l 534 701 l 533 687 q 590 631 573 673 q 602 547 606 588 l 597 500 q 528 364 588 417 q 350 312 468 312 l 225 312 q 174 290 193 312 q 150 216 155 269 q 165 145 145 168 q 227 121 184 121 l 468 121 q 601 76 553 121 q 639 -62 649 30 m 361 379 q 470 410 431 379 q 516 505 510 441 l 521 549 q 496 653 529 621 q 393 686 462 686 q 283 653 322 686 q 236 549 244 621 l 231 505 q 258 410 225 441 q 361 379 290 379 m 226 -194 l 424 -194 q 520 -164 485 -194 q 561 -68 554 -133 q 543 16 567 -10 q 470 43 519 43 l 125 43 l 115 -44 q 136 -156 107 -117 q 226 -194 164 -194 z "},"ĝ":{"ha":788,"x_min":20,"x_max":699,"o":"m 20 0 m 639 -62 q 563 -215 628 -164 q 408 -265 499 -265 l 221 -265 q 73 -215 126 -265 q 32 -63 20 -164 q 68 36 38 -1 q 146 78 97 73 l 148 92 q 94 129 112 98 q 82 211 76 159 q 122 314 88 273 q 216 361 157 356 l 217 372 q 160 427 174 389 q 150 511 145 465 l 155 559 q 229 701 164 645 q 399 758 293 758 l 699 758 l 692 681 l 534 701 l 533 687 q 590 631 573 673 q 602 547 606 588 l 597 500 q 528 364 588 417 q 350 312 468 312 l 225 312 q 174 290 193 312 q 150 216 155 269 q 165 145 145 168 q 227 121 184 121 l 468 121 q 601 76 553 121 q 639 -62 649 30 m 361 379 q 470 410 431 379 q 516 505 510 441 l 521 549 q 496 653 529 621 q 393 686 462 686 q 283 653 322 686 q 236 549 244 621 l 231 505 q 258 410 225 441 q 361 379 290 379 m 226 -194 l 424 -194 q 520 -164 485 -194 q 561 -68 554 -133 q 543 16 567 -10 q 470 43 519 43 l 125 43 l 115 -44 q 136 -156 107 -117 q 226 -194 164 -194 m 247 908 l 216 955 l 424 1158 l 482 1158 l 649 955 l 610 908 l 446 1077 l 247 908 z "},"ğ":{"ha":788,"x_min":20,"x_max":699,"o":"m 20 0 m 639 -62 q 563 -215 628 -164 q 408 -265 499 -265 l 221 -265 q 73 -215 126 -265 q 32 -63 20 -164 q 68 36 38 -1 q 146 78 97 73 l 148 92 q 94 129 112 98 q 82 211 76 159 q 122 314 88 273 q 216 361 157 356 l 217 372 q 160 427 174 389 q 150 511 145 465 l 155 559 q 229 701 164 645 q 399 758 293 758 l 699 758 l 692 681 l 534 701 l 533 687 q 590 631 573 673 q 602 547 606 588 l 597 500 q 528 364 588 417 q 350 312 468 312 l 225 312 q 174 290 193 312 q 150 216 155 269 q 165 145 145 168 q 227 121 184 121 l 468 121 q 601 76 553 121 q 639 -62 649 30 m 361 379 q 470 410 431 379 q 516 505 510 441 l 521 549 q 496 653 529 621 q 393 686 462 686 q 283 653 322 686 q 236 549 244 621 l 231 505 q 258 410 225 441 q 361 379 290 379 m 226 -194 l 424 -194 q 520 -164 485 -194 q 561 -68 554 -133 q 543 16 567 -10 q 470 43 519 43 l 125 43 l 115 -44 q 136 -156 107 -117 q 226 -194 164 -194 m 433 875 q 272 941 326 875 q 231 1136 218 1008 l 312 1136 q 333 990 302 1034 q 441 946 365 946 q 557 990 516 946 q 610 1136 597 1034 l 691 1136 q 608 941 676 1008 q 433 875 540 875 z "},"ġ":{"ha":788,"x_min":20,"x_max":699,"o":"m 20 0 m 639 -62 q 563 -215 628 -164 q 408 -265 499 -265 l 221 -265 q 73 -215 126 -265 q 32 -63 20 -164 q 68 36 38 -1 q 146 78 97 73 l 148 92 q 94 129 112 98 q 82 211 76 159 q 122 314 88 273 q 216 361 157 356 l 217 372 q 160 427 174 389 q 150 511 145 465 l 155 559 q 229 701 164 645 q 399 758 293 758 l 699 758 l 692 681 l 534 701 l 533 687 q 590 631 573 673 q 602 547 606 588 l 597 500 q 528 364 588 417 q 350 312 468 312 l 225 312 q 174 290 193 312 q 150 216 155 269 q 165 145 145 168 q 227 121 184 121 l 468 121 q 601 76 553 121 q 639 -62 649 30 m 361 379 q 470 410 431 379 q 516 505 510 441 l 521 549 q 496 653 529 621 q 393 686 462 686 q 283 653 322 686 q 236 549 244 621 l 231 505 q 258 410 225 441 q 361 379 290 379 m 226 -194 l 424 -194 q 520 -164 485 -194 q 561 -68 554 -133 q 543 16 567 -10 q 470 43 519 43 l 125 43 l 115 -44 q 136 -156 107 -117 q 226 -194 164 -194 m 437 914 q 386 926 405 914 q 370 968 366 937 l 370 977 q 396 1021 374 1009 q 449 1034 418 1034 q 501 1021 481 1034 q 516 977 520 1009 l 516 968 q 491 926 513 937 q 437 914 468 914 z "},"ģ":{"ha":788,"x_min":20,"x_max":699,"o":"m 20 0 m 639 -62 q 563 -215 628 -164 q 408 -265 499 -265 l 221 -265 q 73 -215 126 -265 q 32 -63 20 -164 q 68 36 38 -1 q 146 78 97 73 l 148 92 q 94 129 112 98 q 82 211 76 159 q 122 314 88 273 q 216 361 157 356 l 217 372 q 160 427 174 389 q 150 511 145 465 l 155 559 q 229 701 164 645 q 399 758 293 758 l 699 758 l 692 681 l 534 701 l 533 687 q 590 631 573 673 q 602 547 606 588 l 597 500 q 528 364 588 417 q 350 312 468 312 l 225 312 q 174 290 193 312 q 150 216 155 269 q 165 145 145 168 q 227 121 184 121 l 468 121 q 601 76 553 121 q 639 -62 649 30 m 361 379 q 470 410 431 379 q 516 505 510 441 l 521 549 q 496 653 529 621 q 393 686 462 686 q 283 653 322 686 q 236 549 244 621 l 231 505 q 258 410 225 441 q 361 379 290 379 m 226 -194 l 424 -194 q 520 -164 485 -194 q 561 -68 554 -133 q 543 16 567 -10 q 470 43 519 43 l 125 43 l 115 -44 q 136 -156 107 -117 q 226 -194 164 -194 m 359 884 l 539 1136 l 610 1136 l 484 884 l 359 884 z "},"h":{"ha":788,"x_min":90,"x_max":659,"o":"m 90 0 l 196 1010 l 278 1010 l 240 649 l 259 649 q 348 738 295 706 q 472 770 402 770 q 612 706 564 770 q 649 537 659 643 l 592 0 l 510 0 l 564 520 q 543 648 573 602 q 448 693 513 693 q 338 664 391 693 q 231 568 285 635 l 172 0 l 90 0 z "},"ĥ":{"ha":788,"x_min":57,"x_max":659,"o":"m 57 0 m 90 0 l 196 1010 l 278 1010 l 240 649 l 259 649 q 348 738 295 706 q 472 770 402 770 q 612 706 564 770 q 649 537 659 643 l 592 0 l 510 0 l 564 520 q 543 648 573 602 q 448 693 513 693 q 338 664 391 693 q 231 568 285 635 l 172 0 l 90 0 m 88 1160 l 57 1207 l 265 1410 l 323 1410 l 490 1207 l 451 1160 l 287 1330 l 88 1160 z "},"i":{"ha":788,"x_min":90,"x_max":600,"o":"m 90 0 m 90 0 l 97 74 l 307 74 l 371 683 l 162 683 l 169 758 l 462 758 l 390 74 l 600 74 l 592 0 l 90 0 m 438 914 q 387 926 407 914 q 371 968 367 937 l 371 977 q 397 1021 375 1009 q 451 1034 419 1034 q 502 1021 482 1034 q 518 977 521 1009 l 518 968 q 492 926 514 937 q 438 914 470 914 z "},"ì":{"ha":788,"x_min":90,"x_max":600,"o":"m 90 0 m 90 0 l 97 74 l 307 74 l 371 683 l 162 683 l 169 758 l 462 758 l 390 74 l 600 74 l 592 0 l 90 0 m 451 884 l 275 1136 l 400 1136 l 521 884 l 451 884 z "},"í":{"ha":788,"x_min":90,"x_max":638,"o":"m 90 0 m 90 0 l 97 74 l 307 74 l 371 683 l 162 683 l 169 758 l 462 758 l 390 74 l 600 74 l 592 0 l 90 0 m 338 884 l 513 1136 l 638 1136 l 409 884 l 338 884 z "},"î":{"ha":788,"x_min":90,"x_max":657,"o":"m 90 0 m 90 0 l 97 74 l 307 74 l 371 683 l 162 683 l 169 758 l 462 758 l 390 74 l 600 74 l 592 0 l 90 0 m 255 908 l 223 955 l 432 1158 l 490 1158 l 657 955 l 617 908 l 453 1077 l 255 908 z "},"ï":{"ha":788,"x_min":90,"x_max":624,"o":"m 90 0 m 90 0 l 97 74 l 307 74 l 371 683 l 162 683 l 169 758 l 462 758 l 390 74 l 600 74 l 592 0 l 90 0 m 321 914 q 278 926 293 914 q 266 968 263 937 l 266 977 q 288 1022 270 1010 q 333 1034 306 1034 q 375 1022 360 1034 q 386 977 390 1010 l 386 968 q 364 926 383 937 q 321 914 346 914 m 553 914 q 511 926 527 914 q 500 968 496 937 l 500 977 q 521 1022 504 1010 q 566 1034 539 1034 q 609 1022 593 1034 q 620 977 624 1010 l 620 968 q 598 926 616 937 q 553 914 580 914 z "},"ĩ":{"ha":788,"x_min":90,"x_max":669,"o":"m 90 0 m 90 0 l 97 74 l 307 74 l 371 683 l 162 683 l 169 758 l 462 758 l 390 74 l 600 74 l 592 0 l 90 0 m 524 896 q 465 920 487 896 q 423 996 442 944 q 395 1059 408 1039 q 364 1078 381 1078 q 318 1041 336 1078 q 293 923 301 1004 l 292 909 l 227 909 l 229 928 q 277 1090 240 1032 q 374 1148 314 1148 q 435 1125 413 1148 q 475 1053 457 1102 q 504 987 491 1009 q 533 966 516 966 q 578 1003 561 966 q 604 1121 596 1040 l 605 1135 l 669 1135 l 668 1116 q 620 955 657 1013 q 524 896 583 896 z "},"ī":{"ha":788,"x_min":90,"x_max":649,"o":"m 90 0 m 90 0 l 97 74 l 307 74 l 371 683 l 162 683 l 169 758 l 462 758 l 390 74 l 600 74 l 592 0 l 90 0 m 245 975 l 253 1049 l 649 1049 l 641 975 l 245 975 z "},"ĭ":{"ha":788,"x_min":90,"x_max":691,"o":"m 90 0 m 90 0 l 97 74 l 307 74 l 371 683 l 162 683 l 169 758 l 462 758 l 390 74 l 600 74 l 592 0 l 90 0 m 433 875 q 272 941 326 875 q 231 1136 218 1008 l 312 1136 q 333 990 302 1034 q 441 946 365 946 q 557 990 516 946 q 610 1136 597 1034 l 691 1136 q 608 941 676 1008 q 433 875 540 875 z "},"į":{"ha":788,"x_min":90,"x_max":600,"o":"m 90 0 m 90 0 l 97 74 l 307 74 l 371 683 l 162 683 l 169 758 l 462 758 l 390 74 l 600 74 l 592 0 l 90 0 m 438 914 q 387 926 407 914 q 371 968 367 937 l 371 977 q 397 1021 375 1009 q 451 1034 419 1034 q 502 1021 482 1034 q 518 977 521 1009 l 518 968 q 492 926 514 937 q 438 914 470 914 m 399 -271 q 297 -232 335 -271 q 265 -129 259 -193 q 314 -27 271 -73 q 413 47 356 20 l 431 29 q 368 -35 389 0 q 343 -106 347 -69 q 357 -174 338 -153 q 418 -194 375 -194 q 461 -192 438 -194 q 506 -184 485 -189 l 497 -260 q 448 -268 476 -265 q 399 -271 420 -271 z "},"j":{"ha":788,"x_min":64,"x_max":621,"o":"m 64 0 m 220 -263 q 141 -256 181 -263 q 64 -234 102 -249 l 88 -154 q 158 -176 125 -169 q 223 -183 192 -183 q 348 -138 303 -183 q 404 3 394 -93 l 476 683 l 183 683 l 191 758 l 567 758 l 486 -6 q 400 -197 473 -131 q 220 -263 327 -263 m 538 914 q 487 926 506 914 q 471 968 467 937 l 471 977 q 497 1021 475 1009 q 551 1034 519 1034 q 602 1021 582 1034 q 617 977 621 1009 l 617 968 q 592 926 614 937 q 538 914 569 914 z "},"ĵ":{"ha":788,"x_min":64,"x_max":725,"o":"m 64 0 m 220 -263 q 141 -256 181 -263 q 64 -234 102 -249 l 88 -154 q 158 -176 125 -169 q 223 -183 192 -183 q 348 -138 303 -183 q 404 3 394 -93 l 476 683 l 183 683 l 191 758 l 567 758 l 486 -6 q 400 -197 473 -131 q 220 -263 327 -263 m 323 908 l 292 955 l 500 1158 l 558 1158 l 725 955 l 686 908 l 521 1077 l 323 908 z "},"k":{"ha":788,"x_min":140,"x_max":688,"o":"m 261 362 l 222 0 l 140 0 l 246 1010 l 328 1010 l 268 434 l 347 434 l 591 758 l 688 758 l 412 403 l 606 0 l 514 0 l 343 362 l 261 362 z "},"ķ":{"ha":788,"x_min":140,"x_max":688,"o":"m 140 0 m 261 362 l 222 0 l 140 0 l 246 1010 l 328 1010 l 268 434 l 347 434 l 591 758 l 688 758 l 412 403 l 606 0 l 514 0 l 343 362 l 261 362 m 164 -379 l 290 -126 l 415 -126 l 235 -379 l 164 -379 z "},"l":{"ha":788,"x_min":91,"x_max":601,"o":"m 91 0 l 98 74 l 308 74 l 399 936 l 189 936 l 197 1010 l 490 1010 l 391 74 l 601 74 l 593 0 l 91 0 z "},"ĺ":{"ha":788,"x_min":91,"x_max":652,"o":"m 91 0 m 91 0 l 98 74 l 308 74 l 399 936 l 189 936 l 197 1010 l 490 1010 l 391 74 l 601 74 l 593 0 l 91 0 m 352 1136 l 527 1389 l 652 1389 l 423 1136 l 352 1136 z "},"ļ":{"ha":788,"x_min":91,"x_max":601,"o":"m 91 0 m 91 0 l 98 74 l 308 74 l 399 936 l 189 936 l 197 1010 l 490 1010 l 391 74 l 601 74 l 593 0 l 91 0 m 143 -379 l 269 -126 l 394 -126 l 213 -379 l 143 -379 z "},"ľ":{"ha":788,"x_min":91,"x_max":826,"o":"m 91 0 m 91 0 l 98 74 l 308 74 l 399 936 l 189 936 l 197 1010 l 490 1010 l 391 74 l 601 74 l 593 0 l 91 0 m 591 931 l 711 1263 l 826 1263 l 653 931 l 591 931 z "},"m":{"ha":788,"x_min":42,"x_max":711,"o":"m 182 593 l 120 0 l 42 0 l 121 758 l 199 758 l 191 668 l 207 668 q 263 743 230 716 q 337 770 297 770 q 407 744 380 770 q 441 668 434 717 l 458 668 q 518 743 481 716 q 600 770 554 770 q 684 720 657 770 q 701 580 711 670 l 640 0 l 562 0 l 621 566 q 616 666 629 634 q 567 698 602 698 q 508 672 539 698 q 442 593 476 646 l 380 0 l 303 0 l 362 566 q 356 666 370 634 q 307 698 342 698 q 247 672 279 698 q 182 593 216 646 z "},"n":{"ha":788,"x_min":90,"x_max":660,"o":"m 90 0 l 169 758 l 251 758 l 240 649 l 259 649 q 352 738 294 706 q 471 770 409 770 q 612 707 564 770 q 649 535 660 644 l 592 0 l 510 0 l 564 519 q 542 648 573 604 q 446 692 511 692 q 336 663 390 692 q 232 572 282 634 l 172 0 l 90 0 z "},"ñ":{"ha":788,"x_min":90,"x_max":691,"o":"m 90 0 m 90 0 l 169 758 l 251 758 l 240 649 l 259 649 q 352 738 294 706 q 471 770 409 770 q 612 707 564 770 q 649 535 660 644 l 592 0 l 510 0 l 564 519 q 542 648 573 604 q 446 692 511 692 q 336 663 390 692 q 232 572 282 634 l 172 0 l 90 0 m 545 896 q 486 920 509 896 q 444 996 463 944 q 416 1059 429 1039 q 385 1078 403 1078 q 340 1041 357 1078 q 314 923 322 1004 l 313 909 l 249 909 l 250 928 q 299 1090 261 1032 q 395 1148 336 1148 q 456 1125 434 1148 q 496 1053 479 1102 q 525 987 513 1009 q 554 966 538 966 q 600 1003 582 966 q 625 1121 617 1040 l 626 1135 l 691 1135 l 689 1116 q 641 955 678 1013 q 545 896 605 896 z "},"ń":{"ha":788,"x_min":90,"x_max":660,"o":"m 90 0 m 90 0 l 169 758 l 251 758 l 240 649 l 259 649 q 352 738 294 706 q 471 770 409 770 q 612 707 564 770 q 649 535 660 644 l 592 0 l 510 0 l 564 519 q 542 648 573 604 q 446 692 511 692 q 336 663 390 692 q 232 572 282 634 l 172 0 l 90 0 m 360 884 l 534 1136 l 659 1136 l 431 884 l 360 884 z "},"ņ":{"ha":788,"x_min":90,"x_max":660,"o":"m 90 0 m 90 0 l 169 758 l 251 758 l 240 649 l 259 649 q 352 738 294 706 q 471 770 409 770 q 612 707 564 770 q 649 535 660 644 l 592 0 l 510 0 l 564 519 q 542 648 573 604 q 446 692 511 692 q 336 663 390 692 q 232 572 282 634 l 172 0 l 90 0 m 168 -379 l 294 -126 l 419 -126 l 239 -379 l 168 -379 z "},"ň":{"ha":788,"x_min":90,"x_max":693,"o":"m 90 0 m 90 0 l 169 758 l 251 758 l 240 649 l 259 649 q 352 738 294 706 q 471 770 409 770 q 612 707 564 770 q 649 535 660 644 l 592 0 l 510 0 l 564 519 q 542 648 573 604 q 446 692 511 692 q 336 663 390 692 q 232 572 282 634 l 172 0 l 90 0 m 427 889 l 260 1092 l 301 1138 l 465 970 l 663 1138 l 693 1092 l 486 889 l 427 889 z "},"o":{"ha":788,"x_min":104,"x_max":658,"o":"m 340 -13 q 161 57 218 -13 q 116 258 104 128 l 141 495 q 229 699 155 628 q 423 770 302 770 q 600 699 543 770 q 644 495 658 628 l 619 258 q 533 57 606 128 q 340 -13 461 -13 m 347 62 q 480 109 433 62 q 537 256 527 157 l 562 495 q 537 646 573 597 q 414 696 500 696 q 282 646 328 696 q 223 495 235 597 l 198 256 q 225 109 188 157 q 347 62 261 62 z "},"ò":{"ha":788,"x_min":104,"x_max":658,"o":"m 104 0 m 340 -13 q 161 57 218 -13 q 116 258 104 128 l 141 495 q 229 699 155 628 q 423 770 302 770 q 600 699 543 770 q 644 495 658 628 l 619 258 q 533 57 606 128 q 340 -13 461 -13 m 347 62 q 480 109 433 62 q 537 256 527 157 l 562 495 q 537 646 573 597 q 414 696 500 696 q 282 646 328 696 q 223 495 235 597 l 198 256 q 225 109 188 157 q 347 62 261 62 m 448 884 l 273 1136 l 398 1136 l 519 884 l 448 884 z "},"ó":{"ha":788,"x_min":104,"x_max":658,"o":"m 104 0 m 340 -13 q 161 57 218 -13 q 116 258 104 128 l 141 495 q 229 699 155 628 q 423 770 302 770 q 600 699 543 770 q 644 495 658 628 l 619 258 q 533 57 606 128 q 340 -13 461 -13 m 347 62 q 480 109 433 62 q 537 256 527 157 l 562 495 q 537 646 573 597 q 414 696 500 696 q 282 646 328 696 q 223 495 235 597 l 198 256 q 225 109 188 157 q 347 62 261 62 m 338 884 l 513 1136 l 638 1136 l 409 884 l 338 884 z "},"ô":{"ha":788,"x_min":104,"x_max":658,"o":"m 104 0 m 340 -13 q 161 57 218 -13 q 116 258 104 128 l 141 495 q 229 699 155 628 q 423 770 302 770 q 600 699 543 770 q 644 495 658 628 l 619 258 q 533 57 606 128 q 340 -13 461 -13 m 347 62 q 480 109 433 62 q 537 256 527 157 l 562 495 q 537 646 573 597 q 414 696 500 696 q 282 646 328 696 q 223 495 235 597 l 198 256 q 225 109 188 157 q 347 62 261 62 m 255 908 l 223 955 l 432 1158 l 490 1158 l 657 955 l 617 908 l 453 1077 l 255 908 z "},"õ":{"ha":788,"x_min":104,"x_max":669,"o":"m 104 0 m 340 -13 q 161 57 218 -13 q 116 258 104 128 l 141 495 q 229 699 155 628 q 423 770 302 770 q 600 699 543 770 q 644 495 658 628 l 619 258 q 533 57 606 128 q 340 -13 461 -13 m 347 62 q 480 109 433 62 q 537 256 527 157 l 562 495 q 537 646 573 597 q 414 696 500 696 q 282 646 328 696 q 223 495 235 597 l 198 256 q 225 109 188 157 q 347 62 261 62 m 524 896 q 465 920 487 896 q 423 996 442 944 q 395 1059 408 1039 q 364 1078 381 1078 q 318 1041 336 1078 q 293 923 301 1004 l 292 909 l 227 909 l 229 928 q 277 1090 240 1032 q 374 1148 314 1148 q 435 1125 413 1148 q 475 1053 457 1102 q 504 987 491 1009 q 533 966 516 966 q 578 1003 561 966 q 604 1121 596 1040 l 605 1135 l 669 1135 l 668 1116 q 620 955 657 1013 q 524 896 583 896 z "},"ö":{"ha":788,"x_min":104,"x_max":658,"o":"m 104 0 m 340 -13 q 161 57 218 -13 q 116 258 104 128 l 141 495 q 229 699 155 628 q 423 770 302 770 q 600 699 543 770 q 644 495 658 628 l 619 258 q 533 57 606 128 q 340 -13 461 -13 m 347 62 q 480 109 433 62 q 537 256 527 157 l 562 495 q 537 646 573 597 q 414 696 500 696 q 282 646 328 696 q 223 495 235 597 l 198 256 q 225 109 188 157 q 347 62 261 62 m 321 914 q 278 926 293 914 q 266 968 263 937 l 266 977 q 288 1022 270 1010 q 333 1034 306 1034 q 375 1022 360 1034 q 386 977 390 1010 l 386 968 q 364 926 383 937 q 321 914 346 914 m 553 914 q 511 926 527 914 q 500 968 496 937 l 500 977 q 521 1022 504 1010 q 566 1034 539 1034 q 609 1022 593 1034 q 620 977 624 1010 l 620 968 q 598 926 616 937 q 553 914 580 914 z "},"ō":{"ha":788,"x_min":104,"x_max":658,"o":"m 104 0 m 340 -13 q 161 57 218 -13 q 116 258 104 128 l 141 495 q 229 699 155 628 q 423 770 302 770 q 600 699 543 770 q 644 495 658 628 l 619 258 q 533 57 606 128 q 340 -13 461 -13 m 347 62 q 480 109 433 62 q 537 256 527 157 l 562 495 q 537 646 573 597 q 414 696 500 696 q 282 646 328 696 q 223 495 235 597 l 198 256 q 225 109 188 157 q 347 62 261 62 m 245 975 l 253 1049 l 649 1049 l 641 975 l 245 975 z "},"ŏ":{"ha":788,"x_min":104,"x_max":692,"o":"m 104 0 m 340 -13 q 161 57 218 -13 q 116 258 104 128 l 141 495 q 229 699 155 628 q 423 770 302 770 q 600 699 543 770 q 644 495 658 628 l 619 258 q 533 57 606 128 q 340 -13 461 -13 m 347 62 q 480 109 433 62 q 537 256 527 157 l 562 495 q 537 646 573 597 q 414 696 500 696 q 282 646 328 696 q 223 495 235 597 l 198 256 q 225 109 188 157 q 347 62 261 62 m 434 875 q 273 941 327 875 q 232 1136 220 1008 l 313 1136 q 335 990 303 1034 q 442 946 366 946 q 558 990 518 946 q 611 1136 598 1034 l 692 1136 q 609 941 677 1008 q 434 875 542 875 z "},"ő":{"ha":788,"x_min":104,"x_max":702,"o":"m 104 0 m 340 -13 q 161 57 218 -13 q 116 258 104 128 l 141 495 q 229 699 155 628 q 423 770 302 770 q 600 699 543 770 q 644 495 658 628 l 619 258 q 533 57 606 128 q 340 -13 461 -13 m 347 62 q 480 109 433 62 q 537 256 527 157 l 562 495 q 537 646 573 597 q 414 696 500 696 q 282 646 328 696 q 223 495 235 597 l 198 256 q 225 109 188 157 q 347 62 261 62 m 495 884 l 580 1136 l 702 1136 l 554 884 l 495 884 m 274 884 l 360 1136 l 482 1136 l 335 884 l 274 884 z "},"p":{"ha":788,"x_min":63,"x_max":658,"o":"m 338 59 q 478 109 429 59 q 538 263 527 159 l 563 501 q 543 646 573 600 q 441 693 513 693 q 335 664 384 693 q 232 571 285 635 l 183 111 q 256 71 216 83 q 338 59 295 59 m 335 -13 q 255 -3 298 -13 q 174 27 212 6 l 145 -253 l 63 -253 l 169 758 l 251 758 l 240 649 l 259 649 q 348 739 293 708 q 467 770 403 770 q 610 698 563 770 q 644 497 658 625 l 620 260 q 530 60 606 133 q 335 -13 455 -13 z "},"q":{"ha":788,"x_min":104,"x_max":665,"o":"m 484 -253 l 521 109 l 503 109 q 410 19 465 51 q 293 -13 356 -13 q 150 58 196 -13 q 116 255 104 129 l 141 497 q 232 698 155 625 q 431 770 309 770 q 560 752 499 770 q 665 702 621 734 l 566 -253 l 484 -253 m 321 64 q 427 93 378 64 q 530 187 477 122 l 578 654 q 508 687 547 676 q 423 698 468 698 q 285 648 336 698 q 223 495 235 597 l 199 266 q 219 114 189 164 q 321 64 249 64 z "},"r":{"ha":788,"x_min":140,"x_max":672,"o":"m 140 0 l 220 758 l 303 758 l 292 645 l 311 645 q 397 741 346 712 q 506 770 448 770 q 629 718 586 770 q 662 569 672 665 l 652 463 l 571 463 l 580 551 q 562 656 587 619 q 475 693 537 693 q 374 664 423 693 q 283 569 326 634 l 223 0 l 140 0 z "},"ŕ":{"ha":788,"x_min":140,"x_max":678,"o":"m 140 0 m 140 0 l 220 758 l 303 758 l 292 645 l 311 645 q 397 741 346 712 q 506 770 448 770 q 629 718 586 770 q 662 569 672 665 l 652 463 l 571 463 l 580 551 q 562 656 587 619 q 475 693 537 693 q 374 664 423 693 q 283 569 326 634 l 223 0 l 140 0 m 379 884 l 553 1136 l 678 1136 l 449 884 l 379 884 z "},"ŗ":{"ha":788,"x_min":32,"x_max":672,"o":"m 32 0 m 140 0 l 220 758 l 303 758 l 292 645 l 311 645 q 397 741 346 712 q 506 770 448 770 q 629 718 586 770 q 662 569 672 665 l 652 463 l 571 463 l 580 551 q 562 656 587 619 q 475 693 537 693 q 374 664 423 693 q 283 569 326 634 l 223 0 l 140 0 m 32 -379 l 158 -126 l 283 -126 l 102 -379 l 32 -379 z "},"ř":{"ha":788,"x_min":140,"x_max":712,"o":"m 140 0 m 140 0 l 220 758 l 303 758 l 292 645 l 311 645 q 397 741 346 712 q 506 770 448 770 q 629 718 586 770 q 662 569 672 665 l 652 463 l 571 463 l 580 551 q 562 656 587 619 q 475 693 537 693 q 374 664 423 693 q 283 569 326 634 l 223 0 l 140 0 m 446 889 l 279 1092 l 319 1138 l 484 970 l 682 1138 l 712 1092 l 505 889 l 446 889 z "},"s":{"ha":788,"x_min":78,"x_max":644,"o":"m 347 -13 q 203 11 275 -13 q 78 82 131 34 l 121 149 q 232 85 170 107 q 355 62 293 62 q 480 96 431 62 q 537 194 530 130 q 506 286 543 256 q 362 341 470 316 q 191 419 241 370 q 149 556 140 468 q 230 712 159 654 q 402 770 301 770 q 533 746 470 770 q 644 679 596 722 l 601 614 q 506 672 559 649 q 394 696 453 696 q 282 662 326 696 q 232 564 239 629 q 263 471 226 500 q 408 417 299 442 q 580 337 529 388 q 621 202 630 287 q 534 45 611 102 q 347 -13 457 -13 z "},"":{"ha":788,"x_min":78,"x_max":644,"o":"m 347 -13 q 203 11 275 -13 q 78 82 131 34 l 121 149 q 232 85 170 107 q 355 62 293 62 q 480 96 431 62 q 537 194 530 130 q 506 286 543 256 q 362 341 470 316 q 191 419 241 370 q 149 556 140 468 q 230 712 159 654 q 402 770 301 770 q 533 746 470 770 q 644 679 596 722 l 601 614 q 506 672 559 649 q 394 696 453 696 q 282 662 326 696 q 232 564 239 629 q 263 471 226 500 q 408 417 299 442 q 580 337 529 388 q 621 202 630 287 q 534 45 611 102 q 347 -13 457 -13 z "},"ś":{"ha":788,"x_min":78,"x_max":644,"o":"m 78 0 m 347 -13 q 203 11 275 -13 q 78 82 131 34 l 121 149 q 232 85 170 107 q 355 62 293 62 q 480 96 431 62 q 537 194 530 130 q 506 286 543 256 q 362 341 470 316 q 191 419 241 370 q 149 556 140 468 q 230 712 159 654 q 402 770 301 770 q 533 746 470 770 q 644 679 596 722 l 601 614 q 506 672 559 649 q 394 696 453 696 q 282 662 326 696 q 232 564 239 629 q 263 471 226 500 q 408 417 299 442 q 580 337 529 388 q 621 202 630 287 q 534 45 611 102 q 347 -13 457 -13 m 338 884 l 513 1136 l 638 1136 l 409 884 l 338 884 z "},"ŝ":{"ha":788,"x_min":78,"x_max":654,"o":"m 78 0 m 347 -13 q 203 11 275 -13 q 78 82 131 34 l 121 149 q 232 85 170 107 q 355 62 293 62 q 480 96 431 62 q 537 194 530 130 q 506 286 543 256 q 362 341 470 316 q 191 419 241 370 q 149 556 140 468 q 230 712 159 654 q 402 770 301 770 q 533 746 470 770 q 644 679 596 722 l 601 614 q 506 672 559 649 q 394 696 453 696 q 282 662 326 696 q 232 564 239 629 q 263 471 226 500 q 408 417 299 442 q 580 337 529 388 q 621 202 630 287 q 534 45 611 102 q 347 -13 457 -13 m 253 908 l 221 955 l 429 1158 l 487 1158 l 654 955 l 615 908 l 451 1077 l 253 908 z "},"ş":{"ha":788,"x_min":78,"x_max":644,"o":"m 78 0 m 347 -13 q 203 11 275 -13 q 78 82 131 34 l 121 149 q 232 85 170 107 q 355 62 293 62 q 480 96 431 62 q 537 194 530 130 q 506 286 543 256 q 362 341 470 316 q 191 419 241 370 q 149 556 140 468 q 230 712 159 654 q 402 770 301 770 q 533 746 470 770 q 644 679 596 722 l 601 614 q 506 672 559 649 q 394 696 453 696 q 282 662 326 696 q 232 564 239 629 q 263 471 226 500 q 408 417 299 442 q 580 337 529 388 q 621 202 630 287 q 534 45 611 102 q 347 -13 457 -13 m 306 0 l 324 37 q 417 -17 385 24 q 443 -122 449 -58 q 387 -233 436 -194 q 274 -271 338 -271 q 170 -241 208 -271 q 135 -136 133 -210 l 211 -128 q 225 -185 211 -168 q 277 -202 240 -202 q 340 -183 319 -202 q 366 -114 360 -164 q 357 -39 371 -64 q 306 0 343 -14 z "},"š":{"ha":788,"x_min":78,"x_max":669,"o":"m 78 0 m 347 -13 q 203 11 275 -13 q 78 82 131 34 l 121 149 q 232 85 170 107 q 355 62 293 62 q 480 96 431 62 q 537 194 530 130 q 506 286 543 256 q 362 341 470 316 q 191 419 241 370 q 149 556 140 468 q 230 712 159 654 q 402 770 301 770 q 533 746 470 770 q 644 679 596 722 l 601 614 q 506 672 559 649 q 394 696 453 696 q 282 662 326 696 q 232 564 239 629 q 263 471 226 500 q 408 417 299 442 q 580 337 529 388 q 621 202 630 287 q 534 45 611 102 q 347 -13 457 -13 m 403 889 l 236 1092 l 277 1138 l 441 970 l 639 1138 l 669 1092 l 462 889 l 403 889 z "},"ș":{"ha":788,"x_min":78,"x_max":644,"o":"m 78 0 m 347 -13 q 203 11 275 -13 q 78 82 131 34 l 121 149 q 232 85 170 107 q 355 62 293 62 q 480 96 431 62 q 537 194 530 130 q 506 286 543 256 q 362 341 470 316 q 191 419 241 370 q 149 556 140 468 q 230 712 159 654 q 402 770 301 770 q 533 746 470 770 q 644 679 596 722 l 601 614 q 506 672 559 649 q 394 696 453 696 q 282 662 326 696 q 232 564 239 629 q 263 471 226 500 q 408 417 299 442 q 580 337 529 388 q 621 202 630 287 q 534 45 611 102 q 347 -13 457 -13 m 148 -379 l 274 -126 l 399 -126 l 218 -379 l 148 -379 z "},"t":{"ha":788,"x_min":133,"x_max":673,"o":"m 455 -11 q 302 54 352 -11 q 264 235 251 119 l 311 683 l 133 683 l 140 758 l 318 758 l 345 1010 l 428 1010 l 402 758 l 673 758 l 665 683 l 394 683 l 348 247 q 368 112 338 157 q 468 67 398 67 q 533 74 500 67 q 600 96 567 82 l 607 20 q 534 -3 574 6 q 455 -11 494 -11 z "},"ţ":{"ha":788,"x_min":133,"x_max":673,"o":"m 133 0 m 455 -11 q 302 54 352 -11 q 264 235 251 119 l 311 683 l 133 683 l 140 758 l 318 758 l 345 1010 l 428 1010 l 402 758 l 673 758 l 665 683 l 394 683 l 348 247 q 368 112 338 157 q 468 67 398 67 q 533 74 500 67 q 600 96 567 82 l 607 20 q 534 -3 574 6 q 455 -11 494 -11 m 375 0 l 394 37 q 487 -17 455 24 q 513 -122 519 -58 q 456 -233 505 -194 q 343 -271 408 -271 q 240 -241 278 -271 q 205 -136 202 -210 l 280 -128 q 295 -185 280 -168 q 346 -202 309 -202 q 409 -183 389 -202 q 436 -114 429 -164 q 427 -39 441 -64 q 375 0 413 -14 z "},"ť":{"ha":788,"x_min":133,"x_max":763,"o":"m 133 0 m 455 -11 q 302 54 352 -11 q 264 235 251 119 l 311 683 l 133 683 l 140 758 l 318 758 l 345 1010 l 428 1010 l 402 758 l 673 758 l 665 683 l 394 683 l 348 247 q 368 112 338 157 q 468 67 398 67 q 533 74 500 67 q 600 96 567 82 l 607 20 q 534 -3 574 6 q 455 -11 494 -11 m 528 931 l 648 1263 l 763 1263 l 590 931 l 528 931 z "},"ț":{"ha":788,"x_min":133,"x_max":673,"o":"m 133 0 m 455 -11 q 302 54 352 -11 q 264 235 251 119 l 311 683 l 133 683 l 140 758 l 318 758 l 345 1010 l 428 1010 l 402 758 l 673 758 l 665 683 l 394 683 l 348 247 q 368 112 338 157 q 468 67 398 67 q 533 74 500 67 q 600 96 567 82 l 607 20 q 534 -3 574 6 q 455 -11 494 -11 m 172 -379 l 298 -126 l 423 -126 l 242 -379 l 172 -379 z "},"u":{"ha":788,"x_min":102,"x_max":672,"o":"m 289 -13 q 150 52 198 -13 q 114 226 102 117 l 169 758 l 251 758 l 197 244 q 218 110 188 157 q 317 64 249 64 q 426 94 371 64 q 529 186 480 124 l 590 758 l 672 758 l 592 0 l 510 0 l 521 109 l 503 109 q 411 19 468 51 q 289 -13 354 -13 z "},"ù":{"ha":788,"x_min":102,"x_max":672,"o":"m 102 0 m 289 -13 q 150 52 198 -13 q 114 226 102 117 l 169 758 l 251 758 l 197 244 q 218 110 188 157 q 317 64 249 64 q 426 94 371 64 q 529 186 480 124 l 590 758 l 672 758 l 592 0 l 510 0 l 521 109 l 503 109 q 411 19 468 51 q 289 -13 354 -13 m 422 884 l 246 1136 l 371 1136 l 492 884 l 422 884 z "},"ú":{"ha":788,"x_min":102,"x_max":681,"o":"m 102 0 m 289 -13 q 150 52 198 -13 q 114 226 102 117 l 169 758 l 251 758 l 197 244 q 218 110 188 157 q 317 64 249 64 q 426 94 371 64 q 529 186 480 124 l 590 758 l 672 758 l 592 0 l 510 0 l 521 109 l 503 109 q 411 19 468 51 q 289 -13 354 -13 m 381 884 l 556 1136 l 681 1136 l 452 884 l 381 884 z "},"û":{"ha":788,"x_min":102,"x_max":672,"o":"m 102 0 m 289 -13 q 150 52 198 -13 q 114 226 102 117 l 169 758 l 251 758 l 197 244 q 218 110 188 157 q 317 64 249 64 q 426 94 371 64 q 529 186 480 124 l 590 758 l 672 758 l 592 0 l 510 0 l 521 109 l 503 109 q 411 19 468 51 q 289 -13 354 -13 m 256 908 l 225 955 l 433 1158 l 491 1158 l 658 955 l 619 908 l 455 1077 l 256 908 z "},"ü":{"ha":788,"x_min":102,"x_max":672,"o":"m 102 0 m 289 -13 q 150 52 198 -13 q 114 226 102 117 l 169 758 l 251 758 l 197 244 q 218 110 188 157 q 317 64 249 64 q 426 94 371 64 q 529 186 480 124 l 590 758 l 672 758 l 592 0 l 510 0 l 521 109 l 503 109 q 411 19 468 51 q 289 -13 354 -13 m 322 914 q 279 926 294 914 q 268 968 264 937 l 268 977 q 289 1022 271 1010 q 335 1034 307 1034 q 376 1022 361 1034 q 388 977 391 1010 l 388 968 q 366 926 384 937 q 322 914 347 914 m 554 914 q 513 926 528 914 q 501 968 497 937 l 501 977 q 523 1022 505 1010 q 567 1034 540 1034 q 610 1022 595 1034 q 621 977 625 1010 l 621 968 q 599 926 617 937 q 554 914 581 914 z "},"ũ":{"ha":788,"x_min":102,"x_max":672,"o":"m 102 0 m 289 -13 q 150 52 198 -13 q 114 226 102 117 l 169 758 l 251 758 l 197 244 q 218 110 188 157 q 317 64 249 64 q 426 94 371 64 q 529 186 480 124 l 590 758 l 672 758 l 592 0 l 510 0 l 521 109 l 503 109 q 411 19 468 51 q 289 -13 354 -13 m 524 896 q 465 920 487 896 q 423 996 442 944 q 395 1059 408 1039 q 364 1078 381 1078 q 318 1041 336 1078 q 293 923 301 1004 l 292 909 l 227 909 l 229 928 q 277 1090 240 1032 q 374 1148 314 1148 q 435 1125 413 1148 q 475 1053 457 1102 q 504 987 491 1009 q 533 966 516 966 q 578 1003 561 966 q 604 1121 596 1040 l 605 1135 l 669 1135 l 668 1116 q 620 955 657 1013 q 524 896 583 896 z "},"ū":{"ha":788,"x_min":102,"x_max":672,"o":"m 102 0 m 289 -13 q 150 52 198 -13 q 114 226 102 117 l 169 758 l 251 758 l 197 244 q 218 110 188 157 q 317 64 249 64 q 426 94 371 64 q 529 186 480 124 l 590 758 l 672 758 l 592 0 l 510 0 l 521 109 l 503 109 q 411 19 468 51 q 289 -13 354 -13 m 245 975 l 253 1049 l 649 1049 l 641 975 l 245 975 z "},"ŭ":{"ha":788,"x_min":102,"x_max":692,"o":"m 102 0 m 289 -13 q 150 52 198 -13 q 114 226 102 117 l 169 758 l 251 758 l 197 244 q 218 110 188 157 q 317 64 249 64 q 426 94 371 64 q 529 186 480 124 l 590 758 l 672 758 l 592 0 l 510 0 l 521 109 l 503 109 q 411 19 468 51 q 289 -13 354 -13 m 434 875 q 273 941 327 875 q 232 1136 220 1008 l 313 1136 q 335 990 303 1034 q 442 946 366 946 q 558 990 518 946 q 611 1136 598 1034 l 692 1136 q 609 941 677 1008 q 434 875 542 875 z "},"ů":{"ha":788,"x_min":102,"x_max":672,"o":"m 102 0 m 289 -13 q 150 52 198 -13 q 114 226 102 117 l 169 758 l 251 758 l 197 244 q 218 110 188 157 q 317 64 249 64 q 426 94 371 64 q 529 186 480 124 l 590 758 l 672 758 l 592 0 l 510 0 l 521 109 l 503 109 q 411 19 468 51 q 289 -13 354 -13 m 433 866 q 320 910 359 866 q 292 1043 282 955 l 297 1093 q 354 1229 306 1183 q 476 1274 402 1274 q 588 1229 551 1274 q 617 1093 626 1183 l 612 1043 q 555 910 602 955 q 433 866 508 866 m 439 929 q 511 956 486 929 q 543 1043 537 982 l 548 1093 q 535 1182 554 1154 q 470 1211 516 1211 q 398 1182 423 1211 q 366 1093 372 1154 l 361 1043 q 374 956 355 982 q 439 929 393 929 z "},"ű":{"ha":788,"x_min":102,"x_max":721,"o":"m 102 0 m 289 -13 q 150 52 198 -13 q 114 226 102 117 l 169 758 l 251 758 l 197 244 q 218 110 188 157 q 317 64 249 64 q 426 94 371 64 q 529 186 480 124 l 590 758 l 672 758 l 592 0 l 510 0 l 521 109 l 503 109 q 411 19 468 51 q 289 -13 354 -13 m 514 884 l 598 1136 l 721 1136 l 573 884 l 514 884 m 293 884 l 379 1136 l 501 1136 l 354 884 l 293 884 z "},"ų":{"ha":788,"x_min":102,"x_max":672,"o":"m 102 0 m 289 -13 q 150 52 198 -13 q 114 226 102 117 l 169 758 l 251 758 l 197 244 q 218 110 188 157 q 317 64 249 64 q 426 94 371 64 q 529 186 480 124 l 590 758 l 672 758 l 592 0 l 510 0 l 521 109 l 503 109 q 411 19 468 51 q 289 -13 354 -13 m 556 -271 q 453 -232 491 -271 q 422 -129 415 -193 q 470 -27 428 -73 q 569 47 513 20 l 587 29 q 525 -35 545 0 q 500 -106 504 -69 q 513 -174 495 -153 q 574 -194 532 -194 q 618 -192 595 -194 q 663 -184 641 -189 l 654 -260 q 605 -268 633 -265 q 556 -271 577 -271 z "},"v":{"ha":788,"x_min":143,"x_max":697,"o":"m 390 0 l 289 0 l 143 758 l 229 758 l 348 81 l 612 758 l 697 758 l 390 0 z "},"w":{"ha":788,"x_min":97,"x_max":745,"o":"m 449 0 l 395 520 l 236 0 l 145 0 l 97 758 l 176 758 l 205 98 l 360 631 l 451 631 l 501 112 l 663 758 l 745 758 l 537 0 l 449 0 z "},"":{"ha":788,"x_min":97,"x_max":745,"o":"m 449 0 l 395 520 l 236 0 l 145 0 l 97 758 l 176 758 l 205 98 l 360 631 l 451 631 l 501 112 l 663 758 l 745 758 l 537 0 l 449 0 z "},"ŵ":{"ha":788,"x_min":97,"x_max":745,"o":"m 97 0 m 449 0 l 395 520 l 236 0 l 145 0 l 97 758 l 176 758 l 205 98 l 360 631 l 451 631 l 501 112 l 663 758 l 745 758 l 537 0 l 449 0 m 256 908 l 225 955 l 433 1158 l 491 1158 l 658 955 l 619 908 l 455 1077 l 256 908 z "},"ẁ":{"ha":788,"x_min":97,"x_max":745,"o":"m 97 0 m 449 0 l 395 520 l 236 0 l 145 0 l 97 758 l 176 758 l 205 98 l 360 631 l 451 631 l 501 112 l 663 758 l 745 758 l 537 0 l 449 0 m 448 884 l 273 1136 l 398 1136 l 519 884 l 448 884 z "},"ẃ":{"ha":788,"x_min":97,"x_max":745,"o":"m 97 0 m 449 0 l 395 520 l 236 0 l 145 0 l 97 758 l 176 758 l 205 98 l 360 631 l 451 631 l 501 112 l 663 758 l 745 758 l 537 0 l 449 0 m 345 884 l 519 1136 l 644 1136 l 415 884 l 345 884 z "},"ẅ":{"ha":788,"x_min":97,"x_max":745,"o":"m 97 0 m 449 0 l 395 520 l 236 0 l 145 0 l 97 758 l 176 758 l 205 98 l 360 631 l 451 631 l 501 112 l 663 758 l 745 758 l 537 0 l 449 0 m 322 914 q 279 926 294 914 q 268 968 264 937 l 268 977 q 289 1022 271 1010 q 335 1034 307 1034 q 376 1022 361 1034 q 388 977 391 1010 l 388 968 q 366 926 384 937 q 322 914 347 914 m 554 914 q 513 926 528 914 q 501 968 497 937 l 501 977 q 523 1022 505 1010 q 567 1034 540 1034 q 610 1022 595 1034 q 621 977 625 1010 l 621 968 q 599 926 617 937 q 554 914 581 914 z "},"x":{"ha":788,"x_min":76,"x_max":686,"o":"m 515 0 l 372 316 l 164 0 l 76 0 l 338 388 l 169 758 l 258 758 l 393 458 l 596 758 l 686 758 l 428 385 l 602 0 l 515 0 z "},"y":{"ha":788,"x_min":40,"x_max":699,"o":"m 131 -260 q 89 -257 111 -260 q 40 -249 67 -254 l 59 -176 q 104 -184 83 -181 q 148 -187 125 -187 q 237 -155 202 -187 q 306 -43 273 -124 l 321 -3 l 290 -3 l 141 758 l 229 758 l 352 80 l 615 758 l 699 758 l 376 -54 q 271 -214 331 -168 q 131 -260 211 -260 z "},"":{"ha":788,"x_min":40,"x_max":699,"o":"m 131 -260 q 89 -257 111 -260 q 40 -249 67 -254 l 59 -176 q 104 -184 83 -181 q 148 -187 125 -187 q 237 -155 202 -187 q 306 -43 273 -124 l 321 -3 l 290 -3 l 141 758 l 229 758 l 352 80 l 615 758 l 699 758 l 376 -54 q 271 -214 331 -168 q 131 -260 211 -260 z "},"ý":{"ha":788,"x_min":40,"x_max":699,"o":"m 40 0 m 131 -260 q 89 -257 111 -260 q 40 -249 67 -254 l 59 -176 q 104 -184 83 -181 q 148 -187 125 -187 q 237 -155 202 -187 q 306 -43 273 -124 l 321 -3 l 290 -3 l 141 758 l 229 758 l 352 80 l 615 758 l 699 758 l 376 -54 q 271 -214 331 -168 q 131 -260 211 -260 m 338 884 l 513 1136 l 638 1136 l 409 884 l 338 884 z "},"ÿ":{"ha":788,"x_min":40,"x_max":699,"o":"m 40 0 m 131 -260 q 89 -257 111 -260 q 40 -249 67 -254 l 59 -176 q 104 -184 83 -181 q 148 -187 125 -187 q 237 -155 202 -187 q 306 -43 273 -124 l 321 -3 l 290 -3 l 141 758 l 229 758 l 352 80 l 615 758 l 699 758 l 376 -54 q 271 -214 331 -168 q 131 -260 211 -260 m 321 914 q 278 926 293 914 q 266 968 263 937 l 266 977 q 288 1022 270 1010 q 333 1034 306 1034 q 375 1022 360 1034 q 386 977 390 1010 l 386 968 q 364 926 383 937 q 321 914 346 914 m 553 914 q 511 926 527 914 q 500 968 496 937 l 500 977 q 521 1022 504 1010 q 566 1034 539 1034 q 609 1022 593 1034 q 620 977 624 1010 l 620 968 q 598 926 616 937 q 553 914 580 914 z "},"ŷ":{"ha":788,"x_min":40,"x_max":699,"o":"m 40 0 m 131 -260 q 89 -257 111 -260 q 40 -249 67 -254 l 59 -176 q 104 -184 83 -181 q 148 -187 125 -187 q 237 -155 202 -187 q 306 -43 273 -124 l 321 -3 l 290 -3 l 141 758 l 229 758 l 352 80 l 615 758 l 699 758 l 376 -54 q 271 -214 331 -168 q 131 -260 211 -260 m 255 908 l 223 955 l 432 1158 l 490 1158 l 657 955 l 617 908 l 453 1077 l 255 908 z "},"ỳ":{"ha":788,"x_min":40,"x_max":699,"o":"m 40 0 m 131 -260 q 89 -257 111 -260 q 40 -249 67 -254 l 59 -176 q 104 -184 83 -181 q 148 -187 125 -187 q 237 -155 202 -187 q 306 -43 273 -124 l 321 -3 l 290 -3 l 141 758 l 229 758 l 352 80 l 615 758 l 699 758 l 376 -54 q 271 -214 331 -168 q 131 -260 211 -260 m 448 884 l 273 1136 l 398 1136 l 519 884 l 448 884 z "},"z":{"ha":788,"x_min":110,"x_max":652,"o":"m 572 0 l 110 0 l 117 74 l 552 683 l 182 683 l 189 758 l 652 758 l 644 683 l 212 74 l 580 74 l 572 0 z "},"ź":{"ha":788,"x_min":110,"x_max":652,"o":"m 110 0 m 572 0 l 110 0 l 117 74 l 552 683 l 182 683 l 189 758 l 652 758 l 644 683 l 212 74 l 580 74 l 572 0 m 345 884 l 519 1136 l 644 1136 l 415 884 l 345 884 z "},"ż":{"ha":788,"x_min":110,"x_max":652,"o":"m 110 0 m 572 0 l 110 0 l 117 74 l 552 683 l 182 683 l 189 758 l 652 758 l 644 683 l 212 74 l 580 74 l 572 0 m 443 914 q 392 926 412 914 q 376 968 372 937 l 376 977 q 402 1021 380 1009 q 456 1034 424 1034 q 507 1021 487 1034 q 523 977 527 1009 l 523 968 q 497 926 519 937 q 443 914 475 914 z "},"ž":{"ha":788,"x_min":110,"x_max":669,"o":"m 110 0 m 572 0 l 110 0 l 117 74 l 552 683 l 182 683 l 189 758 l 652 758 l 644 683 l 212 74 l 580 74 l 572 0 m 403 889 l 236 1092 l 277 1138 l 441 970 l 639 1138 l 669 1092 l 462 889 l 403 889 z "},"ª":{"ha":788,"x_min":149,"x_max":649,"o":"m 327 473 q 415 495 375 473 q 484 556 456 516 l 496 670 l 341 670 q 265 650 293 670 q 231 581 236 629 q 248 500 226 527 q 327 473 270 473 m 304 408 q 190 451 231 408 q 158 574 149 495 q 213 688 165 646 q 322 730 261 730 l 503 730 l 511 817 q 491 919 518 881 q 405 957 465 957 q 318 936 347 957 q 265 847 289 914 l 203 869 q 277 984 227 946 q 413 1023 327 1023 q 547 973 500 1023 q 585 830 595 923 l 557 568 q 571 495 552 511 q 649 487 590 479 l 640 413 q 541 429 572 408 q 513 514 510 451 l 499 514 q 417 437 467 467 q 304 408 366 408 z "},"º":{"ha":788,"x_min":178,"x_max":654,"o":"m 384 408 q 229 467 280 408 q 189 638 178 527 l 205 787 q 281 961 217 900 q 448 1023 345 1023 q 603 961 552 1023 q 641 787 654 900 l 626 638 q 551 467 615 527 q 384 408 487 408 m 391 476 q 503 515 465 476 q 551 636 542 553 l 566 787 q 545 914 576 874 q 441 953 514 953 q 328 914 367 953 q 279 787 289 874 l 264 636 q 287 515 255 553 q 391 476 318 476 z "},"ß":{"ha":788,"x_min":11,"x_max":708,"o":"m 458 -8 q 341 17 396 -8 q 250 86 285 42 l 299 152 q 376 92 333 115 q 470 68 419 68 q 573 100 534 68 q 617 197 611 133 q 596 289 625 259 q 485 342 567 318 q 340 417 386 372 q 304 549 294 462 q 382 693 313 639 q 551 753 451 747 q 516 896 556 848 q 394 944 476 944 q 259 890 311 944 q 196 725 208 836 l 93 -253 l 11 -253 l 116 741 q 208 946 130 872 q 403 1020 285 1020 q 583 945 521 1020 q 633 742 645 870 l 626 689 q 453 656 513 688 q 385 554 393 624 q 411 470 379 496 q 533 417 443 443 q 667 342 625 389 q 699 202 708 294 q 622 48 689 104 q 458 -8 554 -8 z "},"æ":{"ha":788,"x_min":24,"x_max":736,"o":"m 683 164 q 614 31 659 74 q 490 -13 569 -13 q 401 15 436 -13 q 351 96 366 43 l 340 96 q 265 18 308 48 q 168 -13 222 -13 q 62 44 100 -13 q 35 203 24 101 q 97 349 44 294 q 220 404 150 404 l 351 404 l 364 532 q 352 655 372 609 q 277 701 331 701 q 206 675 230 701 q 157 578 182 649 l 93 600 q 163 727 116 683 q 284 770 210 770 q 371 744 335 770 q 417 667 407 717 q 482 743 442 716 q 569 770 523 770 q 693 709 650 770 q 722 520 736 648 l 706 366 l 418 366 l 404 223 q 416 95 394 134 q 492 56 438 56 q 569 80 544 56 q 612 176 593 105 l 683 164 m 436 528 l 426 428 l 638 428 l 646 516 q 635 658 657 614 q 559 702 614 702 q 476 659 508 702 q 436 528 444 616 m 323 141 l 345 343 l 234 343 q 152 311 183 343 q 114 211 120 279 q 123 94 105 134 q 191 54 141 54 q 262 78 229 54 q 323 141 295 102 z "},"ǽ":{"ha":788,"x_min":24,"x_max":736,"o":"m 24 0 m 683 164 q 614 31 659 74 q 490 -13 569 -13 q 401 15 436 -13 q 351 96 366 43 l 340 96 q 265 18 308 48 q 168 -13 222 -13 q 62 44 100 -13 q 35 203 24 101 q 97 349 44 294 q 220 404 150 404 l 351 404 l 364 532 q 352 655 372 609 q 277 701 331 701 q 206 675 230 701 q 157 578 182 649 l 93 600 q 163 727 116 683 q 284 770 210 770 q 371 744 335 770 q 417 667 407 717 q 482 743 442 716 q 569 770 523 770 q 693 709 650 770 q 722 520 736 648 l 706 366 l 418 366 l 404 223 q 416 95 394 134 q 492 56 438 56 q 569 80 544 56 q 612 176 593 105 l 683 164 m 436 528 l 426 428 l 638 428 l 646 516 q 635 658 657 614 q 559 702 614 702 q 476 659 508 702 q 436 528 444 616 m 323 141 l 345 343 l 234 343 q 152 311 183 343 q 114 211 120 279 q 123 94 105 134 q 191 54 141 54 q 262 78 229 54 q 323 141 295 102 m 398 884 l 572 1136 l 697 1136 l 468 884 l 398 884 z "},"ð":{"ha":788,"x_min":102,"x_max":742,"o":"m 340 -13 q 162 58 222 -13 q 116 269 102 129 l 128 378 q 213 563 140 495 q 393 631 287 631 q 507 602 463 631 q 562 530 551 572 l 576 530 q 568 687 580 616 q 525 812 556 758 l 321 707 l 327 774 l 490 859 q 409 929 458 900 q 295 979 360 958 l 328 1037 q 461 977 404 1013 q 557 893 519 941 l 742 987 l 736 920 l 590 846 q 643 685 630 777 q 644 477 655 593 l 622 277 q 532 59 607 130 q 340 -13 457 -13 m 348 62 q 482 112 438 62 q 538 266 527 162 l 548 364 q 524 509 558 462 q 400 556 490 556 q 266 509 311 556 q 212 364 222 462 l 202 266 q 225 112 191 162 q 348 62 259 62 z "},"ø":{"ha":788,"x_min":87,"x_max":674,"o":"m 197 256 q 198 176 192 210 q 217 120 203 143 l 500 674 q 462 689 484 684 q 414 694 441 694 q 281 646 328 694 q 222 495 234 597 l 197 256 m 347 63 q 480 109 433 63 q 538 256 528 154 l 563 495 q 563 576 568 542 q 544 635 558 611 l 263 82 q 301 68 279 72 q 347 63 322 63 m 340 -13 q 280 -7 308 -13 q 227 11 251 -1 l 164 -106 l 87 -106 l 170 45 q 123 133 139 80 q 115 258 107 186 l 140 495 q 232 702 155 634 q 423 770 308 770 q 483 765 455 770 q 534 746 511 759 l 597 864 l 674 864 l 592 711 q 638 622 624 676 q 645 495 653 568 l 620 258 q 530 54 606 120 q 340 -13 455 -13 z "},"ǿ":{"ha":788,"x_min":87,"x_max":674,"o":"m 87 0 m 197 256 q 198 176 192 210 q 217 120 203 143 l 500 674 q 462 689 484 684 q 414 694 441 694 q 281 646 328 694 q 222 495 234 597 l 197 256 m 347 63 q 480 109 433 63 q 538 256 528 154 l 563 495 q 563 576 568 542 q 544 635 558 611 l 263 82 q 301 68 279 72 q 347 63 322 63 m 340 -13 q 280 -7 308 -13 q 227 11 251 -1 l 164 -106 l 87 -106 l 170 45 q 123 133 139 80 q 115 258 107 186 l 140 495 q 232 702 155 634 q 423 770 308 770 q 483 765 455 770 q 534 746 511 759 l 597 864 l 674 864 l 592 711 q 638 622 624 676 q 645 495 653 568 l 620 258 q 530 54 606 120 q 340 -13 455 -13 m 345 884 l 519 1136 l 644 1136 l 415 884 l 345 884 z "},"þ":{"ha":788,"x_min":63,"x_max":658,"o":"m 338 59 q 478 109 429 59 q 538 263 527 158 l 563 501 q 543 646 573 600 q 441 693 513 693 q 334 664 383 693 q 232 571 285 635 l 183 111 q 256 71 217 83 q 338 59 295 59 m 335 -13 q 254 -3 297 -13 q 174 27 212 6 l 145 -253 l 63 -253 l 196 1010 l 278 1010 l 240 649 l 259 649 q 348 739 293 708 q 467 770 403 770 q 611 698 564 770 q 644 497 658 626 l 620 260 q 531 59 606 131 q 335 -13 456 -13 z "},"đ":{"ha":788,"x_min":102,"x_max":792,"o":"m 318 64 q 427 93 376 64 q 530 187 477 122 l 572 586 q 499 623 538 610 q 417 636 460 636 q 278 588 326 636 q 220 444 230 539 l 199 253 q 220 111 189 158 q 318 64 250 64 m 501 106 q 412 18 465 48 q 290 -13 359 -13 q 148 56 194 -13 q 116 249 102 124 l 136 447 q 223 638 149 568 q 422 708 298 708 q 503 697 461 708 q 581 669 545 686 l 596 813 l 388 813 l 395 885 l 604 885 l 616 1010 l 698 1010 l 686 885 l 792 885 l 784 813 l 678 813 l 592 0 l 510 0 l 521 106 l 501 106 z "},"ħ":{"ha":788,"x_min":69,"x_max":654,"o":"m 225 506 l 172 0 l 90 0 l 176 813 l 69 813 l 77 885 l 183 885 l 196 1010 l 278 1010 l 265 885 l 475 885 l 467 813 l 258 813 l 234 583 l 253 583 q 345 676 288 643 q 468 708 402 708 q 606 648 558 708 q 643 482 654 587 l 592 0 l 510 0 l 559 463 q 535 588 568 547 q 438 630 503 630 q 332 600 383 630 q 225 506 282 571 z "},"ı":{"ha":788,"x_min":90,"x_max":600,"o":"m 90 0 l 97 74 l 307 74 l 371 683 l 162 683 l 169 758 l 462 758 l 390 74 l 600 74 l 592 0 l 90 0 z "},"ĳ":{"ha":788,"x_min":110,"x_max":726,"o":"m 246 914 q 195 926 213 914 q 181 968 177 937 l 181 977 q 205 1021 184 1009 q 259 1034 226 1034 q 309 1021 290 1034 q 324 977 328 1009 l 324 968 q 299 926 321 937 q 246 914 278 914 m 644 914 q 592 926 611 914 q 577 968 573 937 l 577 977 q 602 1021 581 1009 q 657 1034 624 1034 q 707 1021 688 1034 q 722 977 726 1009 l 722 968 q 697 926 718 937 q 644 914 676 914 m 192 0 l 110 0 l 189 758 l 271 758 l 192 0 m 352 -263 q 289 -256 321 -263 q 225 -236 258 -250 l 250 -158 q 307 -178 280 -173 q 360 -183 333 -183 q 462 -140 423 -183 q 511 -5 501 -96 l 583 683 l 446 683 l 453 758 l 673 758 l 592 -18 q 513 -199 580 -136 q 352 -263 447 -263 z "},"ĸ":{"ha":788,"x_min":140,"x_max":688,"o":"m 140 0 m 261 362 l 222 0 l 140 0 l 220 758 l 302 758 l 268 434 l 347 434 l 591 758 l 688 758 l 412 403 l 606 0 l 514 0 l 343 362 l 261 362 z "},"ŀ":{"ha":788,"x_min":91,"x_max":862,"o":"m 91 0 m 91 0 l 98 74 l 308 74 l 399 936 l 189 936 l 197 1010 l 490 1010 l 391 74 l 601 74 l 593 0 l 91 0 m 779 404 q 728 415 747 404 q 712 458 708 427 l 712 467 q 738 511 716 499 q 792 524 760 524 q 843 511 823 524 q 859 467 862 499 l 859 458 q 833 415 855 427 q 779 404 811 404 z "},"ł":{"ha":788,"x_min":91,"x_max":619,"o":"m 172 409 l 179 480 l 619 619 l 611 548 l 172 409 m 91 0 l 98 74 l 308 74 l 399 936 l 189 936 l 197 1010 l 490 1010 l 391 74 l 601 74 l 593 0 l 91 0 z "},"ŉ":{"ha":788,"x_min":74,"x_max":660,"o":"m 74 0 m 90 0 l 169 758 l 251 758 l 240 649 l 259 649 q 352 738 294 706 q 471 770 409 770 q 612 707 564 770 q 649 535 660 644 l 592 0 l 510 0 l 564 519 q 542 648 573 604 q 446 692 511 692 q 336 663 390 692 q 232 572 282 634 l 172 0 l 90 0 m 74 884 l 249 1136 l 374 1136 l 145 884 l 74 884 z "},"ŋ":{"ha":788,"x_min":90,"x_max":660,"o":"m 364 -263 q 306 -256 336 -263 q 245 -239 275 -250 l 271 -159 q 323 -177 298 -172 q 372 -183 348 -183 q 463 -144 427 -183 q 509 -18 499 -105 l 566 523 q 544 650 573 606 q 446 693 514 693 q 336 664 389 693 q 232 572 283 635 l 172 0 l 90 0 l 169 758 l 251 758 l 240 649 l 259 649 q 350 738 293 706 q 476 770 408 770 q 614 707 567 770 q 648 532 660 644 l 588 -34 q 513 -206 576 -150 q 364 -263 451 -263 z "},"œ":{"ha":788,"x_min":28,"x_max":734,"o":"m 681 157 q 609 30 654 73 q 487 -13 563 -13 q 397 17 434 -13 q 350 102 360 47 q 282 17 324 47 q 189 -13 239 -13 q 68 56 107 -13 q 43 259 28 125 l 67 494 q 136 700 81 630 q 273 770 191 770 q 359 741 322 770 q 408 658 395 712 q 475 741 433 712 q 564 770 516 770 q 692 702 650 770 q 720 501 734 634 l 705 366 l 414 366 l 402 242 q 413 100 391 144 q 489 56 434 56 q 564 81 538 56 q 610 170 590 106 l 681 157 m 429 510 l 422 428 l 635 428 l 643 499 q 631 653 653 605 q 554 701 609 701 q 472 655 503 701 q 429 510 441 609 m 203 57 q 289 104 258 57 q 332 259 321 152 l 356 494 q 346 650 367 600 q 270 701 324 701 q 186 650 217 701 q 144 494 155 600 l 120 259 q 129 104 109 152 q 203 57 150 57 z "},"ŧ":{"ha":788,"x_min":114,"x_max":673,"o":"m 114 375 l 122 451 l 626 451 l 617 375 l 114 375 m 455 -11 q 302 54 352 -11 q 264 235 251 119 l 311 683 l 133 683 l 140 758 l 318 758 l 345 1010 l 428 1010 l 402 758 l 673 758 l 665 683 l 394 683 l 348 247 q 368 112 338 157 q 468 67 398 67 q 533 74 500 67 q 600 96 567 82 l 607 20 q 534 -3 574 6 q 455 -11 494 -11 z "},"ſ":{"ha":788,"x_min":245,"x_max":702,"o":"m 273 -253 l 371 683 l 245 683 l 253 758 l 379 758 l 385 816 q 451 965 395 910 q 581 1019 506 1019 q 646 1010 612 1019 q 702 989 679 1001 l 679 919 q 631 936 657 928 q 578 943 606 943 q 506 914 535 943 q 468 818 476 884 l 356 -253 l 273 -253 z "},"ȷ":{"ha":788,"x_min":64,"x_max":567,"o":"m 220 -263 q 141 -256 181 -263 q 64 -234 102 -249 l 88 -154 q 158 -176 125 -169 q 223 -183 192 -183 q 348 -138 303 -183 q 404 3 394 -93 l 476 683 l 183 683 l 191 758 l 567 758 l 486 -6 q 400 -197 473 -131 q 220 -263 327 -263 z "},"":{"ha":788,"x_min":64,"x_max":567,"o":"m 220 -263 q 141 -256 181 -263 q 64 -234 102 -249 l 88 -154 q 158 -176 125 -169 q 223 -183 192 -183 q 348 -138 303 -183 q 404 3 394 -93 l 476 683 l 183 683 l 191 758 l 567 758 l 486 -6 q 400 -197 473 -131 q 220 -263 327 -263 z "},"α":{"ha":788,"x_min":93,"x_max":683,"o":"m 306 66 q 403 95 356 66 q 497 187 451 125 l 538 571 q 464 662 505 633 q 372 692 423 692 q 266 640 306 692 q 215 486 226 588 l 193 271 q 211 117 182 169 q 306 66 240 66 m 511 121 l 492 121 q 401 21 455 54 q 279 -13 347 -13 q 140 59 187 -13 q 107 260 93 131 l 133 499 q 207 698 145 626 q 361 770 269 770 q 461 739 417 770 q 527 648 505 707 l 545 648 l 557 758 l 640 758 l 582 199 q 595 86 572 112 q 683 73 619 61 l 676 -4 q 551 14 591 -16 q 511 121 510 44 z "},"ά":{"ha":788,"x_min":93,"x_max":683,"o":"m 93 0 m 306 66 q 403 95 356 66 q 497 187 451 125 l 538 571 q 464 662 505 633 q 372 692 423 692 q 266 640 306 692 q 215 486 226 588 l 193 271 q 211 117 182 169 q 306 66 240 66 m 511 121 l 492 121 q 401 21 455 54 q 279 -13 347 -13 q 140 59 187 -13 q 107 260 93 131 l 133 499 q 207 698 145 626 q 361 770 269 770 q 461 739 417 770 q 527 648 505 707 l 545 648 l 557 758 l 640 758 l 582 199 q 595 86 572 112 q 683 73 619 61 l 676 -4 q 551 14 591 -16 q 511 121 510 44 m 422 884 l 533 1136 l 653 1136 l 487 884 l 422 884 z "},"β":{"ha":788,"x_min":63,"x_max":653,"o":"m 338 59 q 477 109 429 59 q 535 265 524 159 l 542 330 q 515 461 552 419 q 390 503 477 503 l 338 503 l 346 577 l 391 577 q 507 615 467 577 q 556 732 547 653 l 559 765 q 538 904 569 860 q 431 948 506 948 q 306 900 350 948 q 250 745 261 851 l 183 109 q 254 71 216 83 q 338 59 292 59 m 335 -13 q 250 -2 292 -13 q 174 28 208 9 l 145 -253 l 63 -253 l 168 744 q 254 949 182 876 q 438 1023 327 1023 q 598 958 543 1023 q 641 779 653 894 l 636 736 q 593 616 629 664 q 495 556 558 568 l 494 537 q 600 473 564 528 q 628 335 636 418 l 620 265 q 528 60 606 133 q 335 -13 451 -13 z "},"γ":{"ha":788,"x_min":140,"x_max":699,"o":"m 362 -253 l 266 -253 l 303 19 l 140 758 l 231 758 l 356 136 l 609 758 l 699 758 l 384 19 l 362 -253 z "},"δ":{"ha":788,"x_min":102,"x_max":646,"o":"m 340 -13 q 162 57 221 -13 q 116 265 102 126 l 130 394 q 186 533 138 473 q 311 629 234 592 q 223 708 247 663 q 205 821 198 753 q 273 963 215 915 q 433 1010 332 1010 l 626 1010 l 619 936 l 426 936 q 327 910 362 936 q 285 824 292 884 q 310 732 279 764 q 444 663 341 701 q 606 561 566 615 q 636 407 646 508 l 621 265 q 533 57 607 126 q 340 -13 458 -13 m 347 62 q 480 110 434 62 q 538 265 527 158 l 553 407 q 523 523 561 484 q 365 605 485 562 q 261 519 301 571 q 213 394 221 467 l 199 265 q 224 110 188 158 q 347 62 260 62 z "},"ε":{"ha":788,"x_min":80,"x_max":654,"o":"m 345 -13 q 141 42 202 -13 q 92 212 80 96 l 93 223 q 143 345 100 293 q 264 403 187 398 l 265 417 q 172 459 203 420 q 149 562 141 497 l 150 578 q 227 723 160 677 q 420 770 293 770 q 598 720 543 770 q 650 562 654 670 l 568 554 q 533 665 568 634 q 413 696 499 696 q 281 668 322 696 q 234 572 240 640 l 231 554 q 259 472 225 496 q 385 448 294 448 l 443 448 l 436 378 l 378 378 q 229 347 271 378 q 178 236 186 316 l 177 223 q 206 98 167 135 q 352 62 246 62 q 489 96 444 62 q 552 217 534 130 l 633 211 q 544 40 612 93 q 345 -13 476 -13 z "},"έ":{"ha":788,"x_min":80,"x_max":654,"o":"m 80 0 m 345 -13 q 141 42 202 -13 q 92 212 80 96 l 93 223 q 143 345 100 293 q 264 403 187 398 l 265 417 q 172 459 203 420 q 149 562 141 497 l 150 578 q 227 723 160 677 q 420 770 293 770 q 598 720 543 770 q 650 562 654 670 l 568 554 q 533 665 568 634 q 413 696 499 696 q 281 668 322 696 q 234 572 240 640 l 231 554 q 259 472 225 496 q 385 448 294 448 l 443 448 l 436 378 l 378 378 q 229 347 271 378 q 178 236 186 316 l 177 223 q 206 98 167 135 q 352 62 246 62 q 489 96 444 62 q 552 217 534 130 l 633 211 q 544 40 612 93 q 345 -13 476 -13 m 369 884 l 480 1136 l 600 1136 l 434 884 l 369 884 z "},"ζ":{"ha":788,"x_min":102,"x_max":718,"o":"m 386 -253 l 273 -253 l 280 -177 l 399 -177 q 475 -153 447 -177 q 509 -72 503 -129 q 492 10 515 -14 q 422 34 470 34 l 333 34 q 158 107 215 34 q 115 306 102 181 q 156 451 124 384 q 242 587 188 519 l 437 835 l 433 843 q 251 879 318 831 q 174 1021 184 927 l 245 1035 q 324 922 253 952 q 504 926 396 891 l 694 1027 l 718 934 l 542 864 l 302 549 q 230 434 254 486 q 199 314 207 383 q 226 165 189 220 q 341 110 263 110 l 431 110 q 553 64 511 110 q 586 -72 595 18 q 523 -205 577 -158 q 386 -253 470 -253 z "},"η":{"ha":788,"x_min":90,"x_max":660,"o":"m 484 -253 l 564 521 q 543 648 573 605 q 446 692 513 692 q 335 663 389 692 q 232 572 282 634 l 172 0 l 90 0 l 169 758 l 251 758 l 240 649 l 259 649 q 353 738 294 706 q 473 770 412 770 q 612 708 564 770 q 649 539 660 645 l 566 -253 l 484 -253 z "},"ή":{"ha":788,"x_min":90,"x_max":660,"o":"m 90 0 m 484 -253 l 564 521 q 543 648 573 605 q 446 692 513 692 q 335 663 389 692 q 232 572 282 634 l 172 0 l 90 0 l 169 758 l 251 758 l 240 649 l 259 649 q 353 738 294 706 q 473 770 412 770 q 612 708 564 770 q 649 539 660 645 l 566 -253 l 484 -253 m 376 884 l 487 1136 l 607 1136 l 442 884 l 376 884 z "},"θ":{"ha":788,"x_min":104,"x_max":684,"o":"m 340 -13 q 162 61 220 -13 q 119 274 104 135 l 167 731 q 255 948 182 872 q 449 1023 328 1023 q 626 948 568 1023 q 669 731 684 872 l 621 274 q 533 61 606 135 q 340 -13 460 -13 m 249 731 l 230 552 l 568 552 l 587 731 q 563 895 598 841 q 441 948 527 948 q 308 895 356 948 q 249 731 260 841 m 347 62 q 480 114 433 62 q 539 273 528 165 l 561 475 l 222 475 l 201 273 q 226 114 189 165 q 347 62 263 62 z "},"ι":{"ha":788,"x_min":141,"x_max":614,"o":"m 141 0 m 481 -6 q 352 55 394 -6 q 322 226 311 116 l 370 683 l 141 683 l 149 758 l 461 758 l 405 225 q 419 109 396 148 q 494 69 441 69 q 549 77 518 69 q 604 96 580 85 l 614 24 q 552 3 587 11 q 481 -6 518 -6 z "},"ΐ":{"ha":788,"x_min":141,"x_max":672,"o":"m 141 0 m 481 -6 q 352 55 394 -6 q 322 226 311 116 l 370 683 l 141 683 l 149 758 l 461 758 l 405 225 q 419 109 396 148 q 494 69 441 69 q 549 77 518 69 q 604 96 580 85 l 614 24 q 552 3 587 11 q 481 -6 518 -6 m 361 884 l 447 1136 l 543 1136 l 417 884 l 361 884 m 239 900 q 205 912 217 900 q 196 956 192 924 l 196 963 q 215 1009 199 996 q 251 1021 230 1021 q 285 1009 273 1021 q 293 963 297 996 l 293 956 q 274 912 289 924 q 239 900 259 900 m 612 900 q 579 912 591 900 q 571 956 567 924 l 571 963 q 589 1009 574 996 q 625 1021 604 1021 q 659 1009 646 1021 q 668 963 672 996 l 668 956 q 648 912 664 924 q 612 900 633 900 z "},"ί":{"ha":788,"x_min":141,"x_max":614,"o":"m 141 0 m 481 -6 q 352 55 394 -6 q 322 226 311 116 l 370 683 l 141 683 l 149 758 l 461 758 l 405 225 q 419 109 396 148 q 494 69 441 69 q 549 77 518 69 q 604 96 580 85 l 614 24 q 552 3 587 11 q 481 -6 518 -6 m 362 884 l 473 1136 l 593 1136 l 428 884 l 362 884 z "},"ϊ":{"ha":788,"x_min":141,"x_max":619,"o":"m 141 0 m 481 -6 q 352 55 394 -6 q 322 226 311 116 l 370 683 l 141 683 l 149 758 l 461 758 l 405 225 q 419 109 396 148 q 494 69 441 69 q 549 77 518 69 q 604 96 580 85 l 614 24 q 552 3 587 11 q 481 -6 518 -6 m 316 914 q 273 926 288 914 q 261 968 258 937 l 261 977 q 283 1022 265 1010 q 328 1034 301 1034 q 370 1022 355 1034 q 381 977 385 1010 l 381 968 q 359 926 378 937 q 316 914 341 914 m 548 914 q 506 926 521 914 q 495 968 491 937 l 495 977 q 516 1022 499 1010 q 561 1034 534 1034 q 604 1022 588 1034 q 615 977 619 1010 l 615 968 q 593 926 611 937 q 548 914 574 914 z "},"κ":{"ha":788,"x_min":140,"x_max":688,"o":"m 261 362 l 222 0 l 140 0 l 220 758 l 302 758 l 268 434 l 347 434 l 591 758 l 688 758 l 412 403 l 606 0 l 514 0 l 343 362 l 261 362 z "},"λ":{"ha":788,"x_min":62,"x_max":620,"o":"m 533 0 l 414 681 l 149 0 l 62 0 l 369 763 l 399 763 l 391 808 q 348 914 376 884 q 268 944 321 944 q 223 942 245 944 q 177 933 202 939 l 173 1005 q 222 1015 198 1011 q 266 1018 245 1018 q 394 975 346 1018 q 460 833 442 933 l 620 0 l 533 0 z "},"μ":{"ha":788,"x_min":56,"x_max":662,"o":"m 176 25 l 154 -253 l 56 -253 l 92 25 l 169 758 l 253 758 l 198 244 q 221 110 189 155 q 314 64 253 64 q 407 90 365 64 q 485 162 448 115 l 548 758 l 630 758 l 571 197 q 582 86 562 111 q 662 73 602 61 l 654 -4 q 549 13 583 -16 q 515 116 514 43 l 501 116 q 415 23 466 59 q 303 -13 365 -13 q 230 9 260 -13 q 181 71 199 32 l 176 25 z "},"ν":{"ha":788,"x_min":140,"x_max":699,"o":"m 379 0 l 302 0 l 140 758 l 227 758 l 359 71 q 523 419 456 245 q 619 758 590 592 l 699 758 q 579 377 660 563 q 379 0 497 191 z "},"ξ":{"ha":788,"x_min":106,"x_max":705,"o":"m 605 -71 q 544 -206 596 -159 q 405 -253 492 -253 l 280 -253 l 288 -177 l 419 -177 q 495 -153 468 -177 q 528 -71 521 -129 q 513 11 534 -13 q 442 35 491 35 l 332 35 q 164 97 222 35 q 117 260 106 158 l 120 294 q 186 440 130 380 q 330 508 241 500 l 331 521 q 244 563 273 521 q 223 670 216 605 q 260 768 229 725 q 345 836 292 812 l 346 851 q 197 898 253 852 q 130 1021 141 944 l 202 1035 q 280 935 211 965 q 452 926 348 905 l 682 1027 l 705 934 l 467 857 l 399 816 q 335 754 357 790 q 307 672 312 718 q 323 581 301 611 q 390 551 346 551 l 576 551 l 568 476 l 384 476 q 259 432 304 476 q 206 313 213 389 l 202 279 q 229 155 194 199 q 343 110 264 110 l 449 110 q 574 66 533 110 q 605 -71 615 21 z "},"ο":{"ha":788,"x_min":104,"x_max":658,"o":"m 104 0 m 340 -13 q 161 57 218 -13 q 116 258 104 128 l 141 495 q 229 699 155 628 q 423 770 302 770 q 600 699 543 770 q 644 495 658 628 l 619 258 q 533 57 606 128 q 340 -13 461 -13 m 347 62 q 480 109 433 62 q 537 256 527 157 l 562 495 q 537 646 573 597 q 414 696 500 696 q 282 646 328 696 q 223 495 235 597 l 198 256 q 225 109 188 157 q 347 62 261 62 z "},"ό":{"ha":788,"x_min":104,"x_max":658,"o":"m 104 0 m 340 -13 q 161 57 218 -13 q 116 258 104 128 l 141 495 q 229 699 155 628 q 423 770 302 770 q 600 699 543 770 q 644 495 658 628 l 619 258 q 533 57 606 128 q 340 -13 461 -13 m 347 62 q 480 109 433 62 q 537 256 527 157 l 562 495 q 537 646 573 597 q 414 696 500 696 q 282 646 328 696 q 223 495 235 597 l 198 256 q 225 109 188 157 q 347 62 261 62 m 366 884 l 477 1136 l 597 1136 l 432 884 l 366 884 z "},"π":{"ha":788,"x_min":98,"x_max":703,"o":"m 703 758 l 696 683 l 571 683 l 516 170 q 534 82 510 102 q 631 73 558 62 l 624 -4 q 468 20 513 -18 q 433 155 423 57 l 489 683 l 284 683 l 212 0 l 130 0 l 202 683 l 98 683 l 106 758 l 703 758 z "},"ρ":{"ha":788,"x_min":63,"x_max":658,"o":"m 375 68 q 487 119 447 68 q 539 271 528 169 l 562 495 q 536 646 573 597 q 414 696 499 696 q 282 646 330 696 q 223 495 235 597 l 192 187 q 271 97 225 125 q 375 68 317 68 m 63 -253 l 141 495 q 230 699 155 629 q 422 770 304 770 q 599 699 540 770 q 644 495 658 629 l 620 260 q 542 58 606 129 q 380 -13 479 -13 q 272 19 318 -13 q 205 109 226 51 l 183 109 l 145 -253 l 63 -253 z "},"ς":{"ha":788,"x_min":107,"x_max":644,"o":"m 263 -253 l 270 -178 l 403 -178 q 479 -155 453 -178 q 511 -74 505 -133 q 496 3 516 -19 q 424 24 475 24 l 335 24 q 158 95 210 24 q 122 307 107 165 l 141 487 q 225 699 155 629 q 426 770 294 770 q 594 711 544 770 q 639 521 644 653 l 562 518 q 534 656 566 617 q 415 694 503 694 q 280 649 324 694 q 223 496 235 604 l 202 293 q 225 144 192 188 q 345 100 258 100 l 436 100 q 559 57 519 100 q 590 -76 598 15 q 528 -208 580 -164 q 390 -253 477 -253 l 263 -253 z "},"σ":{"ha":788,"x_min":102,"x_max":775,"o":"m 326 62 q 442 110 400 62 q 494 256 484 158 l 515 456 q 496 626 527 569 q 391 682 466 682 q 276 633 318 682 q 222 482 234 583 l 198 256 q 220 110 188 158 q 326 62 253 62 m 318 -13 q 157 57 212 -13 q 115 258 102 126 l 139 482 q 223 686 153 614 q 400 758 294 758 l 775 758 l 766 670 l 538 688 q 591 598 574 657 q 598 458 607 539 l 577 258 q 494 57 564 126 q 318 -13 424 -13 z "},"τ":{"ha":788,"x_min":160,"x_max":683,"o":"m 509 -4 q 350 20 395 -15 q 314 149 306 56 l 371 683 l 160 683 l 168 758 l 683 758 l 676 683 l 455 683 l 400 163 q 417 81 393 100 q 516 73 441 62 l 509 -4 z "},"υ":{"ha":788,"x_min":104,"x_max":672,"o":"m 340 -13 q 161 57 218 -13 q 116 255 104 126 l 169 758 l 251 758 l 198 255 q 225 107 188 152 q 347 62 263 62 q 479 107 432 62 q 537 255 527 152 l 590 758 l 672 758 l 619 255 q 533 57 606 126 q 340 -13 461 -13 z "},"ΰ":{"ha":788,"x_min":104,"x_max":682,"o":"m 104 0 m 340 -13 q 161 57 218 -13 q 116 255 104 126 l 169 758 l 251 758 l 198 255 q 225 107 188 152 q 347 62 263 62 q 479 107 432 62 q 537 255 527 152 l 590 758 l 672 758 l 619 255 q 533 57 606 126 q 340 -13 461 -13 m 371 884 l 457 1136 l 553 1136 l 427 884 l 371 884 m 249 900 q 215 912 227 900 q 206 956 202 924 l 206 963 q 225 1009 210 996 q 261 1021 240 1021 q 295 1009 283 1021 q 303 963 307 996 l 303 956 q 284 912 299 924 q 249 900 269 900 m 622 900 q 589 912 601 900 q 581 956 577 924 l 581 963 q 599 1009 585 996 q 635 1021 614 1021 q 669 1009 657 1021 q 678 963 682 996 l 678 956 q 658 912 674 924 q 622 900 643 900 z "},"ϋ":{"ha":788,"x_min":104,"x_max":672,"o":"m 104 0 m 340 -13 q 161 57 218 -13 q 116 255 104 126 l 169 758 l 251 758 l 198 255 q 225 107 188 152 q 347 62 263 62 q 479 107 432 62 q 537 255 527 152 l 590 758 l 672 758 l 619 255 q 533 57 606 126 q 340 -13 461 -13 m 321 914 q 278 926 293 914 q 266 968 263 937 l 266 977 q 288 1022 270 1010 q 333 1034 306 1034 q 375 1022 360 1034 q 386 977 390 1010 l 386 968 q 364 926 383 937 q 321 914 346 914 m 553 914 q 511 926 527 914 q 500 968 496 937 l 500 977 q 521 1022 504 1010 q 566 1034 539 1034 q 609 1022 593 1034 q 620 977 624 1010 l 620 968 q 598 926 616 937 q 553 914 580 914 z "},"ύ":{"ha":788,"x_min":104,"x_max":672,"o":"m 104 0 m 340 -13 q 161 57 218 -13 q 116 255 104 126 l 169 758 l 251 758 l 198 255 q 225 107 188 152 q 347 62 263 62 q 479 107 432 62 q 537 255 527 152 l 590 758 l 672 758 l 619 255 q 533 57 606 126 q 340 -13 461 -13 m 365 884 l 476 1136 l 596 1136 l 431 884 l 365 884 z "},"φ":{"ha":788,"x_min":61,"x_max":701,"o":"m 354 -253 l 275 -253 l 301 -10 q 122 89 183 3 q 76 327 61 176 l 88 449 q 128 628 100 549 q 203 774 157 707 l 274 746 q 206 614 235 687 q 167 449 177 540 l 154 327 q 180 140 141 207 q 309 61 218 72 l 383 758 l 458 758 q 640 670 580 758 q 683 413 701 582 l 674 330 q 578 89 659 176 q 379 -10 497 3 l 354 -253 m 451 688 l 385 61 q 532 141 479 73 q 597 330 585 208 l 606 413 q 581 622 621 556 q 451 688 542 688 z "},"χ":{"ha":788,"x_min":53,"x_max":682,"o":"m 477 -253 l 354 173 l 143 -253 l 53 -253 l 322 255 l 170 758 l 256 758 l 380 338 l 593 758 l 682 758 l 410 255 l 564 -253 l 477 -253 z "},"ψ":{"ha":788,"x_min":58,"x_max":720,"o":"m 354 -253 l 275 -253 l 301 -9 q 116 80 173 1 q 73 298 58 159 l 121 758 l 199 758 l 152 295 q 176 129 139 183 q 309 66 213 74 l 383 758 l 458 758 l 385 66 q 532 129 484 74 q 593 295 581 183 l 641 758 l 720 758 l 672 298 q 583 80 657 159 q 379 -9 509 1 l 354 -253 z "},"ω":{"ha":788,"x_min":57,"x_max":696,"o":"m 197 -13 q 91 66 125 -13 q 72 292 57 145 l 85 414 q 128 624 97 524 q 188 771 159 723 l 258 742 q 205 608 236 699 q 163 414 174 516 l 150 292 q 155 117 138 173 q 218 62 172 62 q 292 110 265 62 q 331 264 319 158 l 364 582 l 439 582 l 407 264 q 412 110 395 158 q 476 62 429 62 q 551 117 523 62 q 592 292 580 173 l 605 414 q 604 608 616 516 q 581 742 592 699 l 655 771 q 685 624 674 723 q 683 414 696 524 l 670 292 q 605 66 655 145 q 482 -13 554 -13 q 398 27 432 -13 q 360 139 365 66 l 351 139 q 288 27 328 66 q 197 -13 247 -13 z "},"ώ":{"ha":788,"x_min":57,"x_max":696,"o":"m 57 0 m 197 -13 q 91 66 125 -13 q 72 292 57 145 l 85 414 q 128 624 97 524 q 188 771 159 723 l 258 742 q 205 608 236 699 q 163 414 174 516 l 150 292 q 155 117 138 173 q 218 62 172 62 q 292 110 265 62 q 331 264 319 158 l 364 582 l 439 582 l 407 264 q 412 110 395 158 q 476 62 429 62 q 551 117 523 62 q 592 292 580 173 l 605 414 q 604 608 616 516 q 581 742 592 699 l 655 771 q 685 624 674 723 q 683 414 696 524 l 670 292 q 605 66 655 145 q 482 -13 554 -13 q 398 27 432 -13 q 360 139 365 66 l 351 139 q 288 27 328 66 q 197 -13 247 -13 m 376 884 l 487 1136 l 607 1136 l 442 884 l 376 884 z "},"а":{"ha":788,"x_min":63,"x_max":676,"o":"m 63 0 m 278 59 q 386 86 337 59 q 479 172 436 114 l 496 340 l 297 340 q 200 311 237 340 q 155 211 163 283 q 177 99 148 139 q 278 59 206 59 m 260 -13 q 114 44 165 -13 q 74 203 63 101 q 143 352 85 298 q 293 407 202 407 l 504 407 l 519 548 q 491 654 525 614 q 383 694 456 694 q 268 665 307 694 q 201 553 230 635 l 131 574 q 226 723 164 677 q 389 770 288 770 q 554 715 495 770 q 601 556 612 659 l 563 192 q 580 86 554 111 q 676 74 606 61 l 668 -3 q 547 13 591 -15 q 506 116 504 40 l 491 116 q 393 23 456 58 q 260 -13 331 -13 z "},"б":{"ha":788,"x_min":101,"x_max":659,"o":"m 340 -13 q 162 56 222 -13 q 116 265 101 125 l 159 668 q 242 879 173 803 q 438 980 312 955 l 654 1025 l 659 953 l 447 912 q 292 828 342 890 q 229 640 242 766 l 222 582 l 236 582 q 314 654 261 626 q 437 682 367 682 q 598 616 544 682 q 639 432 652 549 l 621 259 q 532 56 606 124 q 340 -13 457 -13 m 347 62 q 481 110 437 62 q 537 261 525 159 l 553 419 q 528 561 563 515 q 404 606 494 606 q 270 561 313 606 q 216 419 226 515 l 199 261 q 222 110 188 159 q 347 62 256 62 z "},"в":{"ha":788,"x_min":90,"x_max":664,"o":"m 90 0 l 169 758 l 417 758 q 606 714 548 758 q 654 577 664 670 l 652 551 q 607 448 644 484 q 503 409 569 413 l 501 394 q 611 345 578 388 q 636 227 644 303 l 634 206 q 551 50 622 100 q 337 0 480 0 l 90 0 m 217 434 l 390 434 q 523 457 485 434 q 568 542 562 480 l 571 569 q 544 660 578 635 q 409 684 509 684 l 244 684 l 217 434 m 179 73 l 345 73 q 499 102 455 73 q 552 208 544 131 l 554 231 q 526 335 563 307 q 383 364 489 364 l 210 364 l 179 73 z "},"г":{"ha":788,"x_min":141,"x_max":682,"o":"m 141 0 l 221 758 l 682 758 l 674 683 l 297 683 l 225 0 l 141 0 z "},"ѓ":{"ha":788,"x_min":141,"x_max":708,"o":"m 141 0 m 141 0 l 221 758 l 682 758 l 674 683 l 297 683 l 225 0 l 141 0 m 409 884 l 583 1136 l 708 1136 l 480 884 l 409 884 z "},"д":{"ha":788,"x_min":6,"x_max":663,"o":"m 196 93 l 193 74 l 481 74 l 545 683 l 316 683 l 274 324 q 247 183 265 235 q 196 93 229 131 m 109 0 l 88 -189 l 6 -189 l 34 74 l 100 74 q 162 167 139 109 q 198 332 186 226 l 245 758 l 635 758 l 563 74 l 663 74 l 635 -189 l 553 -189 l 573 0 l 109 0 z "},"е":{"ha":788,"x_min":102,"x_max":658,"o":"m 102 0 m 607 155 q 511 28 571 68 q 343 -13 451 -13 q 162 56 222 -13 q 117 259 102 125 l 141 495 q 234 701 157 633 q 423 770 311 770 q 597 700 537 770 q 643 486 658 630 l 630 366 l 210 366 l 198 258 q 226 107 188 153 q 351 61 264 61 q 466 88 427 61 q 532 179 505 115 l 607 155 m 223 494 l 217 434 l 556 434 l 561 482 q 536 646 573 595 q 414 697 499 697 q 283 647 331 697 q 223 494 235 597 z "},"ѐ":{"ha":788,"x_min":102,"x_max":658,"o":"m 102 0 m 607 155 q 511 28 571 68 q 343 -13 451 -13 q 162 56 222 -13 q 117 259 102 125 l 141 495 q 234 701 157 633 q 423 770 311 770 q 597 700 537 770 q 643 486 658 630 l 630 366 l 210 366 l 198 258 q 226 107 188 153 q 351 61 264 61 q 466 88 427 61 q 532 179 505 115 l 607 155 m 223 494 l 217 434 l 556 434 l 561 482 q 536 646 573 595 q 414 697 499 697 q 283 647 331 697 q 223 494 235 597 m 449 884 l 274 1136 l 399 1136 l 520 884 l 449 884 z "},"ё":{"ha":788,"x_min":102,"x_max":658,"o":"m 102 0 m 607 155 q 511 28 571 68 q 343 -13 451 -13 q 162 56 222 -13 q 117 259 102 125 l 141 495 q 234 701 157 633 q 423 770 311 770 q 597 700 537 770 q 643 486 658 630 l 630 366 l 210 366 l 198 258 q 226 107 188 153 q 351 61 264 61 q 466 88 427 61 q 532 179 505 115 l 607 155 m 223 494 l 217 434 l 556 434 l 561 482 q 536 646 573 595 q 414 697 499 697 q 283 647 331 697 q 223 494 235 597 m 322 914 q 279 926 294 914 q 268 968 264 937 l 268 977 q 289 1022 271 1010 q 335 1034 307 1034 q 376 1022 361 1034 q 388 977 391 1010 l 388 968 q 366 926 384 937 q 322 914 347 914 m 554 914 q 513 926 528 914 q 501 968 497 937 l 501 977 q 523 1022 505 1010 q 567 1034 540 1034 q 610 1022 595 1034 q 621 977 625 1010 l 621 968 q 599 926 617 937 q 554 914 581 914 z "},"ж":{"ha":788,"x_min":13,"x_max":754,"o":"m 295 371 l 96 0 l 13 0 l 241 405 l 87 758 l 170 758 l 302 439 l 351 439 l 384 758 l 457 758 l 423 439 l 470 439 l 670 758 l 754 758 l 524 409 l 670 0 l 586 0 l 463 371 l 415 371 l 378 0 l 304 0 l 343 371 l 295 371 z "},"з":{"ha":788,"x_min":88,"x_max":664,"o":"m 342 -13 q 146 43 203 -13 q 93 229 88 98 l 176 237 q 211 99 174 136 q 343 62 249 62 q 496 96 449 62 q 552 213 543 130 l 553 226 q 525 336 561 304 q 390 367 489 367 l 338 367 l 345 438 l 396 438 q 523 465 484 438 q 568 556 562 491 l 571 573 q 541 669 577 641 q 410 696 505 696 q 285 662 326 696 q 226 534 245 628 l 145 544 q 232 718 167 665 q 424 770 298 770 q 606 722 548 770 q 654 573 664 673 l 652 557 q 607 451 645 489 q 505 408 568 413 l 504 394 q 611 342 578 388 q 635 220 644 295 l 634 208 q 552 42 622 97 q 342 -13 481 -13 z "},"и":{"ha":788,"x_min":90,"x_max":672,"o":"m 514 0 l 581 630 l 186 0 l 90 0 l 169 758 l 247 758 l 181 120 l 580 758 l 672 758 l 592 0 l 514 0 z "},"й":{"ha":788,"x_min":90,"x_max":681,"o":"m 90 0 m 514 0 l 581 630 l 186 0 l 90 0 l 169 758 l 247 758 l 181 120 l 580 758 l 672 758 l 592 0 l 514 0 m 433 875 q 283 931 342 875 q 239 1125 225 986 l 321 1134 q 340 988 312 1032 q 441 944 367 944 q 551 988 514 944 q 598 1134 587 1032 l 681 1125 q 594 931 664 986 q 433 875 524 875 z "},"ѝ":{"ha":788,"x_min":90,"x_max":672,"o":"m 90 0 m 514 0 l 581 630 l 186 0 l 90 0 l 169 758 l 247 758 l 181 120 l 580 758 l 672 758 l 592 0 l 514 0 m 451 884 l 275 1136 l 400 1136 l 521 884 l 451 884 z "},"к":{"ha":788,"x_min":140,"x_max":688,"o":"m 261 362 l 222 0 l 140 0 l 220 758 l 302 758 l 268 434 l 347 434 l 591 758 l 688 758 l 412 403 l 606 0 l 514 0 l 343 362 l 261 362 z "},"ќ":{"ha":788,"x_min":140,"x_max":705,"o":"m 140 0 m 261 362 l 222 0 l 140 0 l 220 758 l 302 758 l 268 434 l 347 434 l 591 758 l 688 758 l 412 403 l 606 0 l 514 0 l 343 362 l 261 362 m 405 884 l 580 1136 l 705 1136 l 476 884 l 405 884 z "},"л":{"ha":788,"x_min":1,"x_max":673,"o":"m 510 0 l 582 683 l 327 683 l 282 287 q 211 62 264 138 q 76 -13 159 -13 q 37 -9 56 -13 q 1 1 18 -5 l 24 73 q 51 65 39 68 q 76 62 63 62 q 160 117 131 62 q 205 303 189 173 l 255 758 l 673 758 l 593 0 l 510 0 z "},"м":{"ha":788,"x_min":73,"x_max":688,"o":"m 319 189 l 218 657 l 150 0 l 73 0 l 153 758 l 268 758 l 370 277 l 574 758 l 688 758 l 609 0 l 532 0 l 601 658 l 402 189 l 319 189 z "},"н":{"ha":788,"x_min":90,"x_max":672,"o":"m 90 0 l 169 758 l 251 758 l 222 476 l 561 476 l 590 758 l 672 758 l 592 0 l 510 0 l 552 402 l 213 402 l 172 0 l 90 0 z "},"о":{"ha":788,"x_min":104,"x_max":658,"o":"m 104 0 m 340 -13 q 161 57 218 -13 q 116 258 104 128 l 141 495 q 229 699 155 628 q 423 770 302 770 q 600 699 543 770 q 644 495 658 628 l 619 258 q 533 57 606 128 q 340 -13 461 -13 m 347 62 q 480 109 433 62 q 537 256 527 157 l 562 495 q 537 646 573 597 q 414 696 500 696 q 282 646 328 696 q 223 495 235 597 l 198 256 q 225 109 188 157 q 347 62 261 62 z "},"п":{"ha":788,"x_min":90,"x_max":672,"o":"m 90 0 l 169 758 l 672 758 l 592 0 l 510 0 l 582 683 l 244 683 l 172 0 l 90 0 z "},"р":{"ha":788,"x_min":63,"x_max":658,"o":"m 63 0 m 338 59 q 478 109 429 59 q 538 263 527 159 l 563 501 q 543 646 573 600 q 441 693 513 693 q 335 664 384 693 q 232 571 285 635 l 183 111 q 256 71 216 83 q 338 59 295 59 m 335 -13 q 255 -3 298 -13 q 174 27 212 6 l 145 -253 l 63 -253 l 169 758 l 251 758 l 240 649 l 259 649 q 348 739 293 708 q 467 770 403 770 q 610 698 563 770 q 644 497 658 625 l 620 260 q 530 60 606 133 q 335 -13 455 -13 z "},"с":{"ha":788,"x_min":104,"x_max":664,"o":"m 104 0 m 354 -13 q 163 57 222 -13 q 116 256 104 126 l 141 495 q 230 699 155 629 q 434 770 306 770 q 610 711 556 770 q 659 532 664 653 l 578 525 q 547 658 582 621 q 427 696 513 696 q 285 647 336 696 q 223 496 235 598 l 198 256 q 229 109 188 157 q 361 62 269 62 q 489 93 448 62 q 544 207 530 125 l 625 201 q 541 39 607 91 q 354 -13 475 -13 z "},"т":{"ha":788,"x_min":130,"x_max":703,"o":"m 299 0 l 371 683 l 130 683 l 138 758 l 703 758 l 696 683 l 455 683 l 383 0 l 299 0 z "},"у":{"ha":788,"x_min":40,"x_max":699,"o":"m 40 0 m 131 -260 q 89 -257 111 -260 q 40 -249 67 -254 l 59 -176 q 104 -184 83 -181 q 148 -187 125 -187 q 237 -155 202 -187 q 306 -43 273 -124 l 321 -3 l 290 -3 l 141 758 l 229 758 l 352 80 l 615 758 l 699 758 l 376 -54 q 271 -214 331 -168 q 131 -260 211 -260 z "},"ў":{"ha":788,"x_min":40,"x_max":699,"o":"m 40 0 m 131 -260 q 89 -257 111 -260 q 40 -249 67 -254 l 59 -176 q 104 -184 83 -181 q 148 -187 125 -187 q 237 -155 202 -187 q 306 -43 273 -124 l 321 -3 l 290 -3 l 141 758 l 229 758 l 352 80 l 615 758 l 699 758 l 376 -54 q 271 -214 331 -168 q 131 -260 211 -260 m 433 875 q 283 931 342 875 q 239 1125 225 986 l 321 1134 q 340 988 312 1032 q 441 944 367 944 q 551 988 514 944 q 598 1134 587 1032 l 681 1125 q 594 931 664 986 q 433 875 524 875 z "},"ф":{"ha":788,"x_min":57,"x_max":705,"o":"m 438 0 l 380 0 l 354 -253 l 275 -253 l 302 0 l 244 0 q 103 73 149 0 q 71 278 57 146 l 92 480 q 167 684 106 611 q 323 758 229 758 l 381 758 l 408 1010 l 486 1010 l 460 758 l 518 758 q 658 684 612 758 q 691 480 705 611 l 669 278 q 594 73 655 146 q 438 0 533 0 m 264 73 l 313 73 l 378 684 l 328 684 q 220 632 260 684 q 170 475 181 580 l 149 280 q 167 124 139 176 q 264 73 196 73 m 497 684 l 448 684 l 384 73 l 433 73 q 541 124 501 73 q 591 280 581 176 l 612 475 q 594 632 622 580 q 497 684 566 684 z "},"х":{"ha":788,"x_min":76,"x_max":686,"o":"m 76 0 m 515 0 l 372 316 l 164 0 l 76 0 l 338 388 l 169 758 l 258 758 l 393 458 l 596 758 l 686 758 l 428 385 l 602 0 l 515 0 z "},"ц":{"ha":788,"x_min":90,"x_max":654,"o":"m 548 -189 l 568 0 l 90 0 l 169 758 l 251 758 l 179 74 l 466 74 l 538 758 l 621 758 l 549 74 l 654 74 l 626 -189 l 548 -189 z "},"ч":{"ha":788,"x_min":107,"x_max":622,"o":"m 622 758 l 543 0 l 460 0 l 489 278 q 415 256 456 265 q 331 246 374 246 q 160 311 212 246 q 121 503 107 375 l 148 758 l 231 758 l 205 505 q 229 364 194 407 q 347 319 264 321 q 426 329 386 318 q 497 356 466 340 l 539 758 l 622 758 z "},"ш":{"ha":788,"x_min":42,"x_max":720,"o":"m 42 0 l 121 758 l 199 758 l 128 71 l 309 71 l 381 758 l 458 758 l 386 71 l 569 71 l 641 758 l 720 758 l 640 0 l 42 0 z "},"щ":{"ha":788,"x_min":42,"x_max":720,"o":"m 674 -189 l 601 -189 l 621 0 l 42 0 l 121 758 l 199 758 l 128 71 l 309 71 l 381 758 l 460 758 l 388 71 l 569 71 l 641 758 l 720 758 l 648 74 l 702 74 l 674 -189 z "},"ъ":{"ha":788,"x_min":57,"x_max":664,"o":"m 415 0 l 144 0 l 216 683 l 57 683 l 64 758 l 306 758 l 277 477 l 466 477 q 614 424 564 477 q 654 275 664 371 l 646 207 q 575 54 636 109 q 415 0 514 0 m 234 74 l 402 74 q 517 106 479 74 q 563 206 556 138 l 571 275 q 546 373 578 343 q 437 403 514 403 l 269 403 l 234 74 z "},"ы":{"ha":788,"x_min":66,"x_max":697,"o":"m 66 0 l 145 758 l 222 758 l 193 486 l 298 486 q 422 431 381 486 q 453 278 463 376 l 447 212 q 383 56 436 111 q 249 0 331 0 l 66 0 m 539 0 l 619 758 l 697 758 l 617 0 l 539 0 m 150 73 l 235 73 q 331 105 299 73 q 371 211 362 138 l 378 279 q 360 383 385 351 q 270 414 335 414 l 186 414 l 150 73 z "},"ь":{"ha":788,"x_min":88,"x_max":663,"o":"m 88 0 l 168 758 l 251 758 l 222 486 l 461 486 q 611 432 559 486 q 653 279 663 378 l 646 212 q 572 56 635 111 q 412 0 509 0 l 88 0 m 179 74 l 399 74 q 517 107 479 74 q 563 211 556 139 l 569 280 q 545 382 577 352 q 434 412 514 412 l 215 412 l 179 74 z "},"э":{"ha":788,"x_min":95,"x_max":658,"o":"m 324 -13 q 148 39 202 -13 q 98 205 95 91 l 178 210 q 211 94 178 126 q 333 62 244 62 q 477 108 428 62 q 537 258 527 154 l 548 357 l 298 357 l 306 429 l 556 429 l 563 500 q 534 650 573 605 q 402 696 495 696 q 270 658 311 696 q 212 523 230 621 l 133 529 q 219 712 153 654 q 408 770 285 770 q 602 699 547 770 q 644 492 658 628 l 620 268 q 535 59 606 131 q 324 -13 465 -13 z "},"ю":{"ha":788,"x_min":48,"x_max":699,"o":"m 438 -13 q 300 56 342 -13 q 271 253 258 125 l 285 380 l 169 380 l 129 0 l 48 0 l 128 758 l 208 758 l 177 455 l 293 455 l 298 501 q 368 701 312 633 q 521 770 424 770 q 660 699 620 770 q 687 500 699 629 l 660 253 q 592 57 648 126 q 438 -13 537 -13 m 446 63 q 541 107 509 63 q 583 253 573 150 l 610 500 q 598 650 620 605 q 513 694 576 694 q 417 650 449 694 q 374 500 384 605 l 347 253 q 360 107 337 150 q 446 63 383 63 z "},"я":{"ha":788,"x_min":80,"x_max":672,"o":"m 327 350 l 547 350 l 582 682 l 362 682 q 269 648 301 682 q 229 540 237 615 l 226 503 q 241 385 217 420 q 327 350 265 350 m 539 277 l 405 277 l 178 0 l 80 0 l 306 277 q 173 336 213 280 q 143 497 133 393 l 146 534 q 213 702 158 646 q 366 758 269 758 l 672 758 l 592 0 l 510 0 l 539 277 z "},"ђ":{"ha":788,"x_min":69,"x_max":654,"o":"m 369 -263 q 310 -256 340 -263 q 250 -236 280 -249 l 275 -158 q 324 -177 299 -170 q 374 -183 350 -183 q 465 -140 429 -183 q 510 -5 500 -96 l 559 467 q 535 589 568 547 q 437 631 501 631 q 329 599 384 631 q 225 506 274 567 l 172 0 l 90 0 l 176 813 l 69 813 l 77 885 l 183 885 l 196 1010 l 278 1010 l 265 885 l 475 885 l 467 813 l 258 813 l 234 587 l 255 587 q 349 676 292 644 q 468 708 407 708 q 607 647 559 708 q 643 485 654 586 l 591 -18 q 517 -199 578 -136 q 369 -263 456 -263 z "},"є":{"ha":788,"x_min":104,"x_max":665,"o":"m 625 205 q 541 40 607 93 q 354 -13 475 -13 q 161 57 218 -13 q 117 268 104 128 l 141 489 q 229 700 155 630 q 436 770 302 770 q 610 711 556 770 q 660 529 665 653 l 580 523 q 548 657 582 619 q 427 694 514 694 q 283 648 332 694 q 223 495 235 601 l 217 429 l 468 429 l 461 357 l 210 357 l 199 261 q 227 110 188 157 q 361 63 266 63 q 488 95 447 63 q 545 210 529 128 l 625 205 z "},"ѕ":{"ha":788,"x_min":78,"x_max":644,"o":"m 78 0 m 347 -13 q 203 11 275 -13 q 78 82 131 34 l 121 149 q 232 85 170 107 q 355 62 293 62 q 480 96 431 62 q 537 194 530 130 q 506 286 543 256 q 362 341 470 316 q 191 419 241 370 q 149 556 140 468 q 230 712 159 654 q 402 770 301 770 q 533 746 470 770 q 644 679 596 722 l 601 614 q 506 672 559 649 q 394 696 453 696 q 282 662 326 696 q 232 564 239 629 q 263 471 226 500 q 408 417 299 442 q 580 337 529 388 q 621 202 630 287 q 534 45 611 102 q 347 -13 457 -13 z "},"і":{"ha":788,"x_min":90,"x_max":600,"o":"m 90 0 m 90 0 l 97 74 l 307 74 l 371 683 l 162 683 l 169 758 l 462 758 l 390 74 l 600 74 l 592 0 l 90 0 m 438 914 q 387 926 407 914 q 371 968 367 937 l 371 977 q 397 1021 375 1009 q 451 1034 419 1034 q 502 1021 482 1034 q 518 977 521 1009 l 518 968 q 492 926 514 937 q 438 914 470 914 z "},"ї":{"ha":788,"x_min":90,"x_max":624,"o":"m 90 0 m 90 0 l 97 74 l 307 74 l 371 683 l 162 683 l 169 758 l 462 758 l 390 74 l 600 74 l 592 0 l 90 0 m 321 914 q 278 926 293 914 q 266 968 263 937 l 266 977 q 288 1022 270 1010 q 333 1034 306 1034 q 375 1022 360 1034 q 386 977 390 1010 l 386 968 q 364 926 383 937 q 321 914 346 914 m 553 914 q 511 926 527 914 q 500 968 496 937 l 500 977 q 521 1022 504 1010 q 566 1034 539 1034 q 609 1022 593 1034 q 620 977 624 1010 l 620 968 q 598 926 616 937 q 553 914 580 914 z "},"ј":{"ha":788,"x_min":64,"x_max":621,"o":"m 64 0 m 220 -263 q 141 -256 181 -263 q 64 -234 102 -249 l 88 -154 q 158 -176 125 -169 q 223 -183 192 -183 q 348 -138 303 -183 q 404 3 394 -93 l 476 683 l 183 683 l 191 758 l 567 758 l 486 -6 q 400 -197 473 -131 q 220 -263 327 -263 m 538 914 q 487 926 506 914 q 471 968 467 937 l 471 977 q 497 1021 475 1009 q 551 1034 519 1034 q 602 1021 582 1034 q 617 977 621 1009 l 617 968 q 592 926 614 937 q 538 914 569 914 z "},"љ":{"ha":788,"x_min":-23,"x_max":682,"o":"m 253 682 l 193 188 q 139 39 181 86 q 43 -9 97 -9 q 10 -5 27 -9 q -23 5 -6 -1 l 3 88 q 24 80 14 83 q 44 77 34 77 q 90 101 69 76 q 119 198 110 126 l 186 758 l 470 758 l 442 492 l 519 492 q 642 441 602 492 q 672 289 682 389 l 663 199 q 602 51 653 102 q 468 0 552 0 l 313 0 l 385 682 l 253 682 m 398 73 l 463 73 q 547 104 515 74 q 586 207 578 134 l 595 288 q 577 390 602 361 q 500 419 552 419 l 434 419 l 398 73 z "},"њ":{"ha":788,"x_min":45,"x_max":677,"o":"m 388 73 l 458 73 q 542 102 510 73 q 581 198 573 130 l 590 284 q 571 384 597 355 q 494 414 545 414 l 423 414 l 388 73 m 165 403 l 122 0 l 45 0 l 125 758 l 202 758 l 173 476 l 354 476 l 383 758 l 460 758 l 431 486 l 514 486 q 637 434 597 486 q 667 284 677 383 l 657 196 q 597 51 646 101 q 463 0 547 0 l 303 0 l 346 403 l 165 403 z "},"ћ":{"ha":788,"x_min":69,"x_max":654,"o":"m 69 0 m 225 506 l 172 0 l 90 0 l 176 813 l 69 813 l 77 885 l 183 885 l 196 1010 l 278 1010 l 265 885 l 475 885 l 467 813 l 258 813 l 234 583 l 253 583 q 345 676 288 643 q 468 708 402 708 q 606 648 558 708 q 643 482 654 587 l 592 0 l 510 0 l 559 463 q 535 588 568 547 q 438 630 503 630 q 332 600 383 630 q 225 506 282 571 z "},"џ":{"ha":788,"x_min":90,"x_max":672,"o":"m 280 -189 l 301 0 l 90 0 l 169 758 l 251 758 l 179 74 l 518 74 l 590 758 l 672 758 l 592 0 l 381 0 l 361 -189 l 280 -189 z "},"ґ":{"ha":788,"x_min":141,"x_max":699,"o":"m 141 0 l 221 758 l 604 758 l 621 927 l 699 927 l 674 683 l 297 683 l 225 0 l 141 0 z "},"ⁿ":{"ha":788,"x_min":179,"x_max":640,"o":"m 179 383 l 245 1013 l 316 1013 l 307 924 l 323 924 q 396 999 351 976 q 486 1023 442 1023 q 600 969 561 1023 q 631 827 640 915 l 585 383 l 514 383 l 559 813 q 542 922 567 885 q 466 958 516 958 q 379 934 422 958 q 301 865 337 910 l 250 383 l 179 383 z "},"̀":{"ha":0,"x_min":-121,"x_max":125,"o":"m 54 884 l -121 1136 l 4 1136 l 125 884 l 54 884 z "},"́":{"ha":0,"x_min":-56,"x_max":244,"o":"m -56 884 l 119 1136 l 244 1136 l 15 884 l -56 884 z "},"̂":{"ha":0,"x_min":-170,"x_max":263,"o":"m -139 908 l -170 955 l 38 1158 l 96 1158 l 263 955 l 223 908 l 59 1077 l -139 908 z "},"̃":{"ha":0,"x_min":-167,"x_max":275,"o":"m 130 896 q 71 920 93 896 q 29 996 48 944 q 1 1059 14 1039 q -30 1078 -13 1078 q -76 1041 -58 1078 q -101 923 -93 1004 l -102 909 l -167 909 l -165 928 q -117 1090 -154 1032 q -20 1148 -80 1148 q 41 1125 19 1148 q 81 1053 63 1102 q 110 987 97 1009 q 139 966 122 966 q 184 1003 167 966 q 210 1121 202 1040 l 211 1135 l 275 1135 l 274 1116 q 226 955 263 1013 q 130 896 189 896 z "},"̄":{"ha":0,"x_min":-149,"x_max":255,"o":"m -149 975 l -141 1049 l 255 1049 l 247 975 l -149 975 z "},"̆":{"ha":0,"x_min":-176,"x_max":297,"o":"m 39 875 q -122 941 -68 875 q -163 1136 -176 1008 l -82 1136 q -61 990 -92 1034 q 47 946 -29 946 q 163 990 122 946 q 216 1136 203 1034 l 297 1136 q 214 941 282 1008 q 39 875 146 875 z "},"̇":{"ha":0,"x_min":-28,"x_max":126,"o":"m 43 914 q -8 926 11 914 q -24 968 -28 937 l -24 977 q 2 1021 -20 1009 q 56 1034 24 1034 q 107 1021 87 1034 q 122 977 126 1009 l 122 968 q 97 926 119 937 q 43 914 74 914 z "},"̈":{"ha":0,"x_min":-131,"x_max":230,"o":"m -73 914 q -116 926 -101 914 q -128 968 -131 937 l -128 977 q -106 1022 -124 1010 q -61 1034 -88 1034 q -19 1022 -34 1034 q -8 977 -4 1010 l -8 968 q -30 926 -11 937 q -73 914 -48 914 m 159 914 q 117 926 133 914 q 106 968 102 937 l 106 977 q 128 1022 110 1010 q 172 1034 145 1034 q 215 1022 199 1034 q 226 977 230 1010 l 226 968 q 204 926 222 937 q 159 914 186 914 z "},"̊":{"ha":0,"x_min":-114,"x_max":231,"o":"m 38 866 q -75 910 -37 866 q -104 1043 -114 955 l -98 1093 q -42 1229 -90 1183 q 81 1274 6 1274 q 193 1229 155 1274 q 222 1093 231 1183 l 217 1043 q 160 910 207 955 q 38 866 112 866 m 44 929 q 116 956 91 929 q 148 1043 141 982 l 153 1093 q 140 1182 159 1154 q 74 1211 121 1211 q 3 1182 28 1211 q -29 1093 -23 1154 l -34 1043 q -21 956 -40 982 q 44 929 -3 929 z "},"̋":{"ha":0,"x_min":-102,"x_max":326,"o":"m 119 884 l 203 1136 l 326 1136 l 178 884 l 119 884 m -102 884 l -16 1136 l 106 1136 l -42 884 l -102 884 z "},"̌":{"ha":0,"x_min":-155,"x_max":278,"o":"m 11 889 l -155 1092 l -115 1138 l 49 970 l 247 1138 l 278 1092 l 71 889 l 11 889 z "},"̒":{"ha":0,"x_min":-74,"x_max":177,"o":"m -74 884 l 106 1136 l 177 1136 l 51 884 l -74 884 z "},"̦":{"ha":0,"x_min":-226,"x_max":25,"o":"m -226 -379 l -100 -126 l 25 -126 l -155 -379 l -226 -379 z "},"̧":{"ha":0,"x_min":-258,"x_max":59,"o":"m -85 0 l -66 37 q 27 -17 -5 24 q 53 -122 59 -58 q -3 -233 45 -194 q -116 -271 -52 -271 q -220 -241 -182 -271 q -255 -136 -258 -210 l -179 -128 q -165 -185 -179 -168 q -114 -202 -150 -202 q -51 -183 -71 -202 q -24 -114 -30 -164 q -33 -39 -19 -64 q -85 0 -47 -14 z "},"̨":{"ha":0,"x_min":-167,"x_max":81,"o":"m -27 -271 q -129 -232 -91 -271 q -160 -129 -167 -193 q -112 -27 -154 -73 q -13 47 -69 20 l 5 29 q -57 -35 -37 0 q -82 -106 -78 -69 q -69 -174 -87 -153 q -8 -194 -51 -194 q 36 -192 13 -194 q 81 -184 59 -189 l 72 -260 q 23 -268 51 -265 q -27 -271 -5 -271 z "},"¼":{"ha":788,"x_min":8,"x_max":754,"o":"m 227 518 l 234 582 l 378 582 l 413 913 l 402 913 q 342 832 384 862 q 251 801 301 802 l 251 866 q 355 906 303 869 q 427 1018 407 943 l 497 1018 l 451 582 l 582 582 l 576 518 l 227 518 m 8 335 l 16 422 l 350 407 l 343 351 l 8 335 m 745 335 l 426 351 l 432 407 l 754 422 l 745 335 m 449 -265 l 376 -265 l 390 -133 l 116 -133 l 122 -69 l 412 273 l 506 273 l 470 -69 l 568 -69 l 562 -133 l 463 -133 l 449 -265 m 194 -69 l 396 -69 l 426 203 l 194 -69 z "},"½":{"ha":788,"x_min":8,"x_max":754,"o":"m 227 518 l 234 582 l 378 582 l 413 913 l 402 913 q 342 832 384 862 q 251 801 301 802 l 251 866 q 352 905 301 869 q 427 1018 404 941 l 497 1018 l 451 582 l 582 582 l 576 518 l 227 518 m 8 335 l 16 422 l 350 407 l 343 351 l 8 335 m 745 335 l 426 351 l 432 407 l 754 422 l 745 335 m 514 -266 l 114 -266 l 125 -160 q 162 -65 131 -101 q 263 -13 193 -29 l 381 15 q 448 42 429 28 q 471 92 467 57 l 473 116 q 453 182 477 162 q 362 203 429 203 q 270 183 295 203 q 234 109 244 163 l 159 116 q 218 230 170 194 q 369 266 266 266 q 513 230 471 266 q 547 121 554 193 l 542 77 q 503 -4 537 25 q 409 -48 470 -34 l 290 -76 q 223 -109 245 -87 q 193 -202 201 -130 l 520 -202 l 514 -266 z "},"¾":{"ha":788,"x_min":8,"x_max":754,"o":"m 393 509 q 241 544 283 509 q 202 649 198 580 l 277 654 q 299 592 277 610 q 400 573 321 573 q 502 593 472 573 q 537 655 532 612 l 538 676 q 516 729 542 712 q 419 746 490 746 l 357 746 l 364 811 l 426 811 q 515 823 487 811 q 545 867 543 836 l 548 894 q 525 944 552 929 q 436 960 497 960 q 349 944 378 960 q 316 891 321 929 l 241 898 q 301 994 253 965 q 442 1024 348 1024 q 581 996 533 1024 q 622 900 630 968 l 620 880 q 590 816 616 840 q 525 788 563 793 l 523 774 q 591 742 566 769 q 612 672 616 715 l 610 653 q 549 544 602 580 q 393 509 495 509 m 8 335 l 16 422 l 350 407 l 343 351 l 8 335 m 745 335 l 426 351 l 432 407 l 754 422 l 745 335 m 449 -265 l 376 -265 l 390 -133 l 116 -133 l 122 -69 l 412 273 l 506 273 l 470 -69 l 568 -69 l 562 -133 l 463 -133 l 449 -265 m 194 -69 l 396 -69 l 426 203 l 194 -69 z "},"⅛":{"ha":788,"x_min":8,"x_max":754,"o":"m 227 518 l 234 582 l 378 582 l 413 913 l 402 913 q 342 832 384 862 q 251 801 301 802 l 251 866 q 352 905 301 869 q 427 1018 404 941 l 497 1018 l 451 582 l 582 582 l 576 518 l 227 518 m 8 335 l 16 422 l 350 407 l 343 351 l 8 335 m 745 335 l 426 351 l 432 407 l 754 422 l 745 335 m 314 -273 q 162 -232 201 -273 q 130 -120 122 -191 l 131 -107 q 165 -28 136 -58 q 239 6 193 3 l 240 21 q 184 51 205 27 q 168 115 163 76 l 169 131 q 229 235 177 203 q 371 268 282 268 q 508 237 462 268 q 545 131 553 206 l 544 115 q 513 51 539 76 q 453 21 487 27 l 452 6 q 517 -29 495 3 q 534 -107 539 -61 l 533 -120 q 477 -233 525 -193 q 314 -273 429 -273 m 348 45 q 437 60 409 45 q 468 110 465 74 l 471 129 q 450 186 475 169 q 365 203 426 203 q 277 186 306 203 q 245 129 249 169 l 242 110 q 264 60 239 74 q 348 45 289 45 m 322 -208 q 424 -186 396 -208 q 458 -114 452 -163 l 458 -102 q 439 -39 463 -59 q 341 -19 415 -19 q 239 -39 266 -19 q 207 -102 212 -59 l 207 -114 q 224 -186 201 -163 q 322 -208 247 -208 z "},"⅜":{"ha":788,"x_min":8,"x_max":754,"o":"m 393 509 q 241 544 283 509 q 202 649 198 580 l 277 654 q 299 592 277 610 q 400 573 321 573 q 502 593 472 573 q 537 655 532 612 l 538 676 q 516 729 542 712 q 419 746 490 746 l 357 746 l 364 811 l 426 811 q 515 823 487 811 q 545 867 543 836 l 548 894 q 525 944 552 929 q 436 960 497 960 q 349 944 378 960 q 316 891 321 929 l 241 898 q 301 995 253 966 q 442 1024 348 1024 q 581 996 533 1024 q 622 900 630 968 l 620 880 q 590 816 616 840 q 525 788 563 793 l 523 774 q 591 742 566 769 q 612 672 616 715 l 610 653 q 549 544 602 580 q 393 509 495 509 m 8 335 l 16 422 l 350 407 l 343 351 l 8 335 m 745 335 l 426 351 l 432 407 l 754 422 l 745 335 m 314 -273 q 162 -232 201 -273 q 130 -120 122 -191 l 131 -107 q 165 -28 136 -58 q 239 6 193 3 l 240 21 q 184 51 205 27 q 168 115 163 76 l 169 131 q 229 235 177 203 q 371 268 282 268 q 508 237 462 268 q 545 131 553 206 l 544 115 q 513 51 539 76 q 453 21 487 27 l 452 6 q 517 -29 495 3 q 534 -107 539 -61 l 533 -120 q 477 -233 525 -193 q 314 -273 429 -273 m 348 45 q 437 60 409 45 q 468 110 465 74 l 471 129 q 450 186 475 169 q 365 203 426 203 q 277 186 306 203 q 245 129 249 169 l 242 110 q 264 60 239 74 q 348 45 289 45 m 322 -208 q 424 -186 396 -208 q 458 -114 452 -163 l 458 -102 q 439 -39 463 -59 q 341 -19 415 -19 q 239 -39 266 -19 q 207 -102 212 -59 l 207 -114 q 224 -186 201 -163 q 322 -208 247 -208 z "},"⅝":{"ha":788,"x_min":8,"x_max":754,"o":"m 394 510 q 241 541 284 510 q 205 655 198 572 l 278 663 q 302 591 277 609 q 402 573 328 573 q 502 592 472 573 q 537 657 532 611 l 539 688 q 519 747 544 729 q 424 765 494 765 l 234 765 l 260 1016 l 626 1016 l 619 953 l 327 953 l 314 832 l 443 832 q 578 798 533 832 q 615 696 622 764 l 610 654 q 549 547 604 585 q 394 510 494 510 m 8 335 l 16 422 l 350 407 l 343 351 l 8 335 m 745 335 l 426 351 l 432 407 l 754 422 l 745 335 m 314 -273 q 162 -232 201 -273 q 130 -120 122 -191 l 131 -107 q 165 -28 136 -58 q 239 6 193 3 l 240 21 q 184 51 205 27 q 168 115 163 76 l 169 131 q 229 235 177 203 q 371 268 282 268 q 508 237 462 268 q 545 131 553 206 l 544 115 q 513 51 539 76 q 453 21 487 27 l 452 6 q 517 -29 495 3 q 534 -107 539 -61 l 533 -120 q 477 -233 525 -193 q 314 -273 429 -273 m 348 45 q 437 60 409 45 q 468 110 465 74 l 471 129 q 450 186 475 169 q 365 203 426 203 q 277 186 306 203 q 245 129 249 169 l 242 110 q 264 60 239 74 q 348 45 289 45 m 322 -208 q 424 -186 396 -208 q 458 -114 452 -163 l 458 -102 q 439 -39 463 -59 q 341 -19 415 -19 q 239 -39 266 -19 q 207 -102 212 -59 l 207 -114 q 224 -186 201 -163 q 322 -208 247 -208 z "},"⅞":{"ha":788,"x_min":8,"x_max":754,"o":"m 330 518 q 428 754 374 660 q 568 952 482 847 l 241 952 l 249 1018 l 650 1018 l 643 952 q 499 736 557 836 q 408 518 441 636 l 330 518 m 8 335 l 16 422 l 350 407 l 343 351 l 8 335 m 745 335 l 426 351 l 432 407 l 754 422 l 745 335 m 314 -273 q 162 -232 201 -273 q 130 -120 122 -191 l 131 -107 q 165 -28 136 -58 q 239 6 193 3 l 240 21 q 184 51 205 27 q 168 115 163 76 l 169 131 q 229 235 177 203 q 371 268 282 268 q 508 237 462 268 q 545 131 553 206 l 544 115 q 513 51 539 76 q 453 21 487 27 l 452 6 q 517 -29 495 3 q 534 -107 539 -61 l 533 -120 q 477 -233 525 -193 q 314 -273 429 -273 m 348 45 q 437 60 409 45 q 468 110 465 74 l 471 129 q 450 186 475 169 q 365 203 426 203 q 277 186 306 203 q 245 129 249 169 l 242 110 q 264 60 239 74 q 348 45 289 45 m 322 -208 q 424 -186 396 -208 q 458 -114 452 -163 l 458 -102 q 439 -39 463 -59 q 341 -19 415 -19 q 239 -39 266 -19 q 207 -102 212 -59 l 207 -114 q 224 -186 201 -163 q 322 -208 247 -208 z "},"_":{"ha":788,"x_min":21,"x_max":620,"o":"m 21 -232 l 29 -150 l 620 -150 l 612 -232 l 21 -232 z "},"-":{"ha":788,"x_min":87,"x_max":687,"o":"m 87 400 l 96 484 l 687 484 l 678 400 l 87 400 z "},"­":{"ha":788,"x_min":87,"x_max":687,"o":"m 87 400 l 96 484 l 687 484 l 678 400 l 87 400 z "},"‐":{"ha":788,"x_min":87,"x_max":687,"o":"m 87 400 l 96 484 l 687 484 l 678 400 l 87 400 z "},"‑":{"ha":788,"x_min":87,"x_max":687,"o":"m 87 400 l 96 484 l 687 484 l 678 400 l 87 400 z "},"–":{"ha":788,"x_min":116,"x_max":658,"o":"m 116 400 l 125 484 l 658 484 l 649 400 l 116 400 z "},"—":{"ha":788,"x_min":14,"x_max":760,"o":"m 14 400 l 23 484 l 760 484 l 751 400 l 14 400 z "},"―":{"ha":788,"x_min":14,"x_max":761,"o":"m 14 400 l 23 484 l 761 484 l 753 400 l 14 400 z "},"(":{"ha":788,"x_min":207,"x_max":649,"o":"m 511 -265 q 281 -51 355 -221 q 235 379 207 119 q 371 809 261 639 q 646 1023 480 979 l 649 956 q 426 764 510 913 q 317 379 341 615 q 345 -6 292 143 q 528 -198 398 -155 l 511 -265 z "},")":{"ha":788,"x_min":111,"x_max":554,"o":"m 115 -265 l 111 -198 q 336 -6 251 -155 q 446 379 420 143 q 417 764 470 615 q 235 956 364 913 l 250 1023 q 480 809 407 979 q 528 379 554 639 q 391 -51 500 119 q 115 -265 282 -221 z "},"[":{"ha":788,"x_min":168,"x_max":646,"o":"m 168 -253 l 301 1010 l 646 1010 l 639 936 l 375 936 l 258 -184 l 521 -184 l 514 -253 l 168 -253 z "},"]":{"ha":788,"x_min":115,"x_max":593,"o":"m 115 -253 l 122 -184 l 386 -184 l 504 936 l 240 936 l 247 1010 l 593 1010 l 461 -253 l 115 -253 z "},"{":{"ha":788,"x_min":73,"x_max":648,"o":"m 513 -265 q 213 -217 302 -269 q 135 -56 124 -165 q 165 39 141 -3 q 226 125 188 80 q 282 191 261 164 q 304 245 302 217 q 261 335 312 308 q 73 365 211 361 l 80 423 q 273 452 216 427 q 336 537 330 477 q 323 588 338 564 q 282 645 308 612 q 235 723 250 684 q 227 817 221 763 q 339 975 239 924 q 648 1023 439 1027 l 640 948 q 393 920 468 952 q 309 811 318 888 q 320 749 307 778 q 365 681 333 720 q 408 611 395 641 q 418 542 422 581 q 358 437 410 472 q 210 398 306 403 l 210 391 q 348 340 303 381 q 385 230 393 299 q 361 162 381 194 q 299 88 341 130 q 242 20 261 51 q 220 -51 223 -11 q 280 -164 211 -130 q 520 -193 348 -197 l 513 -265 z "},"}":{"ha":788,"x_min":114,"x_max":691,"o":"m 534 -56 q 424 -217 523 -165 q 114 -265 324 -269 l 121 -193 q 369 -164 294 -197 q 452 -51 443 -130 q 443 20 456 -11 q 400 88 431 51 q 355 162 369 130 q 345 230 341 194 q 406 340 352 299 q 556 391 460 381 l 556 398 q 416 437 462 403 q 378 542 370 472 q 401 611 381 581 q 461 681 420 641 q 520 749 500 720 q 542 811 539 778 q 482 920 551 888 q 241 948 414 952 l 249 1023 q 547 975 457 1027 q 626 817 638 924 q 598 723 620 763 q 537 645 576 684 q 484 589 504 612 q 461 540 463 566 q 506 453 455 479 q 691 423 557 427 l 684 365 q 492 335 548 361 q 429 245 437 308 q 441 191 427 217 q 481 125 456 164 q 526 39 511 80 q 534 -56 540 -3 z "},"#":{"ha":788,"x_min":64,"x_max":725,"o":"m 457 350 l 503 664 l 332 664 l 285 350 l 457 350 m 405 0 l 446 274 l 274 274 l 235 0 l 160 0 l 201 274 l 64 274 l 72 350 l 212 350 l 258 664 l 105 664 l 114 740 l 270 740 l 309 1010 l 383 1010 l 343 740 l 514 740 l 553 1010 l 626 1010 l 587 740 l 725 740 l 716 664 l 576 664 l 530 350 l 683 350 l 676 274 l 519 274 l 479 0 l 405 0 z "},"%":{"ha":788,"x_min":37,"x_max":758,"o":"m 244 572 q 134 619 173 572 q 105 763 95 665 l 114 846 q 173 989 124 942 q 292 1035 222 1035 q 400 989 362 1035 q 428 846 438 942 l 419 763 q 361 619 409 665 q 244 572 313 572 m 250 639 q 313 667 288 639 q 343 760 337 696 l 354 848 q 342 939 360 910 q 285 968 323 968 q 221 939 246 968 q 189 848 196 910 l 179 760 q 192 667 173 696 q 250 639 211 639 m 37 236 l 720 835 l 758 778 l 71 181 l 37 236 m 497 -28 q 388 18 427 -28 q 359 159 348 64 l 367 245 q 427 389 378 342 q 545 436 476 436 q 654 389 616 436 q 682 245 692 342 l 673 159 q 615 18 663 64 q 497 -28 567 -28 m 504 39 q 567 67 543 39 q 597 157 591 95 l 607 247 q 596 339 614 309 q 539 369 578 369 q 475 339 500 369 q 443 247 449 309 l 433 157 q 446 67 427 95 q 504 39 465 39 z "},"‰":{"ha":788,"x_min":14,"x_max":734,"o":"m 227 572 q 128 617 163 572 q 104 754 93 662 l 114 855 q 168 991 124 946 q 275 1035 212 1035 q 374 991 340 1035 q 398 855 408 946 l 388 754 q 334 617 378 662 q 227 572 290 572 m 181 751 q 189 665 174 692 q 234 639 203 639 q 285 665 265 639 q 311 751 304 692 l 321 857 q 314 942 327 915 q 269 968 301 968 q 218 942 239 968 q 191 857 197 915 l 181 751 m 734 782 l 48 197 l 14 253 l 697 837 l 734 782 m 571 -28 q 520 -11 540 -28 q 487 42 499 6 q 445 -11 471 6 q 390 -28 419 -28 q 309 16 337 -28 q 292 150 282 59 l 303 261 q 350 396 312 352 q 439 441 388 441 q 491 423 470 441 q 523 370 513 405 q 566 423 540 405 q 620 441 591 441 q 701 396 674 441 q 718 261 727 352 l 707 150 q 660 16 697 59 q 571 -28 624 -28 m 362 143 q 367 61 356 86 q 402 37 378 37 q 441 61 426 37 q 462 143 456 86 l 475 269 q 471 351 481 324 q 437 378 461 378 q 397 351 413 378 q 375 269 381 324 l 362 143 m 534 143 q 539 61 528 86 q 573 37 549 37 q 612 61 597 37 q 634 143 628 86 l 646 269 q 643 351 653 324 q 609 378 633 378 q 569 351 585 378 q 547 269 553 324 l 534 143 z "},"'":{"ha":788,"x_min":361,"x_max":511,"o":"m 361 548 l 383 1010 l 511 1010 l 437 548 l 361 548 z "},"\"":{"ha":788,"x_min":201,"x_max":673,"o":"m 521 548 l 543 1010 l 673 1010 l 598 548 l 521 548 m 201 548 l 222 1010 l 351 1010 l 277 548 l 201 548 z "},"ʻ":{"ha":788,"x_min":273,"x_max":601,"o":"m 273 548 l 532 1010 l 601 1010 l 432 548 l 273 548 z "},"‘":{"ha":788,"x_min":273,"x_max":601,"o":"m 273 548 l 532 1010 l 601 1010 l 432 548 l 273 548 z "},"’":{"ha":788,"x_min":245,"x_max":573,"o":"m 245 548 l 414 1010 l 573 1010 l 314 548 l 245 548 z "},"“":{"ha":788,"x_min":112,"x_max":751,"o":"m 433 548 l 687 1010 l 751 1010 l 583 548 l 433 548 m 112 548 l 366 1010 l 431 1010 l 261 548 l 112 548 z "},"”":{"ha":788,"x_min":95,"x_max":734,"o":"m 415 548 l 585 1010 l 734 1010 l 480 548 l 415 548 m 95 548 l 263 1010 l 413 1010 l 159 548 l 95 548 z "},"‛":{"ha":788,"x_min":301,"x_max":534,"o":"m 301 548 m 465 548 l 301 1010 l 461 1010 l 534 548 l 465 548 z "},"‚":{"ha":788,"x_min":179,"x_max":496,"o":"m 179 0 m 179 -255 l 337 207 l 496 207 l 247 -255 l 179 -255 z "},"„":{"ha":788,"x_min":56,"x_max":694,"o":"m 56 0 m 376 -236 l 545 226 l 694 226 l 441 -236 l 376 -236 m 56 -236 l 223 226 l 374 226 l 120 -236 l 56 -236 z "},"‹":{"ha":788,"x_min":223,"x_max":578,"o":"m 516 146 l 223 414 l 230 470 l 578 737 l 569 654 l 293 442 l 525 230 l 516 146 z "},"›":{"ha":788,"x_min":196,"x_max":551,"o":"m 196 146 l 205 230 l 484 442 l 249 654 l 258 737 l 551 470 l 544 414 l 196 146 z "},"«":{"ha":788,"x_min":77,"x_max":722,"o":"m 660 146 l 396 413 l 403 470 l 722 736 l 713 653 l 458 442 l 669 230 l 660 146 m 341 146 l 77 413 l 83 470 l 403 736 l 394 653 l 140 442 l 350 230 l 341 146 z "},"»":{"ha":788,"x_min":49,"x_max":693,"o":"m 49 146 l 58 230 l 313 442 l 102 654 l 111 737 l 375 470 l 369 414 l 49 146 m 369 146 l 378 230 l 633 442 l 422 654 l 431 737 l 693 470 l 687 414 l 369 146 z "},"*":{"ha":788,"x_min":111,"x_max":710,"o":"m 622 434 l 429 620 l 420 321 l 327 321 l 381 619 l 149 434 l 111 514 l 366 667 l 143 819 l 198 899 l 390 712 l 399 1010 l 492 1010 l 438 712 l 672 899 l 710 819 l 453 667 l 678 514 l 622 434 z "},"†":{"ha":788,"x_min":107,"x_max":662,"o":"m 273 -253 l 371 683 l 241 683 l 173 383 l 107 383 l 179 758 l 380 758 l 399 1010 l 495 1010 l 461 758 l 662 758 l 655 383 l 590 383 l 585 683 l 453 683 l 355 -253 l 273 -253 z "},"‡":{"ha":788,"x_min":97,"x_max":664,"o":"m 264 -253 l 298 0 l 98 0 l 97 289 l 163 289 l 176 74 l 307 74 l 371 683 l 240 683 l 182 468 l 116 468 l 178 758 l 380 758 l 399 1010 l 495 1010 l 461 758 l 662 758 l 664 468 l 598 468 l 585 683 l 453 683 l 389 74 l 520 74 l 580 289 l 645 289 l 582 0 l 384 0 l 365 -253 l 264 -253 z "},".":{"ha":788,"x_min":251,"x_max":449,"o":"m 341 -13 q 275 8 299 -13 q 256 72 251 29 l 260 106 q 293 172 265 152 q 362 193 321 193 q 427 172 404 193 q 444 106 449 152 l 441 72 q 408 8 436 29 q 341 -13 380 -13 z "},",":{"ha":788,"x_min":167,"x_max":484,"o":"m 167 -255 l 324 207 l 484 207 l 235 -255 l 167 -255 z "},":":{"ha":788,"x_min":253,"x_max":509,"o":"m 400 557 q 336 576 359 557 q 317 638 313 596 l 322 679 q 353 742 326 722 q 422 763 380 763 q 485 742 462 763 q 505 679 509 722 l 500 638 q 468 576 496 596 q 400 557 439 557 m 341 -13 q 276 6 299 -13 q 258 68 253 25 l 261 110 q 294 173 266 153 q 362 193 321 193 q 426 173 403 193 q 444 110 449 153 l 441 68 q 408 6 436 25 q 341 -13 380 -13 z "},";":{"ha":788,"x_min":167,"x_max":509,"o":"m 400 557 q 336 576 359 557 q 317 638 313 596 l 322 679 q 353 742 326 722 q 422 763 380 763 q 485 742 462 763 q 505 679 509 722 l 500 638 q 468 576 496 596 q 400 557 439 557 m 167 -256 l 324 208 l 484 208 l 235 -256 l 167 -256 z "},"…":{"ha":788,"x_min":27,"x_max":674,"o":"m 592 -13 q 547 8 563 -13 q 537 69 532 28 l 540 110 q 565 174 545 153 q 614 194 585 194 q 658 174 643 194 q 669 110 674 153 l 665 69 q 640 8 660 28 q 592 -13 620 -13 m 341 -13 q 295 8 312 -13 q 284 69 279 28 l 288 110 q 313 174 293 153 q 362 194 333 194 q 406 174 390 194 q 417 110 422 153 l 413 69 q 388 8 408 28 q 341 -13 369 -13 m 88 -13 q 43 8 59 -13 q 32 69 27 28 l 35 110 q 61 174 40 153 q 110 194 81 194 q 153 174 138 194 q 164 110 169 153 l 160 69 q 136 8 155 28 q 88 -13 116 -13 z "},"!":{"ha":788,"x_min":256,"x_max":504,"o":"m 350 379 l 395 1010 l 504 1010 l 418 379 l 350 379 m 343 -13 q 278 7 299 -13 q 261 69 256 27 l 265 105 q 295 169 269 148 q 365 189 321 189 q 429 169 409 189 q 446 105 449 148 l 442 69 q 412 7 437 27 q 343 -13 386 -13 z "},"¡":{"ha":788,"x_min":288,"x_max":535,"o":"m 449 1021 q 514 1001 492 1021 q 530 938 535 981 l 527 903 q 497 840 523 860 q 428 819 471 819 q 363 840 384 819 q 346 903 342 860 l 350 938 q 380 1001 355 981 q 449 1021 405 1021 m 443 631 l 398 0 l 288 0 l 376 631 l 443 631 z "},"‼":{"ha":788,"x_min":105,"x_max":650,"o":"m 499 379 l 543 1010 l 650 1010 l 564 379 l 499 379 m 199 379 l 244 1010 l 351 1010 l 265 379 l 199 379 m 491 -13 q 427 7 448 -13 q 410 69 405 27 l 414 105 q 444 169 418 148 q 513 189 470 189 q 576 169 556 189 q 593 105 597 148 l 590 69 q 559 7 585 27 q 491 -13 534 -13 m 192 -13 q 127 7 149 -13 q 110 69 105 27 l 114 105 q 144 169 117 148 q 213 189 170 189 q 277 169 256 189 q 293 105 297 148 l 289 69 q 259 7 284 27 q 192 -13 235 -13 z "},"?":{"ha":788,"x_min":115,"x_max":730,"o":"m 298 398 l 290 465 q 545 551 471 499 q 629 697 619 604 l 633 736 q 603 898 645 847 q 443 948 561 948 q 268 900 316 948 q 197 717 220 852 l 115 726 q 212 957 139 891 q 449 1023 285 1023 q 665 953 601 1023 q 717 751 730 883 l 711 692 q 603 501 697 566 q 298 398 509 437 m 292 -13 q 227 7 249 -13 q 211 69 206 27 l 215 105 q 244 169 218 148 q 313 189 270 189 q 379 169 357 189 q 396 105 400 148 l 393 69 q 361 7 388 27 q 292 -13 335 -13 z "},"¿":{"ha":788,"x_min":57,"x_max":673,"o":"m 495 1023 q 561 1003 539 1023 q 577 941 582 984 l 573 905 q 544 842 569 862 q 473 821 518 821 q 409 842 431 821 q 391 905 388 862 l 395 941 q 426 1003 400 984 q 495 1023 452 1023 m 490 612 l 497 545 q 244 459 318 511 q 159 313 169 407 l 155 274 q 184 112 143 162 q 345 62 226 62 q 519 110 471 62 q 591 293 567 158 l 673 284 q 574 53 648 119 q 338 -13 501 -13 q 122 57 187 -13 q 71 259 57 128 l 76 318 q 183 509 90 444 q 490 612 277 573 z "},"/":{"ha":788,"x_min":63,"x_max":698,"o":"m 63 -253 l 617 1010 l 698 1010 l 144 -253 l 63 -253 z "},"\\":{"ha":788,"x_min":196,"x_max":566,"o":"m 485 -253 l 196 1010 l 277 1010 l 566 -253 l 485 -253 z "},"⁄":{"ha":788,"x_min":90,"x_max":698,"o":"m 90 0 l 617 1010 l 698 1010 l 170 0 l 90 0 z "},"∕":{"ha":788,"x_min":90,"x_max":698,"o":"m 90 0 l 617 1010 l 698 1010 l 170 0 l 90 0 z "},"|":{"ha":788,"x_min":279,"x_max":482,"o":"m 279 -253 l 412 1010 l 482 1010 l 350 -253 l 279 -253 z "},"¦":{"ha":788,"x_min":279,"x_max":482,"o":"m 359 505 l 412 1010 l 482 1010 l 429 505 l 359 505 m 279 -253 l 332 253 l 403 253 l 350 -253 l 279 -253 z "},"@":{"ha":788,"x_min":73,"x_max":698,"o":"m 388 -139 q 148 -43 223 -139 q 92 234 73 53 l 139 670 q 236 931 157 838 q 455 1023 316 1023 q 641 929 583 1023 q 681 663 698 835 l 646 338 q 584 190 635 241 q 453 139 533 139 q 335 193 371 139 q 309 342 299 246 l 330 523 q 387 675 338 617 q 497 732 436 732 q 560 713 538 732 q 591 665 582 693 l 609 665 q 584 884 622 811 q 447 958 545 958 q 282 887 338 958 q 210 670 225 816 l 163 234 q 203 4 148 82 q 395 -73 258 -73 q 501 -62 452 -73 q 591 -37 551 -52 l 583 -104 q 489 -128 539 -117 q 388 -139 438 -139 m 465 211 q 539 242 511 211 q 574 346 567 274 l 592 515 q 579 624 600 588 q 511 660 558 660 q 437 625 465 660 q 403 515 410 590 l 385 350 q 398 245 378 279 q 465 211 418 211 z "},"&":{"ha":788,"x_min":33,"x_max":701,"o":"m 677 -6 q 568 62 622 25 q 467 145 513 98 q 352 30 415 73 q 220 -13 289 -13 q 80 56 128 -13 q 47 250 33 124 q 106 419 57 345 q 229 540 155 492 q 203 670 210 609 q 201 775 196 731 q 270 957 212 890 q 417 1024 328 1024 q 538 966 496 1024 q 569 821 580 908 q 497 657 559 725 q 313 525 436 590 q 332 475 322 501 q 356 420 342 448 q 407 328 379 374 q 467 244 436 283 q 539 367 505 302 q 606 508 573 433 l 668 473 q 592 336 634 403 q 503 198 551 270 l 701 68 l 677 -6 m 278 774 q 278 677 274 727 q 295 574 283 626 q 437 680 385 621 q 496 811 489 739 q 479 910 503 870 q 409 949 455 949 q 320 903 354 949 q 278 774 287 857 m 240 61 q 331 92 283 61 q 423 184 380 124 q 358 273 390 223 q 299 378 326 323 q 273 433 287 405 q 249 489 259 461 q 165 386 197 447 q 126 254 134 326 q 146 112 117 163 q 240 61 176 61 z "}}}
